if (_typeface_js && _typeface_js.loadFace) _typeface_js.loadFace({"glyphs":{"ợ":{"x_min":53.0625,"x_max":769.734375,"ha":768,"o":"m 383 596 b 585 337 528 596 585 451 b 380 76 585 186 497 76 b 176 335 261 76 176 187 b 383 596 176 462 239 596 m 653 770 b 675 688 665 746 675 718 b 619 632 675 651 655 632 b 501 668 576 632 535 658 b 386 688 464 681 428 688 b 53 330 200 688 53 556 b 375 -15 53 118 193 -15 b 710 341 537 -15 710 93 b 640 564 710 432 685 508 b 769 685 725 560 769 610 b 746 786 769 724 760 757 l 653 770 m 383 -111 b 311 -182 343 -111 311 -143 b 380 -254 311 -221 341 -254 b 451 -182 422 -254 451 -221 b 383 -111 451 -143 421 -111 "},"":{"x_min":-45.578125,"x_max":465.53125,"ha":418,"o":"m 18 1002 b 84 1070 58 1002 84 1031 b 21 1138 84 1109 58 1138 b -45 1070 -17 1138 -45 1107 b 16 1002 -45 1032 -19 1002 l 18 1002 m 398 1002 b 465 1070 439 1002 465 1031 b 401 1138 465 1109 439 1138 b 334 1070 362 1138 334 1107 b 397 1002 334 1032 361 1002 l 398 1002 m 79 1150 l 240 988 l 333 988 l 221 1150 l 79 1150 "},"Ẩ":{"x_min":34.71875,"x_max":818.0625,"ha":850,"o":"m 588 294 l 688 0 l 818 0 l 498 936 l 352 936 l 34 0 l 159 0 l 256 294 l 588 294 m 281 389 l 373 660 b 420 829 391 717 406 774 l 423 829 b 472 658 437 775 451 719 l 563 389 l 281 389 m 384 1145 l 255 986 l 350 986 l 426 1084 l 429 1084 l 506 986 l 604 986 l 472 1145 l 384 1145 m 637 1047 b 733 1192 673 1111 733 1125 b 623 1289 733 1248 686 1289 b 491 1200 555 1289 515 1249 l 536 1174 b 604 1225 551 1198 575 1225 b 651 1180 630 1225 651 1206 b 579 1064 651 1135 601 1121 l 637 1047 "},"₅":{"x_min":26.390625,"x_max":387.5,"ha":428,"o":"m 372 334 l 91 334 l 55 67 b 134 74 76 70 102 74 b 291 -34 247 74 291 29 b 169 -140 291 -101 231 -140 b 45 -109 116 -140 69 -123 l 26 -179 b 170 -212 54 -196 111 -212 b 387 -26 300 -212 387 -133 b 309 112 387 41 352 88 b 181 143 273 134 227 143 b 138 140 163 143 150 141 l 156 258 l 372 258 l 372 334 "},"ǻ":{"x_min":48.90625,"x_max":584.4375,"ha":669,"o":"m 412 1159 l 263 1011 l 349 1011 l 548 1159 l 412 1159 m 573 412 b 318 688 573 547 523 688 b 97 628 233 688 153 664 l 125 547 b 299 597 172 578 237 597 b 452 442 437 597 452 497 l 452 428 b 48 177 193 429 48 340 b 254 -15 48 80 118 -15 b 459 84 349 -15 421 31 l 463 84 l 473 0 l 584 0 b 573 161 576 45 573 102 l 573 412 m 455 226 b 448 187 455 214 452 200 b 286 75 428 130 373 75 b 170 191 223 75 170 112 b 455 343 170 322 322 346 l 455 226 m 334 722 b 473 850 413 722 473 777 b 335 981 473 924 419 981 b 194 849 248 981 194 923 b 334 722 194 778 251 722 m 333 774 b 265 849 292 774 265 813 b 333 928 265 892 290 928 b 405 852 377 928 405 893 b 333 774 405 810 377 774 "},"":{"x_min":26.390625,"x_max":280.5625,"ha":394,"o":"m 26 1007 l 26 931 l 186 931 l 186 -25 l 26 -25 l 26 -101 l 280 -101 l 280 1007 l 26 1007 "},"Ổ":{"x_min":50,"x_max":905.5625,"ha":957,"o":"m 484 952 b 50 459 234 952 50 757 b 470 -15 50 176 223 -15 b 905 478 709 -15 905 155 b 484 952 905 756 740 952 m 479 853 b 777 472 680 853 777 658 b 477 83 777 259 669 83 b 179 462 287 83 179 262 b 479 853 179 668 279 853 m 441 1145 l 312 986 l 406 986 l 483 1084 l 486 1084 l 563 986 l 661 986 l 529 1145 l 441 1145 m 694 1047 b 790 1192 730 1111 790 1125 b 680 1289 790 1248 743 1289 b 548 1200 612 1289 572 1249 l 593 1174 b 661 1225 608 1198 631 1225 b 708 1180 687 1225 708 1206 b 636 1064 708 1135 658 1121 l 694 1047 "},"Ừ":{"x_min":104.171875,"x_max":940.28125,"ha":940,"o":"m 823 1070 b 845 989 837 1045 845 1016 b 781 936 845 953 829 936 l 672 936 l 672 382 b 444 83 672 175 583 83 b 226 382 319 83 226 172 l 226 936 l 104 936 l 104 385 b 440 -15 104 94 248 -15 b 794 390 643 -15 794 102 l 794 863 l 815 864 b 940 982 898 867 940 914 b 916 1087 940 1021 930 1056 l 823 1070 m 254 1149 l 430 988 l 530 988 l 401 1149 l 254 1149 "},"Á":{"x_min":35,"x_max":818,"ha":850,"o":"m 588 294 l 688 0 l 818 0 l 498 936 l 352 936 l 35 0 l 159 0 l 257 294 l 588 294 m 282 389 l 373 660 b 420 829 391 717 407 774 l 423 829 b 472 658 437 775 451 720 l 563 389 l 282 389 m 483 1149 l 354 986 l 454 986 l 630 1149 l 483 1149 "},"ĥ":{"x_min":-22.21875,"x_max":673.609375,"ha":771,"o":"m 101 0 l 223 0 l 223 405 b 231 464 223 429 225 447 b 395 586 254 531 316 586 b 551 386 511 586 551 494 l 551 0 l 673 0 l 673 400 b 438 688 673 632 529 688 b 313 653 393 688 350 674 b 226 567 276 632 245 601 l 223 567 l 223 986 l 101 986 l 101 0 m 120 1171 l -22 1013 l 76 1013 l 165 1109 l 168 1109 l 256 1013 l 358 1013 l 213 1171 l 120 1171 "},"":{"x_min":37.5,"x_max":1097.21875,"ha":1136,"o":"m 255 838 b 37 556 136 838 37 736 b 248 283 38 373 136 283 b 465 568 365 283 465 378 b 256 838 465 740 381 838 l 255 838 m 252 764 b 368 562 337 764 368 672 b 251 357 368 443 333 357 b 134 560 176 357 133 446 b 251 764 134 674 176 764 l 252 764 m 362 -16 l 850 845 l 773 845 l 284 -16 l 362 -16 m 888 544 b 670 261 769 544 669 443 b 881 -9 670 80 769 -9 b 1097 275 997 -9 1097 84 b 890 544 1097 447 1015 544 l 888 544 m 884 471 b 1001 269 969 471 1001 379 b 884 63 1001 150 965 63 b 766 266 809 63 765 151 b 883 471 768 380 808 471 l 884 471 "},"":{"x_min":30.5625,"x_max":386.109375,"ha":417,"o":"m 386 1009 b 211 1155 380 1095 325 1155 b 30 1009 94 1155 37 1096 l 123 1007 b 208 1091 129 1049 144 1091 b 293 1007 273 1091 287 1046 l 386 1009 "},"Κ":{"x_min":105.5625,"x_max":766.671875,"ha":753,"o":"m 105 0 l 226 0 l 226 357 l 315 460 l 623 0 l 766 0 l 401 539 l 740 936 l 590 936 l 304 585 b 230 485 280 554 255 521 l 226 485 l 226 936 l 105 936 l 105 0 "},"»":{"x_min":32,"x_max":542,"ha":582,"o":"m 218 350 l 33 94 l 130 94 l 315 350 l 130 606 l 32 606 l 218 350 m 444 350 l 259 94 l 357 94 l 542 350 l 357 606 l 258 606 l 444 350 "},"":{"x_min":125.328125,"x_max":617,"ha":736,"o":"m 410 -112 l 410 1 b 617 193 543 20 617 105 b 414 387 617 283 553 343 b 262 503 294 428 262 453 b 396 587 262 554 321 587 b 557 546 462 587 525 565 l 590 629 b 418 674 555 649 493 671 l 418 789 l 339 789 l 339 670 b 140 494 221 656 140 586 b 353 303 140 400 210 351 b 492 186 451 269 492 241 b 344 87 492 125 425 87 b 158 137 278 87 198 109 l 125 52 b 330 -1 172 22 255 0 l 330 -112 l 410 -112 "},"∆":{"x_min":35.921875,"x_max":755.078125,"ha":790,"o":"m 755 0 l 755 69 l 464 911 l 328 911 l 35 68 l 35 0 l 755 0 m 625 100 l 158 100 l 328 601 b 388 802 351 667 376 753 l 392 802 b 460 582 409 742 438 650 l 625 100 "},"ỹ":{"x_min":12.5,"x_max":644.4375,"ha":654,"o":"m 230 788 b 266 850 233 827 244 850 b 326 825 283 850 298 842 b 411 797 355 810 381 797 b 506 938 476 797 508 845 l 441 938 b 402 878 438 891 425 878 b 344 902 386 878 366 889 b 258 932 312 920 288 932 b 163 788 198 932 161 878 l 230 788 m 12 672 l 261 52 b 269 20 266 37 269 27 b 259 -8 269 13 265 4 b 156 -144 231 -70 190 -118 b 50 -204 120 -175 80 -194 l 80 -307 b 230 -227 111 -301 170 -280 b 461 193 313 -155 373 -37 l 644 672 l 515 672 l 381 278 b 338 137 365 229 351 177 l 336 137 b 293 275 325 177 308 230 l 145 672 l 12 672 "},"ў":{"x_min":12.5,"x_max":644.4375,"ha":654,"o":"m 147 946 b 322 774 152 850 200 774 b 506 946 429 774 500 832 l 418 946 b 325 840 412 885 384 840 b 236 946 268 840 238 886 l 147 946 m 12 672 l 261 52 b 269 20 266 37 269 27 b 259 -8 269 13 265 4 b 156 -144 231 -70 190 -118 b 50 -204 120 -175 80 -194 l 80 -307 b 230 -227 111 -301 170 -280 b 461 193 313 -155 373 -37 l 644 672 l 515 672 l 381 278 b 338 137 365 229 351 177 l 336 137 b 293 275 325 177 308 230 l 145 672 l 12 672 "},"ţ":{"x_min":24.5625,"x_max":423.171875,"ha":460,"o":"m 128 796 l 128 672 l 24 672 l 24 579 l 128 579 l 128 212 b 175 37 128 133 141 73 b 307 -15 205 4 250 -15 b 416 2 355 -15 392 -6 l 410 94 b 339 86 392 88 373 86 b 248 216 271 86 248 133 l 248 579 l 423 579 l 423 672 l 248 672 l 248 834 l 128 796 m 169 -315 b 348 -165 255 -309 348 -268 b 292 -63 348 -120 320 -82 l 202 -83 b 249 -166 227 -102 249 -134 b 145 -258 249 -222 199 -250 l 169 -315 "},"«":{"x_min":40,"x_max":550,"ha":582,"o":"m 322 606 l 223 606 l 40 350 l 223 94 l 322 94 l 135 350 l 322 606 m 550 606 l 451 606 l 267 350 l 451 94 l 550 94 l 363 350 l 550 606 "},"ử":{"x_min":97.21875,"x_max":797.21875,"ha":765,"o":"m 679 807 b 702 727 693 782 702 753 b 637 672 702 692 686 672 l 541 672 l 541 259 b 530 197 541 237 537 215 b 369 86 508 143 451 86 b 219 300 258 86 219 172 l 219 672 l 97 672 l 97 279 b 329 -15 97 43 223 -15 b 551 109 448 -15 519 55 l 554 109 l 561 0 l 669 0 b 663 183 665 52 663 113 l 663 604 l 679 606 b 797 722 747 608 797 653 b 772 822 797 760 787 795 l 679 807 m 413 736 b 518 899 445 800 518 821 b 401 1003 518 960 466 1003 b 265 910 331 1003 290 960 l 312 882 b 380 931 329 907 350 931 b 426 884 405 931 426 913 b 348 753 426 832 365 814 l 413 736 "},"":{"x_min":49.953125,"x_max":818.015625,"ha":897,"o":"m 818 492 l 509 492 l 509 394 l 699 394 l 699 115 b 538 90 672 101 618 90 b 177 468 320 90 177 230 b 554 845 177 703 326 845 b 761 804 648 845 711 827 l 790 903 b 556 946 749 923 665 946 b 49 462 243 946 51 742 b 180 113 49 316 99 191 b 530 -9 272 26 388 -9 b 818 41 656 -9 763 22 l 818 492 m 404 993 b 440 1055 406 1031 418 1055 b 505 1028 459 1055 479 1042 b 590 1002 536 1013 561 1002 b 683 1137 654 1002 684 1049 l 619 1137 b 581 1082 615 1092 602 1082 b 515 1107 559 1082 537 1095 b 433 1135 486 1123 463 1135 b 338 993 372 1135 336 1078 l 404 993 "},"í":{"x_min":93.0625,"x_max":350,"ha":325,"o":"m 215 963 l 93 764 l 180 764 l 350 963 l 215 963 m 223 0 l 223 672 l 101 672 l 101 0 l 223 0 "},"ņ":{"x_min":95.828125,"x_max":673.609375,"ha":771,"o":"m 101 0 l 223 0 l 223 404 b 231 461 223 425 226 446 b 395 586 252 529 315 586 b 551 387 511 586 551 496 l 551 0 l 673 0 l 673 401 b 436 688 673 632 529 688 b 213 561 325 688 247 625 l 211 561 l 204 672 l 95 672 b 101 490 100 617 101 560 l 101 0 m 306 -307 b 486 -157 393 -301 486 -259 b 430 -55 486 -112 458 -73 l 340 -75 b 387 -158 365 -94 387 -126 b 283 -250 387 -214 337 -241 l 306 -307 "},"":{"x_min":49.984375,"x_max":662,"ha":713,"o":"m 202 234 b 167 456 179 293 167 368 b 356 824 169 678 242 824 b 481 753 412 824 453 797 l 202 234 m 514 668 b 544 456 534 608 544 536 b 353 79 544 225 480 79 b 234 147 305 79 265 103 l 514 668 m 657 901 l 595 942 l 539 850 b 363 918 494 896 434 918 b 49 449 180 918 48 753 b 129 113 49 304 79 190 l 63 10 l 124 -32 l 176 54 b 349 -14 224 7 284 -14 b 662 461 548 -14 662 154 b 588 792 662 600 637 713 l 657 901 "},"µ":{"x_min":101.390625,"x_max":730.5625,"ha":768,"o":"m 559 104 b 679 -15 570 18 619 -15 b 720 -9 698 -15 706 -13 l 730 79 b 666 185 681 82 666 111 l 666 673 l 545 673 l 545 260 b 534 197 545 237 541 215 b 373 85 512 143 454 85 b 222 275 266 85 222 171 l 222 673 l 101 673 l 101 -27 b 120 -274 101 -134 106 -233 l 230 -274 b 215 -21 216 -219 215 -95 l 215 61 b 362 -12 244 10 301 -12 b 555 104 462 -12 527 51 l 559 104 "},"ỳ":{"x_min":13,"x_max":645,"ha":654,"o":"m 150 963 l 319 764 l 406 764 l 285 963 l 150 963 m 13 672 l 261 52 b 269 20 267 37 269 27 b 260 -8 269 13 265 4 b 157 -144 232 -70 190 -118 b 50 -204 121 -175 81 -194 l 81 -307 b 231 -227 111 -301 171 -280 b 461 193 314 -155 374 -37 l 645 672 l 515 672 l 382 278 b 339 137 365 229 351 177 l 336 137 b 293 275 325 177 308 230 l 146 672 l 13 672 "},"Ι":{"x_min":105.5625,"x_max":226.390625,"ha":332,"o":"m 105 936 l 105 0 l 226 0 l 226 936 l 105 936 "},"Ύ":{"x_min":0,"x_max":975,"ha":982,"o":"m 177 846 b 487 430 300 818 430 682 b 506 241 498 373 506 311 l 506 0 l 627 0 l 627 240 b 652 432 627 312 638 376 b 975 846 716 673 870 807 l 952 945 b 740 815 891 935 805 885 b 577 475 673 742 601 625 l 572 475 b 427 818 554 622 498 739 b 200 945 363 893 265 940 l 177 846 m 9 936 l 0 721 l 72 721 l 120 936 l 9 936 "},"ѕ":{"x_min":53.734375,"x_max":494.015625,"ha":550,"o":"m 53 31 b 242 -15 100 4 169 -15 b 494 187 402 -15 494 69 b 317 390 494 287 434 346 b 189 504 230 423 189 448 b 302 596 189 554 230 596 b 439 557 364 596 413 574 l 470 646 b 305 688 432 668 373 688 b 73 490 160 688 73 599 b 250 300 73 410 130 343 b 375 176 341 266 375 234 b 245 76 375 120 334 76 b 84 125 184 76 120 101 l 53 31 "},"Ш":{"x_min":105.5625,"x_max":1072.21875,"ha":1176,"o":"m 105 936 l 105 0 l 1072 0 l 1072 936 l 951 936 l 951 101 l 648 101 l 648 936 l 529 936 l 529 101 l 225 101 l 225 936 l 105 936 "},"M":{"x_min":80.5625,"x_max":1036.109375,"ha":1117,"o":"m 918 0 l 1036 0 l 977 936 l 823 936 l 656 483 b 558 168 615 365 581 262 l 554 168 b 459 483 530 265 498 368 l 300 936 l 145 936 l 80 0 l 195 0 l 220 401 b 238 815 229 542 236 699 l 241 815 b 350 451 268 704 305 583 l 501 5 l 593 5 l 758 460 b 876 815 805 588 844 706 l 880 815 b 894 411 879 699 887 542 l 918 0 "},"Ψ":{"x_min":65.28125,"x_max":887.5,"ha":951,"o":"m 887 936 l 768 936 l 768 678 b 533 380 768 464 656 387 l 533 936 l 419 936 l 419 382 b 183 651 280 389 183 461 l 183 936 l 65 936 l 65 631 b 418 286 65 386 237 293 l 418 0 l 533 0 l 533 286 b 887 665 740 297 887 422 l 887 936 "},"ũ":{"x_min":97.21875,"x_max":669.453125,"ha":765,"o":"m 277 788 b 313 850 280 827 291 850 b 373 825 330 850 345 842 b 458 797 402 810 429 797 b 554 938 523 797 555 845 l 488 938 b 450 878 486 891 472 878 b 391 902 433 878 413 889 b 305 932 359 920 336 932 b 211 788 245 932 208 878 l 277 788 m 663 672 l 541 672 l 541 259 b 530 197 541 237 537 215 b 369 86 508 143 451 86 b 219 300 258 86 219 172 l 219 672 l 97 672 l 97 279 b 329 -15 97 43 223 -15 b 551 109 448 -15 519 55 l 554 109 l 561 0 l 669 0 b 663 183 665 52 663 113 l 663 672 "},"ŭ":{"x_min":97.21875,"x_max":669.453125,"ha":765,"o":"m 209 948 b 381 775 209 861 259 775 b 554 948 486 775 554 845 l 481 948 b 381 852 477 902 447 852 b 281 948 325 852 290 893 l 209 948 m 663 672 l 541 672 l 541 259 b 530 197 541 237 537 215 b 369 86 508 143 451 86 b 219 300 258 86 219 172 l 219 672 l 97 672 l 97 279 b 329 -15 97 43 223 -15 b 551 109 448 -15 519 55 l 554 109 l 561 0 l 669 0 b 663 183 665 52 663 113 l 663 672 "},"₍":{"x_min":55.5625,"x_max":233.328125,"ha":250,"o":"m 162 386 b 55 48 112 319 55 211 b 162 -284 55 -111 112 -218 l 233 -284 b 133 48 179 -204 133 -98 b 233 386 133 198 177 307 l 162 386 "},"":{"x_min":69.4375,"x_max":665.28125,"ha":736,"o":"m 123 -158 b 665 358 444 -148 665 47 b 370 692 665 571 534 692 b 69 396 201 692 69 564 b 329 129 69 229 188 129 b 527 223 423 129 500 176 l 530 222 b 115 -68 493 58 352 -58 l 123 -158 m 359 215 b 191 404 269 215 191 276 b 365 597 191 535 280 597 b 544 389 462 597 544 515 b 523 305 544 355 536 325 b 361 215 497 257 430 215 l 359 215 "},"{":{"x_min":38.890625,"x_max":359.71875,"ha":394,"o":"m 38 364 b 151 261 137 364 151 304 b 140 148 151 223 145 186 b 129 34 134 111 129 72 b 330 -155 129 -105 215 -155 l 359 -155 l 359 -79 l 334 -79 b 225 41 256 -77 225 -36 b 234 141 225 75 229 107 b 244 247 240 175 244 209 b 144 398 245 336 206 383 l 144 401 b 244 551 206 418 245 462 b 234 657 244 589 240 624 b 225 757 229 690 225 724 b 334 877 225 832 252 875 l 359 877 l 359 953 l 330 953 b 129 771 212 953 129 899 b 140 654 129 732 134 693 b 151 539 145 615 151 576 b 38 435 151 489 137 435 l 38 364 "},"¼":{"x_min":59.71875,"x_max":1005.5625,"ha":1054,"o":"m 275 369 l 275 911 l 190 911 l 59 850 l 75 778 l 175 827 l 177 827 l 177 369 l 275 369 m 270 -15 l 797 918 l 719 918 l 191 -15 l 270 -15 m 922 0 l 922 143 l 1005 143 l 1005 211 l 922 211 l 922 549 l 819 549 l 551 197 l 551 143 l 829 143 l 829 0 l 922 0 m 829 211 l 651 211 l 651 212 l 784 386 b 830 462 800 408 812 433 l 833 462 b 829 375 831 436 829 407 l 829 211 "},"ι":{"x_min":101.390625,"x_max":288.890625,"ha":328,"o":"m 223 672 l 101 672 l 101 150 b 226 -15 101 16 155 -15 b 281 -8 247 -15 268 -12 l 288 80 b 223 162 236 77 223 102 l 223 672 "},"":{"x_min":80.5625,"x_max":333.328125,"ha":417,"o":"m 234 985 b 333 1135 270 1049 333 1064 b 218 1235 333 1192 281 1235 b 80 1142 147 1235 105 1192 l 127 1114 b 195 1163 143 1138 166 1163 b 241 1120 223 1163 241 1146 b 169 1003 241 1074 191 1063 l 234 985 "},"Ĳ":{"x_min":105.5625,"x_max":750,"ha":846,"o":"m 105 936 l 105 0 l 226 0 l 226 936 l 105 936 m 629 319 b 456 87 629 136 565 87 b 355 105 416 87 380 95 l 337 6 b 466 -15 368 -5 422 -15 b 750 309 627 -15 750 61 l 750 936 l 629 936 l 629 319 "},"":{"x_min":50,"x_max":377.78125,"ha":438,"o":"m 286 604 l 286 686 b 377 710 325 689 359 700 l 362 775 b 269 757 341 767 312 757 b 143 892 200 757 143 804 b 270 1027 143 968 193 1027 b 356 1007 312 1027 338 1016 l 375 1075 b 286 1096 352 1087 320 1096 l 286 1175 l 222 1175 l 222 1093 b 50 886 113 1077 50 992 b 97 749 50 829 68 781 b 222 688 127 715 166 695 l 222 604 l 286 604 "},"Ê":{"x_min":106.09375,"x_max":632.484375,"ha":683,"o":"m 590 539 l 226 539 l 226 835 l 611 835 l 611 936 l 106 936 l 106 0 l 632 0 l 632 101 l 226 101 l 226 439 l 590 439 l 590 539 m 311 1145 l 168 986 l 267 986 l 356 1082 l 358 1082 l 447 986 l 549 986 l 404 1145 l 311 1145 "},"Ά":{"x_min":39,"x_max":822,"ha":854,"o":"m 592 294 l 692 0 l 822 0 l 502 936 l 356 936 l 39 0 l 163 0 l 261 294 l 592 294 m 286 389 l 377 660 b 424 829 395 717 411 774 l 427 829 b 476 658 441 775 455 720 l 567 389 l 286 389 m 97 936 l 86 721 l 158 721 l 206 936 l 97 936 "},")":{"x_min":27.78125,"x_max":304.171875,"ha":394,"o":"m 122 -168 b 304 398 211 -50 304 126 b 122 964 304 672 211 850 l 27 964 b 202 400 127 827 202 649 b 27 -168 202 150 126 -30 l 122 -168 "},"ε":{"x_min":54.171875,"x_max":583.328125,"ha":611,"o":"m 220 358 b 54 189 122 341 54 272 b 337 -15 54 37 202 -15 b 583 45 431 -15 531 11 l 561 129 b 363 77 520 105 437 77 b 181 200 265 77 181 120 b 393 314 181 280 272 314 l 477 314 l 477 401 l 397 401 b 209 497 291 401 209 430 b 365 597 209 558 272 597 b 533 556 433 597 505 574 l 559 636 b 355 688 511 670 443 688 b 87 505 176 688 87 594 b 220 364 87 439 131 383 l 220 358 "},"э":{"x_min":39.21875,"x_max":592,"ha":644,"o":"m 129 300 l 467 300 b 230 82 455 166 365 82 b 62 118 151 82 94 104 l 39 30 b 235 -15 93 2 162 -15 b 592 333 462 -15 592 137 b 500 592 592 443 557 532 b 255 688 440 654 353 688 b 48 635 185 688 107 668 l 75 556 b 236 593 111 572 165 593 b 468 383 386 593 457 499 l 129 383 l 129 300 "},"":{"x_min":26.390625,"x_max":386.109375,"ha":417,"o":"m 113 782 b 208 888 120 842 148 888 b 297 782 263 888 293 842 l 386 782 b 211 954 380 878 333 954 b 26 782 104 954 33 896 l 113 782 "},"ш":{"x_min":98.609375,"x_max":927.78125,"ha":1025,"o":"m 98 672 l 98 0 l 927 0 l 927 672 l 806 672 l 806 95 l 572 95 l 572 672 l 452 672 l 452 95 l 218 95 l 218 672 l 98 672 "},"Я":{"x_min":20.828125,"x_max":648.609375,"ha":754,"o":"m 150 0 b 180 68 163 25 170 44 b 304 360 213 157 240 294 b 438 405 337 393 380 405 l 527 405 l 527 0 l 648 0 l 648 924 b 425 943 587 936 504 943 b 156 871 306 943 215 918 b 70 681 104 828 70 763 b 277 450 70 553 162 469 l 277 446 b 200 398 250 437 222 421 b 58 84 123 322 98 191 b 20 0 47 54 34 25 l 150 0 m 527 499 b 425 497 504 497 465 497 b 193 675 293 497 193 562 b 413 850 193 804 294 850 b 527 838 468 850 506 843 l 527 499 "},"a":{"x_min":48.90625,"x_max":585.015625,"ha":669,"o":"m 573 412 b 318 688 573 547 523 688 b 97 628 233 688 153 664 l 125 547 b 300 597 172 578 237 597 b 453 442 437 597 453 497 l 453 428 b 48 177 193 429 48 340 b 254 -15 48 80 118 -15 b 460 84 350 -15 422 31 l 464 84 l 473 0 l 585 0 b 573 161 576 45 573 102 l 573 412 m 455 226 b 448 187 455 214 453 200 b 286 75 429 130 373 75 b 171 191 223 75 171 112 b 455 343 171 322 322 346 l 455 226 "},"Ę":{"x_min":105.5625,"x_max":638.890625,"ha":683,"o":"m 620 -191 b 559 -202 600 -200 580 -202 b 495 -147 522 -202 495 -183 b 611 -1 495 -95 552 -37 b 631 0 618 -1 626 0 l 631 101 l 226 101 l 226 439 l 590 439 l 590 539 l 226 539 l 226 835 l 611 835 l 611 936 l 105 936 l 105 0 l 511 0 b 400 -173 461 -33 400 -98 b 527 -286 400 -246 448 -286 b 638 -257 569 -286 606 -276 l 620 -191 "},"Z":{"x_min":41.671875,"x_max":725,"ha":768,"o":"m 41 0 l 725 0 l 725 101 l 201 101 l 201 105 l 718 863 l 718 936 l 86 936 l 86 835 l 561 835 l 561 831 l 41 70 l 41 0 "},"⁸":{"x_min":33.328125,"x_max":422.21875,"ha":456,"o":"m 231 1164 b 52 1018 130 1164 52 1105 b 138 897 52 970 80 925 l 138 895 b 33 756 73 867 33 822 b 225 608 33 679 100 608 b 422 768 340 608 422 672 b 313 904 422 835 376 881 l 313 907 b 401 1030 376 935 401 984 b 233 1164 401 1098 345 1164 l 231 1164 m 227 674 b 126 767 163 674 126 718 b 218 867 126 813 159 850 b 327 761 283 849 327 821 b 229 674 327 711 288 674 l 227 674 m 229 1100 b 313 1020 288 1100 313 1059 b 237 932 313 975 280 945 b 140 1023 177 948 140 974 b 227 1100 140 1064 170 1100 l 229 1100 "},"":{"x_min":-3,"x_max":444,"ha":417,"o":"m -3 952 l 158 756 l 235 756 l 123 952 l -3 952 m 206 952 l 367 756 l 444 756 l 332 952 l 206 952 "},"":{"x_min":37.5,"x_max":515.28125,"ha":417,"o":"m 166 1145 l 37 986 l 131 986 l 208 1084 l 211 1084 l 288 986 l 386 986 l 254 1145 l 166 1145 m 419 1047 b 515 1192 455 1111 515 1125 b 405 1289 515 1248 468 1289 b 273 1200 337 1289 297 1249 l 318 1174 b 386 1225 333 1198 356 1225 b 433 1180 412 1225 433 1206 b 361 1064 433 1135 383 1121 l 419 1047 "},"k":{"x_min":101.390625,"x_max":665.28125,"ha":651,"o":"m 222 986 l 101 986 l 101 0 l 222 0 l 222 252 l 284 322 l 516 0 l 665 0 l 369 396 l 629 672 l 481 672 l 284 440 b 225 364 265 417 241 387 l 222 364 l 222 986 "},"Ù":{"x_min":104.171875,"x_max":794.453125,"ha":899,"o":"m 104 936 l 104 385 b 440 -15 104 94 248 -15 b 794 390 643 -15 794 102 l 794 936 l 672 936 l 672 382 b 444 83 672 175 583 83 b 226 382 319 83 226 172 l 226 936 l 104 936 m 254 1149 l 430 988 l 530 988 l 401 1149 l 254 1149 "},"Ů":{"x_min":104.171875,"x_max":794.453125,"ha":899,"o":"m 104 936 l 104 385 b 440 -15 104 94 248 -15 b 794 390 643 -15 794 102 l 794 936 l 672 936 l 672 382 b 444 83 672 175 583 83 b 226 382 319 83 226 172 l 226 936 l 104 936 m 451 1213 b 311 1087 365 1213 311 1156 b 451 964 311 1018 366 964 b 588 1087 531 964 588 1017 b 452 1213 588 1157 536 1213 l 451 1213 m 448 1162 b 516 1088 490 1162 516 1128 b 448 1016 516 1048 490 1016 b 383 1087 409 1016 383 1050 b 447 1162 383 1127 406 1162 l 448 1162 "},"¢":{"x_min":93.0625,"x_max":612.5,"ha":713,"o":"m 458 -19 l 458 120 b 612 161 526 123 584 145 l 590 248 b 431 214 556 233 508 214 b 215 458 309 214 215 304 b 437 706 215 594 300 706 b 581 671 506 706 554 688 l 609 764 b 458 799 577 781 520 799 l 458 935 l 372 935 l 372 796 b 93 453 202 768 93 632 b 170 218 93 351 123 271 b 372 120 220 164 283 132 l 372 -19 l 458 -19 "},"":{"x_min":1.390625,"x_max":570.828125,"ha":572,"o":"m 1 903 l 1 802 l 443 802 l 443 799 l 51 0 l 177 0 l 570 822 l 570 903 l 1 903 "},"В":{"x_min":105.5625,"x_max":695.828125,"ha":753,"o":"m 105 2 b 293 -8 145 -2 209 -8 b 616 79 445 -8 551 19 b 695 266 663 125 695 186 b 502 501 695 405 591 479 l 502 504 b 661 710 601 540 661 619 b 583 875 661 784 631 839 b 326 943 525 923 447 943 b 105 924 241 943 158 935 l 105 2 m 226 842 b 333 850 245 846 277 850 b 538 697 455 850 538 807 b 336 540 538 607 463 540 l 226 540 l 226 842 m 226 448 l 326 448 b 568 268 458 448 568 396 b 327 86 568 132 452 86 b 226 91 284 86 250 87 l 226 448 "},"І":{"x_min":105.5625,"x_max":226.390625,"ha":332,"o":"m 105 936 l 105 0 l 226 0 l 226 936 l 105 936 "},"ē":{"x_min":52.953125,"x_max":646.015625,"ha":696,"o":"m 196 893 l 196 814 l 508 814 l 508 893 l 196 893 m 641 314 b 646 371 643 326 646 346 b 368 688 646 494 587 688 b 52 325 172 688 52 528 b 383 -15 52 122 176 -15 b 607 27 490 -15 564 8 l 586 115 b 400 80 540 95 487 80 b 169 314 277 80 172 148 l 641 314 m 171 401 b 358 600 180 486 234 600 b 527 401 496 600 529 479 l 171 401 "},"Ẹ":{"x_min":105.5625,"x_max":631.9375,"ha":683,"o":"m 590 539 l 226 539 l 226 835 l 611 835 l 611 936 l 105 936 l 105 0 l 631 0 l 631 101 l 226 101 l 226 439 l 590 439 l 590 539 m 341 -251 b 409 -180 380 -251 409 -216 b 343 -111 409 -144 380 -111 b 272 -180 302 -111 272 -144 b 340 -251 272 -216 302 -251 l 341 -251 "},"β":{"x_min":98.609375,"x_max":725,"ha":778,"o":"m 220 69 b 434 -15 272 15 341 -15 b 725 272 583 -15 725 86 b 519 537 725 426 625 515 l 519 543 b 643 760 583 575 643 654 b 400 1002 643 904 537 1002 b 202 928 311 1002 250 972 b 98 601 150 878 98 793 l 98 -39 b 119 -275 98 -136 102 -230 l 233 -275 b 218 -23 219 -218 218 -103 l 218 69 l 220 69 m 216 615 b 388 904 216 807 276 904 b 530 742 470 904 530 840 b 372 564 530 653 477 571 b 348 561 363 562 356 561 l 348 478 b 386 478 361 478 373 479 b 602 272 508 473 602 405 b 412 79 602 161 523 79 b 216 190 316 79 248 138 l 216 615 "},"":{"x_min":0.0625,"x_max":157,"ha":182,"o":"m 66 276 b 157 493 97 326 134 417 l 54 486 b 0 271 44 418 22 330 l 66 276 "},"":{"x_min":21.78125,"x_max":455.109375,"ha":482,"o":"m 377 369 l 377 513 l 455 513 l 455 581 l 377 581 l 377 912 l 267 912 l 21 568 l 21 513 l 284 513 l 284 369 l 377 369 m 284 581 l 119 581 l 117 583 l 238 747 b 285 830 255 773 269 798 l 288 828 b 284 742 287 802 284 773 l 284 581 "},"≠":{"x_min":56.03125,"x_max":772.96875,"ha":828,"o":"m 772 194 l 772 278 l 396 278 l 518 469 l 772 469 l 772 553 l 571 553 l 681 722 l 590 722 l 485 553 l 56 553 l 56 469 l 432 469 l 308 278 l 56 278 l 56 194 l 256 194 l 146 25 l 236 25 l 342 194 l 772 194 "},"¥":{"x_min":22.21875,"x_max":690.28125,"ha":713,"o":"m 405 0 l 405 243 l 622 243 l 622 312 l 405 312 l 405 412 l 622 412 l 622 482 l 441 482 l 690 903 l 562 903 l 412 619 b 356 490 388 572 370 529 l 352 490 b 297 617 336 532 319 569 l 152 903 l 22 903 l 255 482 l 75 482 l 75 412 l 290 412 l 290 312 l 75 312 l 75 243 l 290 243 l 290 0 l 405 0 "},"Ĥ":{"x_min":105.5625,"x_max":801.390625,"ha":906,"o":"m 105 936 l 105 0 l 226 0 l 226 439 l 679 439 l 679 0 l 801 0 l 801 936 l 679 936 l 679 544 l 226 544 l 226 936 l 105 936 m 406 1145 l 263 986 l 362 986 l 451 1082 l 454 1082 l 543 986 l 644 986 l 500 1145 l 406 1145 "},"U":{"x_min":104.171875,"x_max":794.453125,"ha":899,"o":"m 104 936 l 104 385 b 440 -15 104 94 248 -15 b 794 390 643 -15 794 102 l 794 936 l 672 936 l 672 382 b 444 83 672 175 583 83 b 226 382 319 83 226 172 l 226 936 l 104 936 "},"Ñ":{"x_min":105.125,"x_max":807.90625,"ha":914,"o":"m 219 0 l 219 399 b 209 786 219 555 216 668 l 213 788 b 388 475 260 686 323 579 l 685 0 l 807 0 l 807 936 l 694 936 l 694 544 b 707 159 694 398 696 284 l 705 158 b 537 462 660 253 606 352 l 237 936 l 105 936 l 105 0 l 219 0 m 356 993 b 392 1054 359 1031 370 1054 b 457 1028 412 1054 431 1042 b 542 1002 488 1013 513 1002 b 635 1136 606 1002 637 1049 l 571 1136 b 534 1082 567 1092 555 1082 b 467 1107 512 1082 489 1095 b 385 1135 438 1123 416 1135 b 291 993 324 1135 288 1078 l 356 993 "},"F":{"x_min":105.5625,"x_max":609.71875,"ha":676,"o":"m 105 0 l 226 0 l 226 423 l 580 423 l 580 524 l 226 524 l 226 835 l 609 835 l 609 936 l 105 936 l 105 0 "},"ả":{"x_min":48.90625,"x_max":585.015625,"ha":669,"o":"m 573 412 b 318 688 573 547 523 688 b 97 628 233 688 153 664 l 125 547 b 300 597 172 578 237 597 b 453 442 437 597 453 497 l 453 428 b 48 177 193 429 48 340 b 254 -15 48 80 118 -15 b 460 84 350 -15 422 31 l 464 84 l 473 0 l 585 0 b 573 161 576 45 573 102 l 573 412 m 455 226 b 448 187 455 214 453 200 b 286 75 429 130 373 75 b 171 191 223 75 171 112 b 455 343 171 322 322 346 l 455 226 m 354 736 b 458 899 386 800 458 821 b 341 1003 458 960 407 1003 b 205 910 272 1003 230 960 l 253 882 b 321 931 269 907 290 931 b 366 884 346 931 366 913 b 289 753 366 832 305 814 l 354 736 "},"":{"x_min":140.28125,"x_max":418.0625,"ha":556,"o":"m 280 1219 b 140 1092 194 1219 140 1162 b 280 970 140 1024 195 970 b 418 1092 361 970 418 1023 b 281 1219 418 1163 365 1219 l 280 1219 m 277 1167 b 345 1093 319 1167 345 1134 b 277 1021 345 1053 319 1021 b 212 1092 238 1021 212 1056 b 276 1167 212 1132 236 1167 l 277 1167 "},"Ќ":{"x_min":105.5625,"x_max":740.28125,"ha":753,"o":"m 105 936 l 105 0 l 225 0 l 225 429 l 263 429 b 525 221 422 429 481 344 b 609 0 550 147 576 63 l 740 0 b 637 265 698 83 672 169 b 375 507 588 392 529 486 l 729 936 l 583 936 l 262 521 l 225 521 l 225 936 l 105 936 m 441 1142 l 312 979 l 412 979 l 588 1142 l 441 1142 "},"∕":{"x_min":-217.5625,"x_max":388,"ha":168,"o":"m -139 -15 l 388 918 l 308 918 l -217 -15 l -139 -15 "},"ờ":{"x_min":53.0625,"x_max":769.734375,"ha":768,"o":"m 383 596 b 585 337 528 596 585 451 b 380 76 585 186 497 76 b 176 335 261 76 176 187 b 383 596 176 462 239 596 m 653 770 b 675 688 665 746 675 718 b 619 632 675 651 655 632 b 501 668 576 632 535 658 b 386 688 464 681 428 688 b 53 330 200 688 53 556 b 375 -15 53 118 193 -15 b 710 341 537 -15 710 93 b 640 564 710 432 685 508 b 769 685 725 560 769 610 b 746 786 769 724 760 757 l 653 770 m 203 963 l 372 764 l 458 764 l 337 963 l 203 963 "},"å":{"x_min":48.90625,"x_max":585.015625,"ha":669,"o":"m 333 746 b 472 874 412 746 472 800 b 335 1005 472 948 418 1005 b 193 872 247 1005 193 946 b 333 746 193 802 250 746 m 332 797 b 264 872 291 797 264 836 b 332 952 264 916 289 952 b 404 875 376 952 404 917 b 332 797 404 834 376 797 m 573 412 b 318 688 573 547 523 688 b 97 628 233 688 153 664 l 125 547 b 300 597 172 578 237 597 b 453 442 437 597 453 497 l 453 428 b 48 177 193 429 48 340 b 254 -15 48 80 118 -15 b 460 84 350 -15 422 31 l 464 84 l 473 0 l 585 0 b 573 161 576 45 573 102 l 573 412 m 455 226 b 448 187 455 214 453 200 b 286 75 429 130 373 75 b 171 191 223 75 171 112 b 455 343 171 322 322 346 l 455 226 "},"Ϋ":{"x_min":13.890625,"x_max":811.109375,"ha":817,"o":"m 286 968 b 352 1038 326 968 352 1000 b 287 1107 352 1077 325 1107 b 218 1038 248 1107 218 1077 b 284 968 218 1000 245 968 l 286 968 m 541 968 b 608 1038 581 968 608 1000 b 541 1107 608 1077 580 1107 b 473 1038 502 1107 473 1077 b 540 968 473 1000 501 968 l 541 968 m 13 846 b 323 430 137 818 268 682 b 343 241 336 373 343 311 l 343 0 l 463 0 l 463 240 b 490 432 463 312 476 376 b 811 846 554 673 708 807 l 790 945 b 576 815 727 935 641 885 b 413 475 509 742 437 625 l 408 475 b 263 818 391 622 334 739 b 36 945 200 893 101 940 l 13 846 "},"0":{"x_min":50,"x_max":662.5,"ha":713,"o":"m 363 918 b 50 448 180 918 50 752 b 348 -15 52 150 172 -15 b 662 461 548 -15 662 154 b 363 918 662 749 554 918 m 356 824 b 540 455 483 824 540 678 b 355 79 540 225 480 79 b 172 447 244 79 172 212 b 356 824 172 693 250 824 "},"ō":{"x_min":52.78125,"x_max":709.71875,"ha":763,"o":"m 225 893 l 225 814 l 537 814 l 537 893 l 225 893 m 386 688 b 52 330 200 688 52 556 b 375 -15 52 118 193 -15 b 709 341 537 -15 709 93 b 386 688 709 547 579 688 m 383 596 b 584 337 527 596 584 451 b 380 76 584 186 497 76 b 176 335 261 76 176 187 b 383 596 176 462 238 596 "},"”":{"x_min":47,"x_max":459.75,"ha":492,"o":"m 129 948 b 47 624 113 849 76 704 l 124 632 b 254 961 162 696 222 846 l 129 948 m 334 948 b 252 624 319 849 283 704 l 330 632 b 459 961 368 696 427 846 l 334 948 "},"ö":{"x_min":52.78125,"x_max":709.71875,"ha":763,"o":"m 252 793 b 320 864 293 793 320 827 b 252 935 320 904 291 935 b 181 864 213 935 181 903 b 251 793 181 827 211 793 l 252 793 m 509 793 b 577 864 550 793 577 827 b 509 935 577 904 548 935 b 440 864 470 935 440 903 b 508 793 440 827 468 793 l 509 793 m 386 689 b 52 332 200 689 52 557 b 375 -13 52 119 193 -13 b 709 343 537 -13 709 94 b 386 689 709 549 579 689 m 383 597 b 584 339 527 597 584 453 b 380 77 584 187 497 77 b 176 336 261 77 176 189 b 383 597 176 464 238 597 "},"":{"x_min":40,"x_max":322,"ha":354,"o":"m 322 710 l 223 710 l 40 454 l 223 198 l 322 198 l 135 454 l 322 710 "},"ć":{"x_min":52.78125,"x_max":583.328125,"ha":622,"o":"m 419 963 l 297 764 l 384 764 l 554 963 l 419 963 m 559 116 b 409 83 525 101 479 83 b 176 335 276 83 176 179 b 413 589 176 475 259 589 b 555 557 480 589 526 574 l 583 651 b 413 686 550 668 486 686 b 52 329 194 686 52 536 b 387 -15 52 123 184 -15 b 580 25 477 -15 548 8 l 559 116 "},"þ":{"x_min":101.390625,"x_max":737.5,"ha":790,"o":"m 101 929 l 101 -275 l 222 -275 l 222 90 l 225 90 b 431 -15 268 23 343 -15 b 737 344 584 -15 737 98 b 454 688 737 553 612 689 b 225 565 344 688 270 639 l 222 565 l 222 929 l 101 929 m 222 389 b 236 457 222 411 229 437 b 416 590 265 539 338 590 b 615 343 541 590 615 476 b 413 80 615 182 534 80 b 236 204 333 80 262 127 b 222 265 227 222 222 246 l 222 389 "},"]":{"x_min":26.390625,"x_max":280.5625,"ha":394,"o":"m 26 953 l 26 877 l 186 877 l 186 -79 l 26 -79 l 26 -155 l 280 -155 l 280 953 l 26 953 "},"А":{"x_min":35,"x_max":818,"ha":850,"o":"m 588 294 l 688 0 l 818 0 l 498 936 l 352 936 l 35 0 l 159 0 l 257 294 l 588 294 m 282 389 l 373 660 b 420 829 391 717 407 774 l 423 829 b 472 658 437 775 451 720 l 563 389 l 282 389 "},"Ы":{"x_min":105.5625,"x_max":925,"ha":1036,"o":"m 105 936 l 105 2 b 293 -8 145 -2 209 -8 b 626 101 419 -8 550 20 b 698 300 670 150 698 214 b 337 593 698 508 530 593 b 226 586 306 593 254 590 l 226 936 l 105 936 m 226 490 b 322 497 241 493 277 497 b 572 296 447 497 572 442 b 323 86 572 154 456 86 b 226 93 281 86 251 87 l 226 490 m 802 936 l 802 0 l 925 0 l 925 936 l 802 936 "},"ẁ":{"x_min":25,"x_max":1001,"ha":1022,"o":"m 329 963 l 498 764 l 584 764 l 463 963 l 329 963 m 25 672 l 227 0 l 338 0 l 447 319 b 508 542 470 392 491 461 l 510 542 b 570 321 527 462 547 396 l 673 0 l 784 0 l 1001 672 l 880 672 l 784 335 b 733 116 762 255 744 184 l 728 116 b 669 336 713 184 694 255 l 565 672 l 462 672 l 352 330 b 292 116 330 257 308 184 l 288 116 b 238 330 276 186 258 255 l 149 672 l 25 672 "},"ệ":{"x_min":52.953125,"x_max":646.015625,"ha":696,"o":"m 641 314 b 646 371 643 326 646 346 b 368 688 646 494 587 688 b 52 325 172 688 52 528 b 383 -15 52 122 176 -15 b 607 27 490 -15 564 8 l 586 115 b 400 80 540 95 487 80 b 169 314 277 80 172 148 l 641 314 m 171 401 b 358 600 180 486 234 600 b 527 401 496 600 529 479 l 171 401 m 304 963 l 173 764 l 264 764 l 344 896 l 347 896 l 427 764 l 522 764 l 389 963 l 304 963 m 348 -111 b 276 -182 308 -111 276 -143 b 346 -254 276 -221 307 -254 b 416 -182 387 -254 416 -221 b 348 -111 416 -143 386 -111 "},"ĭ":{"x_min":-5.5625,"x_max":338.890625,"ha":325,"o":"m -5 948 b 166 775 -5 861 44 775 b 338 948 270 775 338 845 l 266 948 b 166 852 262 902 231 852 b 66 948 109 852 75 893 l -5 948 m 223 0 l 223 672 l 101 672 l 101 0 l 223 0 "},"8":{"x_min":51.390625,"x_max":661.109375,"ha":713,"o":"m 230 471 b 51 229 119 423 51 343 b 354 -15 51 97 165 -15 b 661 247 526 -15 661 90 b 479 480 661 357 591 436 l 479 485 b 627 696 590 537 627 619 b 365 918 627 809 540 918 b 86 678 206 918 86 821 b 229 475 86 600 129 522 l 230 471 m 356 73 b 176 246 241 73 172 154 b 338 432 176 332 233 401 b 537 234 461 397 537 344 b 356 73 537 143 466 73 m 358 831 b 511 683 468 831 511 756 b 373 519 511 601 451 546 b 201 686 269 547 201 596 b 358 831 201 764 256 831 "},"Ữ":{"x_min":104.171875,"x_max":940.28125,"ha":940,"o":"m 823 1070 b 845 989 837 1045 845 1016 b 781 936 845 953 829 936 l 672 936 l 672 382 b 444 83 672 175 583 83 b 226 382 319 83 226 172 l 226 936 l 104 936 l 104 385 b 440 -15 104 94 248 -15 b 794 390 643 -15 794 102 l 794 863 l 815 864 b 940 982 898 867 940 914 b 916 1087 940 1021 930 1056 l 823 1070 m 362 993 b 398 1055 365 1031 376 1055 b 463 1028 418 1055 437 1042 b 548 1002 494 1013 519 1002 b 641 1137 612 1002 643 1049 l 577 1137 b 540 1082 573 1092 561 1082 b 473 1107 518 1082 495 1095 b 391 1135 444 1123 422 1135 b 297 993 330 1135 294 1078 l 362 993 "},"R":{"x_min":105.5625,"x_max":715.28125,"ha":747,"o":"m 105 0 l 226 0 l 226 405 l 340 405 b 527 223 450 401 500 353 b 590 0 554 107 575 27 l 715 0 b 643 257 695 36 673 126 b 505 446 620 354 577 421 l 505 450 b 681 689 604 483 681 565 b 608 867 681 761 655 825 b 337 943 550 920 466 943 b 105 924 254 943 166 936 l 105 0 m 226 839 b 345 850 245 845 287 850 b 561 675 473 849 561 796 b 350 497 561 568 479 497 l 226 497 l 226 839 "},"":{"x_min":23.609375,"x_max":550,"ha":601,"o":"m 23 -132 b 200 -159 55 -144 127 -159 b 550 105 387 -159 550 -54 b 345 307 550 223 455 291 l 345 309 b 509 503 440 337 509 408 b 268 689 509 618 409 689 b 45 626 176 689 88 656 l 70 546 b 241 593 104 564 170 593 b 387 482 331 593 387 557 b 161 335 387 396 290 344 l 134 333 l 137 243 b 213 246 154 244 181 246 b 425 104 341 246 425 191 b 190 -63 425 2 327 -63 b 38 -40 131 -63 73 -52 l 23 -132 "},"":{"x_min":50,"x_max":377.78125,"ha":438,"o":"m 286 -11 l 286 70 b 377 94 325 73 359 84 l 362 159 b 269 141 341 151 312 141 b 143 276 200 141 143 189 b 270 411 143 353 193 411 b 356 392 312 411 338 400 l 375 460 b 286 480 352 471 320 480 l 286 560 l 222 560 l 222 478 b 50 271 113 461 50 376 b 97 133 50 214 68 165 b 222 72 127 100 166 79 l 222 -11 l 286 -11 "},"Ż":{"x_min":41.671875,"x_max":725,"ha":768,"o":"m 41 0 l 725 0 l 725 101 l 201 101 l 201 105 l 718 863 l 718 936 l 86 936 l 86 835 l 561 835 l 561 831 l 41 70 l 41 0 m 390 1000 b 458 1071 429 1000 458 1035 b 391 1141 458 1107 429 1141 b 320 1071 351 1141 320 1107 b 388 1000 320 1035 351 1000 l 390 1000 "},"ħ":{"x_min":-5.5625,"x_max":673.609375,"ha":771,"o":"m 673 0 l 673 400 b 438 688 673 632 529 688 b 313 653 393 688 350 674 b 226 567 276 632 245 601 l 223 567 l 223 767 l 491 767 l 491 843 l 223 843 l 223 986 l 101 986 l 101 843 l -5 843 l -5 767 l 101 767 l 101 0 l 223 0 l 223 405 b 231 464 223 429 225 447 b 395 586 254 531 316 586 b 551 386 511 586 551 494 l 551 0 l 673 0 "},"õ":{"x_min":52.78125,"x_max":709.71875,"ha":763,"o":"m 276 788 b 312 850 279 827 290 850 b 372 825 329 850 344 842 b 456 797 401 810 427 797 b 552 938 522 797 554 845 l 487 938 b 448 878 484 891 470 878 b 390 902 431 878 412 889 b 304 932 358 920 334 932 b 209 788 244 932 206 878 l 276 788 m 386 688 b 52 330 200 688 52 556 b 375 -15 52 118 193 -15 b 709 341 537 -15 709 93 b 386 688 709 547 579 688 m 383 596 b 584 337 527 596 584 451 b 380 76 584 186 497 76 b 176 335 261 76 176 187 b 383 596 176 462 238 596 "},"":{"x_min":55.5625,"x_max":680.5625,"ha":736,"o":"m 368 -15 b 680 337 541 -15 680 116 b 368 689 680 561 540 689 b 55 337 195 689 55 556 b 366 -15 55 112 195 -15 l 368 -15 m 368 77 b 173 337 245 77 173 187 b 368 596 173 486 245 596 b 562 337 490 596 562 486 b 369 77 562 187 491 77 l 368 77 "},"ẫ":{"x_min":48.90625,"x_max":584.140625,"ha":669,"o":"m 573 412 b 317 688 573 547 523 688 b 97 628 233 688 152 664 l 125 547 b 299 597 172 578 237 597 b 452 442 437 597 452 497 l 452 428 b 48 177 193 429 48 340 b 254 -15 48 80 118 -15 b 459 84 349 -15 421 31 l 463 84 l 473 0 l 584 0 b 573 161 575 45 573 102 l 573 412 m 455 226 b 448 187 455 214 452 200 b 286 75 428 130 373 75 b 171 191 223 75 171 112 b 455 343 171 322 322 346 l 455 226 m 288 928 l 165 764 l 258 764 l 331 866 l 334 866 l 409 764 l 504 764 l 377 928 l 288 928 m 234 945 b 269 999 236 977 248 999 b 330 975 287 999 302 991 b 414 946 359 960 384 946 b 509 1080 480 946 510 993 l 444 1080 b 406 1024 441 1035 427 1024 b 347 1046 388 1024 369 1034 b 261 1077 315 1063 291 1077 b 166 945 202 1077 165 1024 l 234 945 "},"˙":{"x_min":123.609375,"x_max":262.5,"ha":417,"o":"m 194 792 b 262 863 234 792 262 825 b 194 935 262 903 233 935 b 123 863 154 935 123 903 b 193 792 123 825 152 792 l 194 792 "},"ê":{"x_min":53,"x_max":646.015625,"ha":696,"o":"m 322 963 l 191 764 l 282 764 l 362 896 l 365 896 l 446 764 l 540 764 l 407 963 l 322 963 m 641 314 b 646 371 643 326 646 346 b 368 688 646 494 587 688 b 53 325 172 688 53 528 b 383 -15 53 122 176 -15 b 607 27 490 -15 564 8 l 586 115 b 400 80 540 95 487 80 b 169 314 278 80 172 148 l 641 314 m 171 401 b 358 600 180 486 234 600 b 528 401 496 600 529 479 l 171 401 "},"":{"x_min":46,"x_max":541.9375,"ha":417,"o":"m 162 963 l 46 764 l 134 764 l 205 895 l 208 895 l 279 764 l 372 764 l 253 963 l 162 963 m 429 1077 l 333 893 l 404 893 l 541 1077 l 429 1077 "},"„":{"x_min":28.0625,"x_max":442,"ha":494,"o":"m 105 -154 b 235 175 143 -90 204 58 l 110 161 b 28 -164 94 62 58 -82 l 105 -154 m 311 -154 b 442 175 350 -90 410 58 l 315 161 b 233 -164 300 62 264 -82 l 311 -154 "},"ч":{"x_min":90.28125,"x_max":616.671875,"ha":715,"o":"m 90 672 l 90 430 b 311 212 90 278 183 212 b 493 264 375 212 447 233 l 495 264 l 495 -8 l 616 -8 l 616 672 l 495 672 l 495 348 b 351 303 458 322 404 303 b 212 446 244 303 212 361 l 212 672 l 90 672 "},"δ":{"x_min":52.328125,"x_max":705.09375,"ha":758,"o":"m 646 935 b 424 1002 606 967 521 1002 b 191 845 267 1002 191 920 b 275 706 191 781 243 732 l 307 681 l 307 674 b 52 322 170 608 52 494 b 378 -15 52 107 205 -15 b 705 328 559 -15 705 119 b 527 643 705 461 638 558 l 413 735 b 313 847 350 785 313 811 b 427 910 313 881 350 910 b 610 854 503 910 581 875 l 646 935 m 452 558 b 582 319 538 492 582 414 b 385 76 582 166 492 76 b 175 323 280 76 175 166 b 378 617 175 471 273 561 l 452 558 "},"Â":{"x_min":35,"x_max":818,"ha":850,"o":"m 588 294 l 688 0 l 818 0 l 498 936 l 352 936 l 35 0 l 159 0 l 257 294 l 588 294 m 282 389 l 373 660 b 420 829 391 717 407 774 l 423 829 b 472 658 437 775 451 720 l 563 389 l 282 389 m 384 1145 l 241 986 l 340 986 l 429 1082 l 432 1082 l 520 986 l 622 986 l 477 1145 l 384 1145 "},"Į":{"x_min":38.890625,"x_max":280.5625,"ha":332,"o":"m 226 936 l 105 936 l 105 0 b 38 -170 80 -37 38 -102 b 168 -290 38 -248 91 -290 b 280 -258 202 -290 251 -280 l 261 -196 b 198 -208 245 -202 225 -208 b 127 -136 158 -208 127 -183 b 184 0 127 -86 163 -29 l 226 0 l 226 936 "},"ω":{"x_min":52.78125,"x_max":911.109375,"ha":964,"o":"m 538 504 l 423 504 l 426 239 b 315 86 426 154 377 86 b 172 346 251 86 172 158 b 283 678 172 489 220 610 l 283 681 l 170 681 b 52 343 111 622 52 494 b 298 -15 52 87 181 -15 b 476 104 380 -15 444 30 l 481 104 b 656 -15 509 30 575 -15 b 911 354 784 -15 911 104 b 795 681 911 508 855 631 l 680 681 l 680 678 b 791 357 744 615 791 489 b 651 86 791 176 720 86 b 536 240 584 86 536 152 l 538 504 "},"Ţ":{"x_min":-1.71875,"x_max":691.328125,"ha":690,"o":"m 283 0 l 405 0 l 405 834 l 691 834 l 691 936 l -1 936 l -1 834 l 283 834 l 283 0 m 249 -308 b 428 -158 335 -303 428 -261 b 373 -57 428 -112 401 -75 l 283 -76 b 330 -159 308 -95 330 -127 b 226 -251 330 -215 280 -241 l 249 -308 "},"₎":{"x_min":18.0625,"x_max":195.828125,"ha":250,"o":"m 88 -284 b 195 51 138 -216 195 -109 b 88 386 195 212 138 319 l 18 386 b 118 51 72 305 118 198 b 18 -284 118 -97 72 -204 l 88 -284 "},"₄":{"x_min":21.78125,"x_max":455.109375,"ha":482,"o":"m 377 -204 l 377 -60 l 455 -60 l 455 7 l 377 7 l 377 338 l 267 338 l 21 -5 l 21 -60 l 284 -60 l 284 -204 l 377 -204 m 284 7 l 119 7 l 117 9 l 238 173 b 285 256 255 199 269 224 l 288 254 b 284 168 287 228 284 199 l 284 7 "},"´":{"x_min":140,"x_max":396.9375,"ha":417,"o":"m 262 963 l 140 764 l 227 764 l 396 963 l 262 963 "},"ỏ":{"x_min":52.78125,"x_max":709.71875,"ha":763,"o":"m 386 688 b 52 330 200 688 52 556 b 375 -15 52 118 193 -15 b 709 341 537 -15 709 93 b 386 688 709 547 579 688 m 383 596 b 584 337 527 596 584 451 b 380 76 584 186 497 76 b 176 335 261 76 176 187 b 383 596 176 462 238 596 m 400 736 b 504 899 431 800 504 821 b 387 1003 504 960 452 1003 b 251 910 318 1003 276 960 l 298 882 b 366 931 315 907 336 931 b 412 884 391 931 412 913 b 334 753 412 832 351 814 l 400 736 "},"Ĉ":{"x_min":50,"x_max":761.109375,"ha":806,"o":"m 734 126 b 537 87 686 102 611 87 b 177 464 309 87 177 234 b 543 850 177 710 323 850 b 731 811 620 850 686 834 l 761 910 b 538 952 729 927 655 952 b 50 460 248 952 50 753 b 512 -15 50 152 248 -15 b 759 30 626 -15 715 8 l 734 126 m 436 1150 l 293 992 l 391 992 l 480 1088 l 483 1088 l 572 992 l 673 992 l 529 1150 l 436 1150 "},"":{"x_min":112.5,"x_max":579.171875,"ha":736,"o":"m 559 179 b 418 151 530 166 483 151 b 229 344 313 151 229 218 b 423 540 229 461 306 540 b 554 515 480 540 526 531 l 576 599 b 440 626 548 611 495 626 l 440 718 l 363 718 l 363 624 b 112 339 213 601 112 489 b 363 65 112 180 213 82 l 363 -36 l 440 -36 l 440 63 b 579 97 501 66 555 84 l 559 179 "},"И":{"x_min":105.5625,"x_max":808.328125,"ha":914,"o":"m 105 936 l 105 0 l 234 0 l 527 465 b 701 781 591 569 655 678 l 705 779 b 694 399 695 661 694 550 l 694 0 l 808 0 l 808 936 l 687 936 l 384 454 b 211 145 316 343 258 242 l 208 146 b 219 542 216 271 219 394 l 219 936 l 105 936 "},"Љ":{"x_min":-8.328125,"x_max":1169.453125,"ha":1224,"o":"m 173 936 l 173 542 b 91 137 173 392 166 209 b -8 86 69 115 30 93 l 9 -11 b 150 33 59 -11 116 11 b 290 551 280 122 290 348 l 290 835 l 575 835 l 575 2 b 762 -8 615 -2 677 -8 b 1091 95 891 -8 1013 20 b 1169 298 1138 144 1169 211 b 809 590 1169 505 997 590 b 695 583 779 590 725 588 l 695 936 l 173 936 m 695 490 b 793 496 726 493 763 496 b 1043 296 923 496 1043 442 b 793 86 1043 154 927 86 b 695 91 754 86 725 87 l 695 490 "},"Ờ":{"x_min":50.265625,"x_max":943.34375,"ha":957,"o":"m 478 83 b 179 462 286 83 178 265 b 479 853 178 665 278 853 b 778 472 680 853 778 658 b 478 83 778 259 669 83 m 823 1028 b 846 939 836 1003 846 973 b 783 878 846 899 829 878 b 629 928 739 878 672 914 b 485 952 593 941 540 952 b 50 460 235 952 50 757 b 471 -15 50 176 223 -15 b 905 478 710 -15 905 155 b 797 809 905 624 860 736 b 943 932 897 799 943 856 b 918 1046 943 979 932 1016 l 823 1028 m 286 1149 l 462 988 l 562 988 l 433 1149 l 286 1149 "},"р":{"x_min":95.828125,"x_max":737.5,"ha":790,"o":"m 101 -275 l 222 -275 l 222 90 l 225 90 b 431 -15 265 23 343 -15 b 737 346 590 -15 737 104 b 452 688 737 550 615 688 b 213 557 343 688 263 639 l 211 557 l 205 672 l 95 672 b 101 453 98 608 101 539 l 101 -275 m 222 389 b 230 439 222 405 226 423 b 415 590 254 531 331 590 b 615 340 544 590 615 475 b 411 80 615 186 540 80 b 227 223 323 80 250 139 b 222 273 225 239 222 255 l 222 389 "},"Ω":{"x_min":41.671875,"x_max":937.5,"ha":979,"o":"m 733 101 b 918 508 826 179 918 316 b 495 952 918 756 755 952 b 59 497 247 952 59 764 b 243 101 59 316 150 177 l 243 95 l 41 95 l 41 0 l 394 0 l 394 76 b 186 487 283 145 186 312 b 493 853 186 671 295 853 b 793 489 691 853 793 660 b 586 76 793 301 697 152 l 586 0 l 937 0 l 937 95 l 733 95 l 733 101 "},"":{"x_min":113.890625,"x_max":368.0625,"ha":394,"o":"m 368 -101 l 368 -25 l 208 -25 l 208 931 l 368 931 l 368 1007 l 113 1007 l 113 -101 l 368 -101 "},"т":{"x_min":15.28125,"x_max":555.5625,"ha":571,"o":"m 15 672 l 15 575 l 225 575 l 225 0 l 345 0 l 345 575 l 555 575 l 555 672 l 15 672 "},"П":{"x_min":105.5625,"x_max":781.953125,"ha":888,"o":"m 105 936 l 105 0 l 226 0 l 226 835 l 661 835 l 661 0 l 781 0 l 781 936 l 105 936 "},"Ö":{"x_min":50,"x_max":905.5625,"ha":957,"o":"m 484 952 b 50 460 234 952 50 757 b 470 -15 50 176 223 -15 b 905 478 709 -15 905 155 b 484 952 905 756 740 952 m 479 853 b 777 472 680 853 777 658 b 477 83 777 259 669 83 b 179 462 287 83 179 262 b 479 853 179 668 279 853 m 350 1002 b 416 1073 390 1002 416 1034 b 350 1142 416 1112 388 1142 b 281 1073 311 1142 281 1110 b 348 1002 281 1034 308 1002 l 350 1002 m 606 1002 b 675 1073 648 1002 675 1034 b 608 1142 675 1112 647 1142 b 538 1073 568 1142 538 1110 b 605 1002 538 1034 566 1002 l 606 1002 "},"z":{"x_min":25,"x_max":570.828125,"ha":594,"o":"m 25 0 l 570 0 l 570 97 l 177 97 l 177 100 b 263 205 208 134 236 168 l 563 596 l 565 672 l 52 672 l 52 574 l 416 574 l 416 571 b 329 467 386 535 358 503 l 25 70 l 25 0 "},"™":{"x_min":41.671875,"x_max":841.671875,"ha":860,"o":"m 41 936 l 41 874 l 162 874 l 162 558 l 237 558 l 237 874 l 358 874 l 358 936 l 41 936 m 841 558 l 812 936 l 704 936 l 638 750 b 612 656 630 722 622 690 l 611 656 b 586 752 601 695 594 722 l 520 936 l 408 936 l 380 558 l 452 558 l 466 781 b 469 886 468 815 469 852 l 473 886 b 500 779 481 853 493 809 l 568 564 l 645 564 l 713 774 b 745 886 725 809 736 853 l 750 886 b 752 781 751 846 751 810 l 766 558 l 841 558 "},"ặ":{"x_min":48.90625,"x_max":585.015625,"ha":669,"o":"m 573 412 b 318 688 573 547 523 688 b 97 628 233 688 153 664 l 125 547 b 300 597 172 578 237 597 b 453 442 437 597 453 497 l 453 428 b 48 177 193 429 48 340 b 254 -15 48 80 118 -15 b 460 84 350 -15 422 31 l 464 84 l 473 0 l 585 0 b 573 161 576 45 573 102 l 573 412 m 455 226 b 448 187 455 214 453 200 b 286 75 429 130 373 75 b 171 191 223 75 171 112 b 455 343 171 322 322 346 l 455 226 m 162 948 b 335 775 162 861 212 775 b 507 948 439 775 507 845 l 435 948 b 335 852 430 902 400 852 b 235 948 278 852 243 893 l 162 948 m 335 -111 b 262 -182 294 -111 262 -143 b 332 -254 262 -221 293 -254 b 403 -182 373 -254 403 -221 b 335 -111 403 -143 372 -111 "},"Θ":{"x_min":50,"x_max":906.953125,"ha":957,"o":"m 473 -15 b 906 478 711 -15 906 155 b 484 952 906 756 740 952 b 50 460 234 952 50 757 b 472 -15 50 176 223 -15 l 473 -15 m 477 83 b 177 462 286 83 177 265 b 480 853 177 665 277 853 b 779 472 681 853 779 658 b 479 83 779 259 670 83 l 477 83 m 290 532 l 290 432 l 666 432 l 666 532 l 290 532 "},"Ř":{"x_min":106.09375,"x_max":715.828125,"ha":747,"o":"m 106 0 l 226 0 l 226 405 l 340 405 b 528 223 450 401 500 353 b 590 0 554 107 575 27 l 715 0 b 643 257 696 36 674 126 b 506 446 621 354 578 421 l 506 450 b 682 689 604 483 682 565 b 608 867 682 761 656 825 b 338 943 550 920 467 943 b 106 924 254 943 167 936 l 106 0 m 226 839 b 346 850 246 845 288 850 b 561 675 474 849 561 796 b 350 497 561 568 479 497 l 226 497 l 226 839 m 413 991 l 556 1149 l 456 1149 l 368 1053 l 365 1053 l 276 1149 l 174 1149 l 319 991 l 413 991 "},"":{"x_min":31.9375,"x_max":422.21875,"ha":454,"o":"m 80 362 b 144 365 95 361 120 361 b 326 437 215 371 280 394 b 422 688 381 489 422 572 b 227 917 422 821 352 917 b 31 725 112 917 31 828 b 200 558 31 628 101 558 b 325 611 254 558 295 578 l 326 611 b 255 483 316 556 291 512 b 138 436 223 457 181 442 b 80 435 116 435 95 433 l 80 362 m 223 847 b 327 703 297 847 327 782 b 322 675 327 692 326 682 b 223 625 304 647 269 625 b 125 729 162 625 125 671 b 222 847 125 796 166 847 l 223 847 "},"Ň":{"x_min":105.125,"x_max":807.90625,"ha":914,"o":"m 219 0 l 219 399 b 209 786 219 555 216 668 l 213 788 b 388 475 260 686 323 579 l 685 0 l 807 0 l 807 936 l 694 936 l 694 544 b 707 159 694 398 696 284 l 705 158 b 537 462 660 253 606 352 l 237 936 l 105 936 l 105 0 l 219 0 m 505 979 l 648 1138 l 548 1138 l 460 1042 l 457 1042 l 369 1138 l 266 1138 l 412 979 l 505 979 "},"ừ":{"x_min":96.8125,"x_max":796.8125,"ha":765,"o":"m 678 807 b 702 727 692 782 702 753 b 637 672 702 692 685 672 l 541 672 l 541 259 b 530 197 541 237 537 215 b 369 86 507 143 450 86 b 219 300 257 86 219 172 l 219 672 l 96 672 l 96 279 b 328 -15 96 43 223 -15 b 550 109 448 -15 519 55 l 553 109 l 560 0 l 669 0 b 663 183 664 52 663 113 l 663 604 l 678 606 b 796 722 746 608 796 653 b 771 822 796 760 787 795 l 678 807 m 200 963 l 370 764 l 456 764 l 335 963 l 200 963 "},"Ợ":{"x_min":50.265625,"x_max":943.34375,"ha":957,"o":"m 478 83 b 179 462 286 83 178 265 b 479 853 178 665 278 853 b 778 472 680 853 778 658 b 478 83 778 259 669 83 m 823 1028 b 846 939 836 1003 846 973 b 783 878 846 899 829 878 b 629 928 739 878 672 914 b 485 952 593 941 540 952 b 50 460 235 952 50 757 b 471 -15 50 176 223 -15 b 905 478 710 -15 905 155 b 797 809 905 624 860 736 b 943 932 897 799 943 856 b 918 1046 943 979 932 1016 l 823 1028 m 479 -251 b 547 -180 518 -251 547 -216 b 480 -111 547 -144 518 -111 b 409 -180 440 -111 409 -144 b 478 -251 409 -216 440 -251 l 479 -251 "},"É":{"x_min":105.5625,"x_max":631.9375,"ha":683,"o":"m 590 539 l 226 539 l 226 835 l 611 835 l 611 936 l 105 936 l 105 0 l 631 0 l 631 101 l 226 101 l 226 439 l 590 439 l 590 539 m 419 1149 l 290 986 l 390 986 l 566 1149 l 419 1149 "},"и":{"x_min":98.609375,"x_max":672.21875,"ha":769,"o":"m 98 672 l 98 0 l 238 0 b 448 351 311 118 384 247 b 559 560 487 419 516 474 l 563 560 b 555 284 558 451 555 394 l 555 0 l 672 0 l 672 672 l 529 672 l 319 325 b 211 119 275 247 251 200 l 206 119 b 213 389 212 215 213 282 l 213 672 l 98 672 "},"":{"x_min":-33.328125,"x_max":443.0625,"ha":418,"o":"m 33 797 b 100 866 72 797 100 827 b 34 935 100 904 72 935 b -33 866 -4 935 -33 903 b 31 797 -33 829 -5 797 l 33 797 m 376 797 b 443 866 415 797 443 827 b 377 935 443 904 415 935 b 309 866 338 935 309 903 b 375 797 309 829 337 797 l 376 797 m 209 975 l 102 777 l 183 777 l 337 975 l 209 975 "},"³":{"x_min":12.5,"x_max":390.28125,"ha":424,"o":"m 62 1056 b 180 1092 84 1071 130 1092 b 268 1024 243 1092 268 1057 b 141 935 266 959 193 935 l 102 935 l 102 871 l 140 871 b 287 774 213 871 287 843 b 166 681 288 731 251 681 b 37 717 113 681 59 701 l 12 647 b 170 608 43 626 104 608 b 390 771 312 608 390 685 b 261 906 390 842 337 895 l 261 909 b 368 1034 327 931 368 978 b 198 1164 368 1100 318 1164 b 38 1121 130 1164 70 1142 l 62 1056 "},"":{"x_min":18.0625,"x_max":195.828125,"ha":250,"o":"m 88 289 b 195 625 138 357 195 464 b 88 960 195 786 138 893 l 18 960 b 118 625 72 879 118 772 b 18 289 118 476 72 369 l 88 289 "},"[":{"x_min":113.890625,"x_max":368.0625,"ha":394,"o":"m 368 -155 l 368 -79 l 208 -79 l 208 877 l 368 877 l 368 953 l 113 953 l 113 -155 l 368 -155 "},"ζ":{"x_min":54.25,"x_max":565.359375,"ha":568,"o":"m 473 -197 b 557 45 511 -148 557 -34 b 544 62 557 54 551 61 b 350 102 479 69 413 79 b 177 347 248 139 177 198 b 565 899 177 550 343 786 l 547 985 l 315 985 b 145 989 252 985 190 985 l 133 909 b 294 895 175 896 232 895 l 393 895 l 393 889 b 54 325 179 743 54 517 b 275 16 54 147 152 56 b 438 -20 330 -1 390 -13 b 393 -173 436 -57 412 -141 l 473 -197 "},"∏":{"x_min":12.5,"x_max":840.28125,"ha":854,"o":"m 840 802 l 840 903 l 12 903 l 12 802 l 141 802 l 141 -125 l 256 -125 l 256 802 l 595 802 l 595 -125 l 711 -125 l 711 802 l 840 802 "},"Έ":{"x_min":0,"x_max":729.171875,"ha":779,"o":"m 686 539 l 323 539 l 323 835 l 708 835 l 708 936 l 201 936 l 201 0 l 729 0 l 729 101 l 323 101 l 323 439 l 686 439 l 686 539 m 9 936 l 0 721 l 72 721 l 120 936 l 9 936 "},"Ρ":{"x_min":105.5625,"x_max":681.953125,"ha":739,"o":"m 105 0 l 226 0 l 226 375 b 323 366 254 368 287 366 b 609 469 441 366 545 401 b 681 670 656 518 681 585 b 600 866 681 753 651 821 b 337 943 544 916 456 943 b 105 925 240 943 163 935 l 105 0 m 226 838 b 340 847 247 843 287 847 b 561 664 473 847 561 788 b 326 464 561 535 472 464 b 226 474 286 464 252 467 l 226 838 "},"ğ":{"x_min":53.1875,"x_max":680.953125,"ha":776,"o":"m 205 946 b 378 774 205 860 255 774 b 550 946 482 774 550 843 l 478 946 b 378 850 474 900 443 850 b 278 946 321 850 286 892 l 205 946 m 675 486 b 680 671 675 568 678 622 l 574 671 l 568 569 l 565 569 b 355 686 536 625 472 686 b 53 329 201 686 53 557 b 339 1 53 143 172 1 b 553 113 443 1 515 51 l 555 113 l 555 38 b 339 -196 555 -130 464 -196 b 142 -143 255 -196 186 -170 l 111 -236 b 335 -291 165 -272 254 -291 b 579 -211 419 -291 514 -272 b 675 95 644 -152 675 -58 l 675 486 m 554 284 b 544 219 554 264 551 240 b 375 94 518 141 450 94 b 176 336 243 94 176 204 b 376 590 176 492 260 590 b 547 461 465 590 525 532 b 554 405 553 444 554 426 l 554 284 "},"Ở":{"x_min":50.265625,"x_max":943.34375,"ha":957,"o":"m 478 83 b 179 462 286 83 178 265 b 479 853 178 665 278 853 b 778 472 680 853 778 658 b 478 83 778 259 669 83 m 823 1028 b 846 939 836 1003 846 973 b 783 878 846 899 829 878 b 629 928 739 878 672 914 b 485 952 593 941 540 952 b 50 460 235 952 50 757 b 471 -15 50 176 223 -15 b 905 478 710 -15 905 155 b 797 809 905 624 860 736 b 943 932 897 799 943 856 b 918 1046 943 979 932 1016 l 823 1028 m 511 985 b 609 1135 547 1049 609 1064 b 494 1235 609 1192 558 1235 b 357 1142 423 1235 382 1192 l 404 1114 b 472 1163 419 1138 443 1163 b 518 1120 500 1163 518 1146 b 446 1003 518 1074 468 1063 l 511 985 "},"ª":{"x_min":46.125,"x_max":423.90625,"ha":481,"o":"m 423 369 b 415 478 418 403 415 440 l 415 626 b 239 821 415 727 378 821 b 80 775 179 821 121 804 l 103 715 b 222 753 135 740 178 753 b 325 667 311 753 325 689 l 325 653 b 46 494 147 657 46 594 b 189 362 46 422 97 362 b 329 428 254 362 303 394 l 332 428 l 340 369 l 423 369 m 326 517 b 312 479 326 507 321 493 b 218 429 294 453 260 429 b 137 500 175 429 137 454 b 326 593 137 579 239 594 l 326 517 "},"":{"x_min":33.328125,"x_max":583.328125,"ha":622,"o":"m 583 0 l 583 97 l 330 97 b 218 91 295 97 251 95 l 218 95 l 288 147 b 534 475 434 249 534 345 b 293 691 534 612 434 691 b 41 607 181 691 90 643 l 73 527 b 262 594 122 561 190 594 b 412 458 348 594 412 548 b 100 113 412 345 309 251 l 33 66 l 33 0 l 583 0 "},"ї":{"x_min":-36.109375,"x_max":359.71875,"ha":325,"o":"m 34 793 b 102 864 75 793 102 827 b 34 935 102 904 73 935 b -36 864 -4 935 -36 903 b 33 793 -36 827 -6 793 l 34 793 m 291 793 b 359 864 331 793 359 827 b 291 935 359 904 330 935 b 222 864 252 935 222 903 b 290 793 222 827 250 793 l 291 793 m 223 1 l 223 674 l 101 674 l 101 1 l 223 1 "},"ﬀ":{"x_min":19.4375,"x_max":862.5,"ha":810,"o":"m 638 1 l 638 581 l 800 581 l 800 674 l 637 674 l 637 710 b 768 904 637 813 665 904 b 847 889 804 904 827 897 l 862 982 b 758 1002 838 992 802 1002 b 595 939 702 1002 641 984 b 516 706 538 886 516 800 l 516 674 l 234 674 l 234 702 b 356 889 234 807 261 889 b 429 871 384 889 411 881 l 454 962 b 358 985 433 973 397 985 b 188 921 283 985 227 962 b 113 693 136 869 113 787 l 113 674 l 19 674 l 19 581 l 113 581 l 113 1 l 234 1 l 234 581 l 516 581 l 516 1 l 638 1 "},"":{"x_min":50,"x_max":669.453125,"ha":715,"o":"m 580 917 b 491 910 558 917 527 916 b 202 777 377 896 277 850 b 50 369 113 688 50 547 b 369 -15 50 134 176 -15 b 669 303 556 -15 669 137 b 397 594 669 479 556 594 b 179 490 297 594 222 547 l 175 490 b 488 811 195 639 297 779 b 580 817 523 817 555 818 l 580 917 m 369 79 b 170 337 241 79 173 189 b 184 392 170 360 176 378 b 359 503 218 457 286 503 b 545 296 472 503 545 425 b 370 79 545 166 475 79 l 369 79 "},"":{"x_min":77.78125,"x_max":319.4375,"ha":417,"o":"m 188 1 l 125 -118 b 233 -177 190 -125 233 -140 b 175 -219 233 -207 206 -219 b 97 -201 144 -219 118 -212 l 77 -264 b 176 -287 101 -278 140 -287 b 319 -175 248 -287 319 -255 b 220 -70 319 -118 273 -80 l 265 1 l 188 1 "},"T":{"x_min":-1.390625,"x_max":691.671875,"ha":690,"o":"m 283 0 l 405 0 l 405 834 l 691 834 l 691 936 l -1 936 l -1 834 l 283 834 l 283 0 "},"š":{"x_min":54.640625,"x_max":494.015625,"ha":550,"o":"m 326 764 l 456 963 l 365 963 l 283 831 l 280 831 l 198 963 l 104 963 l 237 764 l 326 764 m 54 31 b 243 -15 101 4 169 -15 b 494 187 402 -15 494 69 b 318 390 494 287 434 346 b 190 504 230 423 190 448 b 302 596 190 554 230 596 b 439 557 365 596 413 574 l 470 646 b 305 688 432 668 373 688 b 74 490 161 688 74 599 b 251 300 74 410 130 343 b 376 176 341 266 376 234 b 245 76 376 120 334 76 b 85 125 184 76 121 101 l 54 31 "},"є":{"x_min":53,"x_max":600.21875,"ha":639,"o":"m 600 643 b 419 688 568 661 500 688 b 53 329 205 688 53 544 b 396 -15 53 134 179 -15 b 600 29 491 -15 566 11 l 575 115 b 415 80 543 101 487 80 b 179 300 282 80 189 166 l 518 300 l 518 383 l 178 383 b 418 593 191 499 271 593 b 571 556 489 593 539 571 l 600 643 "},"Þ":{"x_min":105.5625,"x_max":681.953125,"ha":738,"o":"m 105 0 l 225 0 l 225 216 b 330 209 254 212 291 209 b 681 506 533 209 681 308 b 605 688 681 578 654 642 b 358 765 548 738 468 765 b 225 753 308 765 262 760 l 225 937 l 105 937 l 105 0 m 225 657 b 347 669 247 663 291 669 b 561 493 475 669 561 614 b 329 307 561 379 479 307 b 225 315 293 307 256 310 l 225 657 "},"j":{"x_min":-62.5,"x_max":252.828125,"ha":338,"o":"m -50 -293 b 158 -216 15 -293 104 -271 b 238 59 218 -155 238 -70 l 238 672 l 116 672 l 116 107 b 70 -145 116 -54 104 -108 b -62 -197 41 -177 -6 -193 l -50 -293 m 179 938 b 101 861 133 938 101 904 b 176 786 101 821 130 786 b 252 861 225 786 254 821 b 179 938 252 904 223 938 "},"Σ":{"x_min":36.15625,"x_max":727.875,"ha":767,"o":"m 194 105 l 495 469 l 209 831 l 209 836 l 683 836 l 683 936 l 54 936 l 54 854 l 361 465 l 36 72 l 36 0 l 727 0 l 727 101 l 194 101 l 194 105 "},"1":{"x_min":144.4375,"x_max":445.828125,"ha":713,"o":"m 327 0 l 445 0 l 445 903 l 341 903 l 144 797 l 168 704 l 325 789 l 327 789 l 327 0 "},"ℓ":{"x_min":43.0625,"x_max":659.71875,"ha":700,"o":"m 269 710 b 365 906 269 849 315 906 b 451 777 415 906 451 868 b 269 411 451 653 383 528 l 269 710 m 600 209 b 411 88 565 159 501 88 b 269 275 329 88 272 136 l 269 294 b 552 778 452 457 552 608 b 372 992 552 907 483 992 b 152 688 248 992 152 904 l 152 321 b 43 239 118 291 80 265 l 79 170 b 155 222 104 187 129 204 b 155 211 155 219 155 215 b 381 -13 169 80 238 -13 b 659 154 501 -13 594 40 l 600 209 "},"ĉ":{"x_min":52.78125,"x_max":583.328125,"ha":622,"o":"m 318 963 l 187 764 l 277 764 l 358 896 l 361 896 l 441 764 l 536 764 l 402 963 l 318 963 m 559 116 b 409 83 525 101 479 83 b 176 335 276 83 176 179 b 413 589 176 475 259 589 b 555 557 480 589 526 574 l 583 651 b 413 686 550 668 486 686 b 52 329 194 686 52 536 b 387 -15 52 123 184 -15 b 580 25 477 -15 548 8 l 559 116 "},"ī":{"x_min":6.9375,"x_max":319.4375,"ha":325,"o":"m 6 893 l 6 814 l 319 814 l 319 893 l 6 893 m 223 0 l 223 672 l 101 672 l 101 0 l 223 0 "},"О":{"x_min":50,"x_max":905.5625,"ha":957,"o":"m 484 952 b 50 460 234 952 50 757 b 470 -15 50 176 223 -15 b 905 478 709 -15 905 155 b 484 952 905 756 740 952 m 479 853 b 777 472 680 853 777 658 b 477 83 777 259 669 83 b 179 462 287 83 179 262 b 479 853 179 668 279 853 "},"ξ":{"x_min":53.25,"x_max":591.015625,"ha":601,"o":"m 501 604 b 435 604 477 604 454 604 b 239 760 325 608 239 663 b 413 911 239 838 297 911 b 550 879 472 911 523 895 l 575 964 b 406 1002 538 986 480 1002 b 117 768 212 1002 117 884 b 271 572 117 676 168 604 l 271 565 b 53 294 150 532 53 429 b 473 -22 53 59 289 4 b 429 -175 472 -57 447 -143 l 509 -198 b 591 44 548 -150 591 -27 b 578 59 591 52 586 59 b 394 94 523 68 459 76 b 181 305 257 130 181 193 b 464 515 181 421 271 515 l 501 515 l 501 604 "},"Ď":{"x_min":105.5625,"x_max":873.609375,"ha":925,"o":"m 105 2 b 325 -8 166 -4 238 -8 b 738 126 506 -8 651 38 b 873 490 826 212 873 337 b 741 827 873 642 825 750 b 362 943 659 903 536 943 b 105 924 266 943 179 935 l 105 2 m 226 835 b 368 847 258 842 305 847 b 747 486 623 847 748 707 b 348 88 747 233 606 88 b 226 95 301 88 256 90 l 226 835 m 475 989 l 618 1148 l 518 1148 l 430 1052 l 427 1052 l 338 1148 l 236 1148 l 381 989 l 475 989 "},"&":{"x_min":42.96875,"x_max":836.03125,"ha":840,"o":"m 836 0 b 681 165 780 59 731 112 b 816 511 751 247 791 364 l 705 511 b 615 237 687 393 658 303 b 387 499 555 304 466 407 l 387 503 b 592 753 536 576 592 654 b 386 952 592 874 502 952 b 148 721 230 952 148 835 b 226 525 148 654 177 586 l 226 521 b 42 247 119 462 42 375 b 330 -15 42 107 148 -15 b 604 91 433 -15 523 16 b 691 0 640 52 665 26 l 836 0 m 351 76 b 159 265 238 76 159 158 b 280 455 159 364 230 423 b 544 161 384 336 488 222 b 352 76 499 112 431 76 l 351 76 m 377 868 b 486 747 454 868 486 804 b 330 564 486 668 424 618 b 259 732 290 614 259 665 b 376 868 259 804 299 868 l 377 868 "},"":{"x_min":35,"x_max":477,"ha":417,"o":"m 250 1224 l 401 1078 l 477 1078 l 376 1224 l 250 1224 m 162 1145 l 35 986 l 129 986 l 205 1084 l 208 1084 l 285 986 l 382 986 l 251 1145 l 162 1145 "},"G":{"x_min":49.953125,"x_max":818.015625,"ha":897,"o":"m 818 492 l 509 492 l 509 394 l 699 394 l 699 115 b 538 90 672 101 618 90 b 177 468 320 90 177 230 b 554 845 177 703 326 845 b 761 804 648 845 711 827 l 790 903 b 556 946 749 923 665 946 b 49 462 243 946 51 742 b 180 113 49 316 99 191 b 530 -9 272 26 388 -9 b 818 41 656 -9 763 22 l 818 492 "},"ΰ":{"x_min":77.625,"x_max":663.734375,"ha":728,"o":"m 499 672 b 544 398 515 638 544 524 b 366 86 544 205 483 86 b 213 272 292 86 213 137 l 213 546 b 194 672 213 619 206 657 l 77 672 b 92 446 90 635 92 562 l 92 255 b 356 -15 92 72 209 -15 b 663 410 599 -15 663 212 b 613 672 663 521 637 628 l 499 672 m 335 967 l 306 749 l 372 749 l 440 967 l 335 967 m 195 778 b 256 843 231 778 256 809 b 195 907 256 879 230 907 b 130 843 159 907 130 878 b 194 778 130 809 156 778 l 195 778 m 530 778 b 594 843 569 778 594 809 b 531 907 594 879 567 907 b 467 843 495 907 467 878 b 529 778 467 809 494 778 l 530 778 "},"`":{"x_min":31,"x_max":287,"ha":417,"o":"m 31 963 l 200 764 l 287 764 l 165 963 l 31 963 "},"ỗ":{"x_min":52.234375,"x_max":709.171875,"ha":763,"o":"m 385 688 b 52 330 199 688 52 556 b 374 -15 52 118 192 -15 b 709 341 536 -15 709 93 b 385 688 709 547 578 688 m 382 596 b 584 337 527 596 584 451 b 380 76 584 186 496 76 b 175 335 260 76 175 187 b 382 596 175 462 238 596 m 334 928 l 210 764 l 303 764 l 377 866 l 380 866 l 455 764 l 550 764 l 423 928 l 334 928 m 280 945 b 314 999 281 977 293 999 b 375 975 332 999 348 991 b 460 946 405 960 430 946 b 555 1080 525 946 556 993 l 489 1080 b 452 1024 486 1035 473 1024 b 392 1046 434 1024 414 1034 b 306 1077 360 1063 336 1077 b 211 945 248 1077 210 1024 l 280 945 "},"Ễ":{"x_min":106.109375,"x_max":632.5,"ha":683,"o":"m 590 539 l 226 539 l 226 835 l 611 835 l 611 936 l 106 936 l 106 0 l 632 0 l 632 101 l 226 101 l 226 439 l 590 439 l 590 539 m 326 1145 l 183 986 l 283 986 l 371 1082 l 374 1082 l 463 986 l 564 986 l 420 1145 l 326 1145 m 274 1163 b 308 1219 275 1196 288 1219 b 370 1195 326 1219 342 1210 b 454 1166 399 1180 424 1166 b 549 1299 520 1166 550 1213 l 483 1299 b 446 1242 481 1255 467 1242 b 386 1264 428 1242 408 1253 b 300 1295 354 1283 331 1295 b 206 1163 242 1295 204 1242 l 274 1163 "},"ằ":{"x_min":48.90625,"x_max":584.921875,"ha":669,"o":"m 573 412 b 318 688 573 547 523 688 b 97 628 233 688 153 664 l 125 547 b 300 597 172 578 237 597 b 452 442 437 597 452 497 l 452 428 b 48 177 193 429 48 340 b 254 -15 48 80 118 -15 b 459 84 350 -15 422 31 l 464 84 l 473 0 l 584 0 b 573 161 576 45 573 102 l 573 412 m 455 226 b 448 187 455 214 452 200 b 286 75 429 130 373 75 b 171 191 223 75 171 112 b 455 343 171 322 322 346 l 455 226 m 157 1074 l 309 892 l 384 892 l 273 1074 l 157 1074 m 150 913 b 329 740 151 825 207 740 b 508 913 434 740 507 809 l 440 913 b 329 817 436 866 400 817 b 219 913 268 817 227 859 l 150 913 "},"ŏ":{"x_min":52.78125,"x_max":709.71875,"ha":763,"o":"m 208 948 b 380 775 208 861 258 775 b 552 948 484 775 552 845 l 480 948 b 380 852 476 902 445 852 b 280 948 323 852 288 893 l 208 948 m 386 688 b 52 330 200 688 52 556 b 375 -15 52 118 193 -15 b 709 341 537 -15 709 93 b 386 688 709 547 579 688 m 383 596 b 584 337 527 596 584 451 b 380 76 584 186 497 76 b 176 335 261 76 176 187 b 383 596 176 462 238 596 "},"Ả":{"x_min":34.71875,"x_max":818.0625,"ha":850,"o":"m 588 294 l 688 0 l 818 0 l 498 936 l 352 936 l 34 0 l 159 0 l 256 294 l 588 294 m 281 389 l 373 660 b 420 829 391 717 406 774 l 423 829 b 472 658 437 775 451 720 l 563 389 l 281 389 m 459 985 b 558 1135 495 1049 558 1064 b 443 1235 558 1192 506 1235 b 305 1142 372 1235 330 1192 l 352 1114 b 420 1163 368 1138 391 1163 b 466 1120 448 1163 466 1146 b 394 1003 466 1074 416 1063 l 459 985 "},"ý":{"x_min":13,"x_max":645,"ha":654,"o":"m 396 963 l 274 764 l 361 764 l 531 963 l 396 963 m 13 672 l 261 52 b 269 20 267 37 269 27 b 260 -8 269 13 265 4 b 157 -144 232 -70 190 -118 b 50 -204 121 -175 81 -194 l 81 -307 b 231 -227 111 -301 171 -280 b 461 193 314 -155 374 -37 l 645 672 l 515 672 l 382 278 b 339 137 365 229 351 177 l 336 137 b 293 275 325 177 308 230 l 146 672 l 13 672 "},"":{"x_min":32,"x_max":315,"ha":354,"o":"m 217 454 l 32 198 l 130 198 l 315 454 l 129 710 l 32 710 l 217 454 "},"º":{"x_min":25,"x_max":468.0625,"ha":493,"o":"m 248 821 b 25 588 129 821 25 732 b 245 362 25 451 122 362 b 468 594 352 362 466 435 b 250 821 468 725 383 821 l 248 821 m 245 752 b 375 592 337 752 375 661 b 247 432 375 496 320 432 b 118 590 177 432 118 499 b 244 752 118 664 156 752 l 245 752 "},"∞":{"x_min":48.609375,"x_max":962.5,"ha":1011,"o":"m 751 161 b 962 366 873 161 962 257 b 762 572 962 486 880 572 b 505 423 650 572 576 494 b 259 572 438 490 362 572 b 48 366 137 572 48 476 b 248 161 48 247 131 161 b 505 309 361 161 434 239 b 750 161 572 243 648 161 l 751 161 m 752 244 b 561 366 672 244 615 316 b 756 489 613 421 677 489 b 875 366 825 489 875 437 b 754 244 875 301 822 244 l 752 244 m 254 244 b 136 366 186 244 136 296 b 258 489 136 432 188 489 b 450 366 338 489 395 417 b 255 244 397 312 333 244 l 254 244 "},"":{"x_min":31.9375,"x_max":434.71875,"ha":467,"o":"m 230 -6 b 434 275 366 -6 434 105 b 236 549 434 443 363 549 b 31 269 111 549 31 442 b 229 -6 31 97 108 -6 l 230 -6 m 231 63 b 129 273 169 63 129 139 b 233 478 129 403 170 478 b 337 273 302 478 337 403 b 233 63 337 141 301 63 l 231 63 "},"ź":{"x_min":25.0625,"x_max":570.890625,"ha":594,"o":"m 361 963 l 238 764 l 326 764 l 495 963 l 361 963 m 25 0 l 570 0 l 570 97 l 177 97 l 177 100 b 263 205 208 134 236 168 l 563 596 l 565 672 l 52 672 l 52 574 l 416 574 l 416 571 b 329 467 386 535 358 503 l 25 70 l 25 0 "},"я":{"x_min":15.28125,"x_max":591.671875,"ha":689,"o":"m 591 667 b 375 681 533 674 455 681 b 150 635 287 681 205 667 b 61 489 98 606 61 558 b 238 322 61 386 151 332 l 238 318 b 162 279 208 312 183 297 b 56 76 102 229 86 141 b 15 0 44 47 30 22 l 145 0 b 173 55 155 16 165 34 b 268 244 200 120 218 204 b 380 282 294 268 329 282 l 470 282 l 470 0 l 591 0 l 591 667 m 470 365 b 366 365 443 365 416 365 b 187 482 294 365 187 396 b 369 599 187 575 286 599 b 470 592 412 599 440 596 l 470 365 "},"Ё":{"x_min":105.5625,"x_max":631.9375,"ha":683,"o":"m 590 539 l 226 539 l 226 835 l 611 835 l 611 936 l 105 936 l 105 0 l 631 0 l 631 101 l 226 101 l 226 439 l 590 439 l 590 539 m 226 1002 b 293 1073 266 1002 293 1034 b 226 1142 293 1112 265 1142 b 158 1073 187 1142 158 1110 b 225 1002 158 1034 184 1002 l 226 1002 m 483 1002 b 551 1073 525 1002 551 1034 b 484 1142 551 1112 523 1142 b 415 1073 444 1142 415 1110 b 481 1002 415 1034 443 1002 l 483 1002 "},"Ư":{"x_min":104.171875,"x_max":940.28125,"ha":940,"o":"m 823 1070 b 845 989 837 1045 845 1016 b 781 936 845 953 829 936 l 672 936 l 672 382 b 444 83 672 175 583 83 b 226 382 319 83 226 172 l 226 936 l 104 936 l 104 385 b 440 -15 104 94 248 -15 b 794 390 643 -15 794 102 l 794 863 l 815 864 b 940 982 898 867 940 914 b 916 1087 940 1021 930 1056 l 823 1070 "},"ń":{"x_min":95.828125,"x_max":673.609375,"ha":771,"o":"m 441 963 l 319 764 l 406 764 l 576 963 l 441 963 m 101 0 l 223 0 l 223 404 b 231 461 223 425 226 446 b 395 586 252 529 315 586 b 551 387 511 586 551 496 l 551 0 l 673 0 l 673 401 b 436 688 673 632 529 688 b 213 561 325 688 247 625 l 211 561 l 204 672 l 95 672 b 101 490 100 617 101 560 l 101 0 "},"Г":{"x_min":105.5625,"x_max":602.78125,"ha":601,"o":"m 105 936 l 105 0 l 226 0 l 226 835 l 602 835 l 602 936 l 105 936 "},"Ь":{"x_min":105.5625,"x_max":702.78125,"ha":757,"o":"m 105 936 l 105 2 b 294 -8 145 -2 209 -8 b 630 101 423 -8 554 20 b 702 301 675 150 702 214 b 341 593 702 508 533 593 b 226 586 309 593 254 590 l 226 936 l 105 936 m 226 490 b 325 497 256 494 294 497 b 576 294 458 497 576 442 b 326 86 576 151 461 86 b 226 93 284 86 254 87 l 226 490 "},"¤":{"x_min":40.203125,"x_max":676.53125,"ha":713,"o":"m 355 742 b 197 685 294 742 236 720 l 101 791 l 40 727 l 144 628 b 90 457 115 589 90 530 b 141 290 90 389 113 327 l 41 192 l 101 131 l 194 233 b 352 178 231 199 295 178 b 515 238 408 178 473 197 l 609 131 l 672 192 l 568 295 b 616 466 593 329 616 389 b 568 628 616 532 594 591 l 676 727 l 615 791 l 516 687 b 356 742 477 720 420 742 l 355 742 m 354 655 b 518 464 461 655 518 560 b 352 265 518 321 430 265 b 188 459 281 265 188 324 b 352 655 188 567 251 655 l 354 655 "},"Ĝ":{"x_min":49.953125,"x_max":818.015625,"ha":897,"o":"m 818 492 l 509 492 l 509 394 l 699 394 l 699 115 b 538 90 672 101 618 90 b 177 468 320 90 177 230 b 554 845 177 703 326 845 b 761 804 648 845 711 827 l 790 903 b 556 946 749 923 665 946 b 49 462 243 946 51 742 b 180 113 49 316 99 191 b 530 -9 272 26 388 -9 b 818 41 656 -9 763 22 l 818 492 m 452 1149 l 309 991 l 408 991 l 497 1087 l 499 1087 l 588 991 l 690 991 l 545 1149 l 452 1149 "},"p":{"x_min":95.828125,"x_max":737.5,"ha":790,"o":"m 101 -275 l 222 -275 l 222 90 l 225 90 b 431 -15 265 23 343 -15 b 737 346 590 -15 737 104 b 452 688 737 550 615 688 b 213 557 343 688 263 639 l 211 557 l 205 672 l 95 672 b 101 453 98 608 101 539 l 101 -275 m 222 389 b 230 439 222 405 226 423 b 415 590 254 531 331 590 b 615 340 544 590 615 475 b 411 80 615 186 540 80 b 227 223 323 80 250 139 b 222 273 225 239 222 255 l 222 389 "},"":{"x_min":46,"x_max":463,"ha":417,"o":"m 262 1077 l 392 893 l 463 893 l 374 1077 l 262 1077 m 162 963 l 46 764 l 134 764 l 205 895 l 208 895 l 279 764 l 372 764 l 253 963 l 162 963 "},"Ю":{"x_min":105.5625,"x_max":1154.171875,"ha":1204,"o":"m 105 936 l 105 0 l 226 0 l 226 430 l 362 430 b 751 -15 372 157 525 -15 b 1154 478 973 -15 1154 152 b 763 952 1154 756 1006 952 b 365 532 543 952 390 793 l 226 532 l 226 936 l 105 936 m 755 82 b 481 462 580 82 481 265 b 758 854 481 665 572 854 b 1030 472 943 854 1030 658 b 756 82 1030 259 933 82 l 755 82 "},"":{"x_min":21.78125,"x_max":455.109375,"ha":482,"o":"m 377 0 l 377 143 l 455 143 l 455 211 l 377 211 l 377 542 l 267 542 l 21 198 l 21 143 l 284 143 l 284 0 l 377 0 m 284 211 l 119 211 l 117 213 l 238 377 b 285 460 255 403 269 428 l 288 458 b 284 372 287 432 284 403 l 284 211 "},"ο":{"x_min":52.78125,"x_max":709.71875,"ha":763,"o":"m 376 -15 b 709 341 537 -15 709 93 b 386 688 709 547 579 688 b 52 330 200 688 52 556 b 375 -15 52 118 193 -15 l 376 -15 m 379 76 b 176 335 261 76 176 187 b 383 596 176 462 238 596 b 584 337 527 596 584 451 b 380 76 584 186 497 76 l 379 76 "},"S":{"x_min":58.203125,"x_max":624.875,"ha":685,"o":"m 58 45 b 297 -15 108 12 206 -15 b 624 255 517 -15 624 111 b 385 531 624 393 544 469 b 199 711 256 581 199 624 b 376 852 199 775 248 852 b 554 807 460 852 523 824 l 587 906 b 380 952 545 929 476 952 b 77 697 198 952 77 843 b 324 432 77 565 172 486 b 501 246 451 383 501 333 b 305 86 501 151 429 86 b 88 147 222 86 142 113 l 58 45 "},"ễ":{"x_min":51.984375,"x_max":645.015625,"ha":696,"o":"m 640 314 b 645 371 642 326 645 346 b 367 688 645 494 586 688 b 51 325 171 688 51 528 b 382 -15 51 122 175 -15 b 606 27 489 -15 563 8 l 585 115 b 399 80 539 95 486 80 b 168 314 276 80 171 148 l 640 314 m 170 401 b 357 600 179 486 233 600 b 526 401 495 600 528 479 l 170 401 m 315 928 l 192 764 l 285 764 l 358 866 l 361 866 l 436 764 l 532 764 l 404 928 l 315 928 m 261 945 b 296 999 263 977 275 999 b 357 975 314 999 329 991 b 442 946 386 960 411 946 b 536 1080 507 946 538 993 l 471 1080 b 433 1024 468 1035 454 1024 b 374 1046 415 1024 396 1034 b 288 1077 342 1063 318 1077 b 193 945 229 1077 192 1024 l 261 945 "},"/":{"x_min":-0.9375,"x_max":481,"ha":476,"o":"m 92 -55 l 481 952 l 386 952 l 0 -55 l 92 -55 "},"":{"x_min":-28.265625,"x_max":441.328125,"ha":418,"o":"m 38 797 b 105 866 77 797 105 827 b 39 935 105 904 77 935 b -28 866 2 935 -28 903 b 37 797 -28 829 0 797 l 38 797 m 373 797 b 441 866 413 797 441 827 b 374 935 441 904 413 935 b 307 866 337 935 307 903 b 371 797 307 829 334 797 l 373 797 m 77 975 l 232 777 l 312 777 l 205 975 l 77 975 "},"Ọ":{"x_min":50,"x_max":905.5625,"ha":957,"o":"m 484 952 b 50 460 234 952 50 757 b 470 -15 50 176 223 -15 b 905 478 709 -15 905 155 b 484 952 905 756 740 952 m 479 853 b 777 472 680 853 777 658 b 477 83 777 259 669 83 b 179 462 287 83 179 262 b 479 853 179 668 279 853 m 479 -251 b 547 -180 518 -251 547 -216 b 480 -111 547 -144 518 -111 b 409 -180 440 -111 409 -144 b 477 -251 409 -216 440 -251 l 479 -251 "},"Ŧ":{"x_min":-1.390625,"x_max":691.671875,"ha":690,"o":"m 691 834 l 691 936 l -1 936 l -1 834 l 283 834 l 283 525 l 111 525 l 111 444 l 283 444 l 283 0 l 405 0 l 405 444 l 577 444 l 577 525 l 405 525 l 405 834 l 691 834 "},"":{"x_min":93.015625,"x_max":630.515625,"ha":736,"o":"m 630 673 l 93 673 l 93 572 l 505 572 l 505 569 b 123 -136 431 374 237 27 l 237 -159 b 630 595 377 59 544 369 l 630 673 "},"ђ":{"x_min":9.71875,"x_max":718.0625,"ha":774,"o":"m 9 868 l 9 781 l 123 781 l 123 0 l 245 0 l 245 423 b 266 500 245 457 252 480 b 415 581 305 547 361 581 b 543 505 470 581 515 550 b 595 269 584 436 595 353 b 513 -34 595 123 562 20 b 383 -104 476 -76 436 -93 l 406 -200 b 580 -122 470 -193 531 -164 b 718 276 666 -50 718 88 b 644 571 718 387 698 493 b 452 679 601 639 536 679 b 248 583 370 679 297 638 l 245 583 l 245 781 l 559 781 l 559 868 l 245 868 l 245 986 l 123 986 l 123 868 l 9 868 "},"y":{"x_min":13,"x_max":645,"ha":654,"o":"m 13 672 l 261 52 b 269 20 267 37 269 27 b 260 -8 269 13 265 4 b 157 -144 232 -70 190 -118 b 50 -204 121 -175 81 -194 l 81 -307 b 231 -227 111 -301 171 -280 b 461 193 314 -155 374 -37 l 645 672 l 515 672 l 382 278 b 339 137 365 229 351 177 l 336 137 b 293 275 325 177 308 230 l 146 672 l 13 672 "},"Π":{"x_min":105.5625,"x_max":775,"ha":881,"o":"m 775 936 l 105 936 l 105 0 l 226 0 l 226 834 l 652 834 l 652 0 l 775 0 l 775 936 "},"":{"x_min":48.65625,"x_max":388.921875,"ha":440,"o":"m 248 -275 l 248 -190 b 388 -44 340 -175 388 -112 b 252 108 388 30 345 75 b 147 194 175 137 147 157 b 231 258 147 225 168 258 b 345 227 288 258 327 239 l 368 296 b 252 326 343 309 304 325 l 252 404 l 190 404 l 190 322 b 56 183 106 308 56 254 b 202 36 56 107 111 69 b 297 -52 268 11 297 -11 b 201 -123 297 -94 259 -123 b 72 -86 151 -123 105 -107 l 48 -157 b 186 -193 80 -176 133 -193 l 186 -275 l 248 -275 "},"–":{"x_min":41.671875,"x_max":652.78125,"ha":694,"o":"m 41 394 l 41 311 l 652 311 l 652 394 l 41 394 "},"ë":{"x_min":52.953125,"x_max":646.015625,"ha":696,"o":"m 244 793 b 312 864 284 793 312 827 b 244 935 312 904 283 935 b 173 864 205 935 173 903 b 243 793 173 827 202 793 l 244 793 m 501 793 b 569 864 541 793 569 827 b 501 935 569 904 540 935 b 432 864 462 935 432 903 b 500 793 432 827 459 793 l 501 793 m 641 315 b 646 372 643 328 646 347 b 368 689 646 496 587 689 b 52 326 172 689 52 529 b 383 -13 52 123 176 -13 b 607 29 490 -13 564 9 l 586 116 b 400 82 540 97 487 82 b 169 315 277 82 172 150 l 641 315 m 171 403 b 358 601 180 487 234 601 b 527 403 496 601 529 480 l 171 403 "},"б":{"x_min":55.5625,"x_max":680.5625,"ha":733,"o":"m 615 1002 b 448 965 569 985 502 974 b 159 807 318 943 225 900 b 55 434 87 712 55 587 b 369 -15 55 211 133 -15 b 680 340 566 -15 680 120 b 394 672 680 554 559 672 b 161 521 298 672 204 618 l 156 521 b 230 743 162 591 187 682 b 469 869 281 817 361 853 b 609 900 513 876 575 888 l 615 1002 m 556 330 b 372 74 556 206 506 74 b 184 347 238 74 184 236 b 218 490 184 401 195 450 b 369 582 245 544 297 582 b 556 331 513 582 556 439 l 556 330 "},"ƒ":{"x_min":15,"x_max":659,"ha":713,"o":"m 153 469 l 281 469 l 249 196 b 114 -22 232 54 200 -22 b 37 -6 85 -22 60 -18 l 15 -94 b 123 -116 38 -107 77 -116 b 364 184 285 -116 342 5 l 397 469 l 575 469 l 575 557 l 408 557 l 417 629 b 564 822 428 732 469 822 b 636 809 592 822 615 817 l 659 897 b 564 918 639 909 606 917 b 299 621 377 918 316 758 l 291 557 l 153 557 l 153 469 "},"⁽":{"x_min":55.5625,"x_max":233.328125,"ha":250,"o":"m 162 1206 b 55 868 112 1139 55 1031 b 162 535 55 708 112 601 l 233 535 b 133 868 179 615 133 721 b 233 1206 133 1018 177 1127 l 162 1206 "},"у":{"x_min":13,"x_max":645,"ha":654,"o":"m 13 672 l 261 52 b 269 20 267 37 269 27 b 260 -8 269 13 265 4 b 157 -144 232 -70 190 -118 b 50 -204 121 -175 81 -194 l 81 -307 b 231 -227 111 -301 171 -280 b 461 193 314 -155 374 -37 l 645 672 l 515 672 l 382 278 b 339 137 365 229 351 177 l 336 137 b 293 275 325 177 308 230 l 146 672 l 13 672 "},"J":{"x_min":5.5625,"x_max":418.0625,"ha":514,"o":"m 297 319 b 125 87 297 136 233 87 b 23 105 84 87 48 95 l 5 6 b 134 -15 36 -5 90 -15 b 418 309 295 -15 418 61 l 418 936 l 297 936 l 297 319 "},"ŷ":{"x_min":13,"x_max":645,"ha":654,"o":"m 288 963 l 157 764 l 247 764 l 328 896 l 331 896 l 411 764 l 506 764 l 372 963 l 288 963 m 13 672 l 261 52 b 269 20 267 37 269 27 b 260 -8 269 13 265 4 b 157 -144 232 -70 190 -118 b 50 -204 121 -175 81 -194 l 81 -307 b 231 -227 111 -301 171 -280 b 461 193 314 -155 374 -37 l 645 672 l 515 672 l 382 278 b 339 137 365 229 351 177 l 336 137 b 293 275 325 177 308 230 l 146 672 l 13 672 "},"ŕ":{"x_min":95.5625,"x_max":434.4375,"ha":454,"o":"m 299 963 l 177 764 l 265 764 l 434 963 l 299 963 m 101 0 l 221 0 l 221 358 b 227 415 221 379 224 398 b 391 572 244 507 305 572 b 433 568 408 572 420 571 l 433 683 b 398 688 421 686 412 688 b 212 540 316 688 242 631 l 206 540 l 202 672 l 95 672 b 101 462 99 610 101 542 l 101 0 "},"ώ":{"x_min":52.390625,"x_max":910.71875,"ha":964,"o":"m 499 953 l 426 754 l 507 754 l 623 953 l 499 953 m 538 504 l 423 504 l 426 239 b 314 86 426 154 377 86 b 171 346 251 86 171 158 b 282 678 171 489 220 610 l 282 681 l 170 681 b 52 343 110 622 52 494 b 298 -15 52 87 181 -15 b 476 104 380 -15 444 30 l 481 104 b 657 -15 509 30 574 -15 b 910 354 784 -15 910 104 b 795 681 910 508 855 631 l 680 681 l 680 678 b 791 357 745 615 791 489 b 651 86 791 176 720 86 b 535 240 584 86 535 152 l 538 504 "},"˘":{"x_min":36.109375,"x_max":380.5625,"ha":417,"o":"m 36 948 b 208 775 36 861 86 775 b 380 948 312 775 380 845 l 308 948 b 208 852 304 902 273 852 b 108 948 151 852 116 893 l 36 948 "},"D":{"x_min":105.5625,"x_max":873.609375,"ha":925,"o":"m 105 2 b 325 -8 166 -4 238 -8 b 738 126 506 -8 651 38 b 873 490 826 212 873 337 b 741 827 873 642 825 750 b 362 943 659 903 536 943 b 105 924 266 943 179 935 l 105 2 m 226 835 b 368 847 258 842 305 847 b 747 486 623 847 748 707 b 348 88 747 233 606 88 b 226 95 301 88 256 90 l 226 835 "},"":{"x_min":12.5,"x_max":390.28125,"ha":424,"o":"m 62 810 b 180 846 84 825 130 846 b 268 778 243 846 268 811 b 141 689 266 713 193 689 l 102 689 l 102 625 l 140 625 b 287 528 213 625 287 597 b 166 435 288 485 251 435 b 37 471 113 435 59 455 l 12 401 b 170 362 43 380 104 362 b 390 525 312 362 390 439 b 261 660 390 596 337 649 l 261 663 b 368 788 327 685 368 732 b 198 918 368 854 318 918 b 38 875 130 918 70 896 l 62 810 "},"":{"x_min":105.125,"x_max":807.90625,"ha":914,"o":"m 219 0 l 219 399 b 209 786 219 555 216 668 l 213 788 b 388 475 260 686 323 579 l 685 0 l 807 0 l 807 936 l 694 936 l 694 544 b 707 159 694 398 696 284 l 705 158 b 537 462 660 253 606 352 l 237 936 l 105 936 l 105 0 l 219 0 m 409 1145 l 266 986 l 364 986 l 453 1082 l 456 1082 l 545 986 l 646 986 l 502 1145 l 409 1145 "},"ł":{"x_min":12.5,"x_max":327.78125,"ha":336,"o":"m 229 0 l 229 492 l 327 577 l 327 675 l 229 590 l 229 986 l 106 986 l 106 497 l 12 415 l 12 319 l 106 399 l 106 0 l 229 0 "},"ĺ":{"x_min":84.71875,"x_max":361.109375,"ha":328,"o":"m 101 0 l 223 0 l 223 986 l 101 986 l 101 0 m 213 1189 l 84 1027 l 184 1027 l 361 1189 l 213 1189 "},"ц":{"x_min":98.609375,"x_max":719.453125,"ha":764,"o":"m 98 672 l 98 0 l 612 0 l 618 -214 l 712 -214 l 719 90 l 650 91 l 650 672 l 529 672 l 529 95 l 219 95 l 219 672 l 98 672 "},"Л":{"x_min":-9.71875,"x_max":720.828125,"ha":825,"o":"m 170 936 l 170 542 b 88 136 170 392 163 209 b -9 86 66 113 27 93 l 5 -11 b 148 33 59 -11 113 11 b 288 551 280 122 288 348 l 288 835 l 598 835 l 598 0 l 720 0 l 720 936 l 170 936 "},"$":{"x_min":90.515625,"x_max":609.96875,"ha":713,"o":"m 390 -119 l 390 25 b 609 261 533 48 609 151 b 394 515 609 385 537 457 b 222 674 273 565 222 601 b 369 793 222 729 262 793 b 544 746 458 793 515 763 l 579 838 b 398 886 539 861 482 884 l 398 1021 l 312 1021 l 312 881 b 103 657 184 860 103 772 b 332 417 103 536 190 472 b 489 251 434 375 489 328 b 323 115 489 172 422 115 b 123 175 246 115 173 141 l 90 82 b 303 20 139 47 222 22 l 303 -119 l 390 -119 "},"w":{"x_min":25,"x_max":1001,"ha":1022,"o":"m 25 672 l 227 0 l 338 0 l 447 319 b 508 542 470 392 491 461 l 510 542 b 570 321 527 462 547 396 l 673 0 l 784 0 l 1001 672 l 880 672 l 784 335 b 733 116 762 255 744 184 l 728 116 b 669 336 713 184 694 255 l 565 672 l 462 672 l 352 330 b 292 116 330 257 308 184 l 288 116 b 238 330 276 186 258 255 l 149 672 l 25 672 "},"о":{"x_min":52.78125,"x_max":709.71875,"ha":763,"o":"m 386 688 b 52 330 200 688 52 556 b 375 -15 52 118 193 -15 b 709 341 537 -15 709 93 b 386 688 709 547 579 688 m 383 596 b 584 337 527 596 584 451 b 380 76 584 186 497 76 b 176 335 261 76 176 187 b 383 596 176 462 238 596 "},"Д":{"x_min":15.28125,"x_max":827.78125,"ha":875,"o":"m 222 936 l 222 699 b 177 304 222 537 209 412 b 86 98 155 230 120 162 l 15 95 l 23 -225 l 118 -225 l 126 0 l 716 0 l 725 -225 l 819 -225 l 827 95 l 745 98 l 745 936 l 222 936 m 334 836 l 625 836 l 625 100 l 211 100 b 287 278 238 150 268 212 b 334 660 320 383 334 510 l 334 836 "},"Ç":{"x_min":50,"x_max":761.109375,"ha":813,"o":"m 734 126 b 537 87 686 102 611 87 b 177 464 309 87 177 234 b 543 850 177 710 323 850 b 731 811 620 850 686 834 l 761 910 b 538 952 729 927 655 952 b 50 460 248 952 50 753 b 443 -9 50 177 215 16 l 384 -116 b 493 -175 450 -123 493 -139 b 433 -218 493 -205 465 -218 b 356 -200 405 -218 377 -211 l 337 -262 b 436 -286 361 -276 400 -286 b 579 -173 508 -286 579 -254 b 481 -69 579 -116 533 -79 l 515 -13 b 759 30 631 -12 716 8 l 734 126 "},"Ŝ":{"x_min":58.421875,"x_max":624.875,"ha":685,"o":"m 58 45 b 297 -15 108 12 206 -15 b 624 255 517 -15 624 111 b 386 531 624 393 544 469 b 200 711 256 581 200 624 b 376 852 200 775 248 852 b 553 807 460 852 523 824 l 587 906 b 380 952 545 929 476 952 b 77 697 198 952 77 843 b 324 432 77 565 172 486 b 501 246 451 383 501 333 b 305 86 501 151 428 86 b 88 147 222 86 143 113 l 58 45 m 297 1149 l 154 991 l 252 991 l 341 1087 l 344 1087 l 433 991 l 534 991 l 390 1149 l 297 1149 "},"C":{"x_min":50,"x_max":761.109375,"ha":806,"o":"m 734 126 b 537 87 686 102 611 87 b 177 464 309 87 177 234 b 543 850 177 710 323 850 b 731 811 620 850 686 834 l 761 910 b 538 952 729 927 655 952 b 50 460 248 952 50 753 b 512 -15 50 152 248 -15 b 759 30 626 -15 715 8 l 734 126 "},"":{"x_min":31.9375,"x_max":429.171875,"ha":461,"o":"m 370 547 b 315 544 356 549 337 547 b 126 465 237 537 173 511 b 31 225 69 412 31 328 b 237 -6 31 90 108 -6 b 429 186 348 -6 429 79 b 259 360 429 290 359 360 b 129 303 201 360 155 333 l 127 303 b 315 472 141 386 204 457 b 370 474 334 475 355 475 l 370 547 m 236 63 b 123 201 162 63 123 126 b 130 230 123 214 126 222 b 229 293 148 266 186 293 b 334 180 294 293 334 248 b 237 63 334 113 294 63 l 236 63 "},"Ĵ":{"x_min":5.5625,"x_max":543.0625,"ha":514,"o":"m 297 319 b 125 87 297 136 233 87 b 23 105 84 87 48 95 l 5 6 b 134 -15 36 -5 90 -15 b 418 309 295 -15 418 61 l 418 936 l 297 936 l 297 319 m 305 1145 l 162 986 l 261 986 l 350 1082 l 352 1082 l 441 986 l 543 986 l 398 1145 l 305 1145 "},"":{"x_min":108.625,"x_max":616.953125,"ha":736,"o":"m 108 -134 b 266 -159 143 -148 205 -159 b 616 123 473 -159 616 -47 b 553 280 616 183 594 240 b 246 366 479 351 361 368 l 287 574 l 589 574 l 604 674 l 205 674 l 133 275 b 450 215 286 286 396 269 b 493 113 476 189 493 154 b 265 -65 493 -2 383 -65 b 123 -47 212 -65 155 -57 l 108 -134 "},"Ẻ":{"x_min":105.5625,"x_max":631.9375,"ha":683,"o":"m 590 539 l 226 539 l 226 835 l 611 835 l 611 936 l 105 936 l 105 0 l 631 0 l 631 101 l 226 101 l 226 439 l 590 439 l 590 539 m 404 985 b 502 1135 440 1049 502 1064 b 387 1235 502 1192 451 1235 b 250 1142 316 1235 275 1192 l 297 1114 b 365 1163 312 1138 336 1163 b 411 1120 393 1163 411 1146 b 338 1003 411 1074 361 1063 l 404 985 "},"È":{"x_min":106.078125,"x_max":632.46875,"ha":683,"o":"m 590 539 l 226 539 l 226 835 l 611 835 l 611 936 l 106 936 l 106 0 l 632 0 l 632 101 l 226 101 l 226 439 l 590 439 l 590 539 m 165 1149 l 342 988 l 442 988 l 313 1149 l 165 1149 "},"ﬁ":{"x_min":19.390625,"x_max":624.9375,"ha":726,"o":"m 234 0 l 234 579 l 504 579 l 504 0 l 624 0 l 624 672 l 234 672 l 234 706 b 401 903 234 813 272 903 b 543 864 461 903 513 885 l 577 957 b 406 1002 543 982 469 1002 b 113 708 218 1002 113 886 l 113 672 l 19 672 l 19 579 l 113 579 l 113 0 l 234 0 "},"X":{"x_min":35,"x_max":759,"ha":793,"o":"m 759 0 l 467 480 l 752 936 l 613 936 l 485 717 b 400 558 450 657 426 614 l 396 558 b 310 717 371 608 344 656 l 186 936 l 46 936 l 321 474 l 35 0 l 173 0 l 286 205 b 387 392 335 287 361 337 l 390 392 b 499 207 419 337 450 286 l 618 0 l 759 0 "},"ô":{"x_min":52.78125,"x_max":709.71875,"ha":763,"o":"m 337 963 l 206 764 l 297 764 l 377 896 l 380 896 l 461 764 l 555 764 l 422 963 l 337 963 m 386 688 b 52 330 200 688 52 556 b 375 -15 52 118 193 -15 b 709 341 537 -15 709 93 b 386 688 709 547 579 688 m 383 596 b 584 337 527 596 584 451 b 380 76 584 186 497 76 b 176 335 261 76 176 187 b 383 596 176 462 238 596 "},"":{"x_min":60.03125,"x_max":971.140625,"ha":1024,"o":"m 622 483 b 453 294 607 397 533 294 b 361 400 391 294 361 339 b 582 650 361 535 460 650 b 651 640 614 650 637 644 l 622 483 m 705 98 b 496 50 648 66 575 50 b 139 426 290 50 139 194 b 555 889 139 708 329 889 b 891 542 771 889 891 743 b 741 287 891 380 812 286 b 700 443 696 289 679 337 l 747 695 b 598 724 711 711 658 724 b 269 394 405 724 269 567 b 419 219 269 284 339 219 b 615 341 503 219 566 259 l 621 341 b 723 219 616 257 668 219 b 971 550 854 219 971 341 b 566 953 971 782 808 953 b 60 418 258 953 60 704 b 480 -16 60 150 253 -16 b 728 38 573 -16 651 -1 l 705 98 "},"Ė":{"x_min":105.5625,"x_max":631.9375,"ha":683,"o":"m 590 539 l 226 539 l 226 835 l 611 835 l 611 936 l 105 936 l 105 0 l 631 0 l 631 101 l 226 101 l 226 439 l 590 439 l 590 539 m 348 1002 b 416 1073 387 1002 416 1036 b 350 1142 416 1109 387 1142 b 279 1073 309 1142 279 1109 b 347 1002 279 1036 309 1002 l 348 1002 "},"г":{"x_min":98.609375,"x_max":511.109375,"ha":535,"o":"m 98 672 l 98 0 l 219 0 l 219 574 l 511 574 l 511 672 l 98 672 "},"ấ":{"x_min":48.90625,"x_max":658.75,"ha":669,"o":"m 574 412 b 318 688 574 547 524 688 b 97 628 233 688 153 664 l 125 547 b 300 597 172 578 237 597 b 453 442 437 597 453 497 l 453 428 b 48 177 193 429 48 340 b 254 -15 48 80 118 -15 b 460 84 350 -15 422 31 l 464 84 l 474 0 l 585 0 b 574 161 576 45 574 102 l 574 412 m 455 226 b 449 187 455 214 453 200 b 286 75 429 130 373 75 b 171 191 223 75 171 112 b 455 343 171 322 322 346 l 455 226 m 279 963 l 162 764 l 251 764 l 322 895 l 325 895 l 396 764 l 489 764 l 369 963 l 279 963 m 546 1077 l 450 893 l 521 893 l 658 1077 l 546 1077 "},"":{"x_min":20.828125,"x_max":581.9375,"ha":639,"o":"m 563 904 l 131 904 l 73 470 b 198 480 106 474 147 480 b 458 280 379 480 456 397 b 244 84 458 159 359 84 b 51 134 162 84 88 112 l 20 41 b 245 -14 63 13 147 -14 b 581 294 441 -14 581 117 b 452 526 581 408 523 486 b 258 574 397 559 327 574 b 184 569 225 574 205 572 l 219 801 l 563 801 l 563 904 "},"Ŀ":{"x_min":105.5625,"x_max":626.390625,"ha":656,"o":"m 105 0 l 626 0 l 626 101 l 226 101 l 226 936 l 105 936 l 105 0 m 473 444 b 541 515 512 444 541 479 b 475 585 541 551 512 585 b 404 515 434 585 404 551 b 472 444 404 479 434 444 l 473 444 "},"х":{"x_min":11,"x_max":626,"ha":643,"o":"m 22 672 l 249 343 l 11 0 l 145 0 l 242 151 b 313 268 267 191 291 226 l 316 268 b 388 151 340 227 362 190 l 487 0 l 626 0 l 390 347 l 619 672 l 487 672 l 392 529 b 326 418 370 493 348 458 l 321 418 b 253 528 299 455 278 490 l 158 672 l 22 672 "},"ŋ":{"x_min":95.828125,"x_max":673.609375,"ha":771,"o":"m 101 0 l 223 0 l 223 404 b 231 461 223 425 226 446 b 395 586 252 529 315 586 b 551 387 511 586 551 496 l 551 70 b 386 -151 551 -58 495 -129 l 409 -248 b 673 82 558 -227 673 -132 l 673 401 b 436 688 673 632 529 688 b 213 561 325 688 247 625 l 211 561 l 204 672 l 95 672 b 101 490 100 617 101 560 l 101 0 "},"Ỵ":{"x_min":18.0625,"x_max":750,"ha":751,"o":"m 436 0 l 436 398 l 750 936 l 612 936 l 477 678 b 383 485 441 607 409 546 l 380 485 b 287 678 351 550 323 607 l 155 936 l 18 936 l 313 397 l 313 0 l 436 0 m 376 -251 b 444 -180 415 -251 444 -216 b 377 -111 444 -144 415 -111 b 306 -180 337 -111 306 -144 b 375 -251 306 -216 337 -251 l 376 -251 "},"Ч":{"x_min":98.609375,"x_max":725,"ha":829,"o":"m 98 936 l 98 618 b 375 336 98 389 251 336 b 600 394 456 336 534 357 l 602 394 l 602 -5 l 725 -5 l 725 936 l 602 936 l 602 489 b 418 435 554 458 483 435 b 219 636 286 435 219 508 l 219 936 l 98 936 "},"":{"x_min":50.625,"x_max":558.953125,"ha":613,"o":"m 50 -134 b 208 -159 85 -148 147 -159 b 558 123 415 -159 558 -47 b 495 280 558 183 536 240 b 188 366 421 351 303 368 l 229 574 l 531 574 l 546 674 l 147 674 l 75 275 b 392 215 228 286 338 269 b 435 113 418 189 435 154 b 207 -65 435 -2 325 -65 b 65 -47 154 -65 97 -57 l 50 -134 "},"":{"x_min":29.171875,"x_max":151.390625,"ha":182,"o":"m 90 -212 b 151 -150 127 -212 151 -184 b 91 -87 151 -112 127 -87 b 29 -150 55 -87 29 -112 b 88 -212 29 -184 54 -212 l 90 -212 "},"":{"x_min":0.0625,"x_max":157,"ha":182,"o":"m 66 522 b 157 739 97 572 134 663 l 54 732 b 0 517 44 664 22 576 l 66 522 "},"":{"x_min":75,"x_max":327.78125,"ha":417,"o":"m 223 736 b 327 899 255 800 327 821 b 211 1003 327 960 276 1003 b 75 910 141 1003 100 960 l 122 882 b 190 931 138 907 159 931 b 236 884 215 931 236 913 b 158 753 236 832 175 814 l 223 736 "},"ü":{"x_min":97.21875,"x_max":669.453125,"ha":765,"o":"m 258 793 b 326 864 298 793 326 827 b 258 935 326 904 297 935 b 187 864 219 935 187 903 b 256 793 187 827 216 793 l 258 793 m 515 793 b 583 864 555 793 583 827 b 515 935 583 904 554 935 b 445 864 476 935 445 903 b 513 793 445 827 473 793 l 515 793 m 663 674 l 541 674 l 541 261 b 530 198 541 239 537 216 b 369 87 508 144 451 87 b 219 301 258 87 219 173 l 219 674 l 97 674 l 97 280 b 329 -13 97 44 223 -13 b 551 111 448 -13 519 57 l 554 111 l 561 1 l 669 1 b 663 184 665 54 663 115 l 663 674 "},"":{"x_min":36.171875,"x_max":382.046875,"ha":417,"o":"m 108 1162 b 143 1205 112 1182 120 1205 b 202 1181 159 1205 175 1196 b 287 1152 232 1166 258 1152 b 382 1285 352 1152 383 1199 l 318 1285 b 279 1230 313 1241 301 1230 b 220 1252 262 1230 243 1239 b 134 1281 187 1269 165 1281 b 40 1162 75 1281 43 1231 l 108 1162 m 36 1114 b 207 971 44 1038 98 971 b 382 1114 316 971 373 1041 l 316 1114 b 208 1046 305 1077 279 1046 b 101 1114 140 1046 111 1081 l 36 1114 "},"ь":{"x_min":98.609375,"x_max":641.671875,"ha":692,"o":"m 98 672 l 98 2 b 279 -6 148 -2 211 -6 b 570 70 377 -6 497 8 b 641 225 613 107 641 155 b 330 451 641 404 481 451 b 219 444 294 451 248 450 l 219 672 l 98 672 m 219 357 b 306 364 247 361 275 364 b 519 222 397 364 519 339 b 309 79 519 109 401 79 b 219 84 269 79 243 82 l 219 357 "},"":{"x_min":25,"x_max":240.28125,"ha":265,"o":"m 25 289 l 25 222 l 240 222 l 240 289 l 25 289 "},"":{"x_min":31.9375,"x_max":429.171875,"ha":461,"o":"m 370 917 b 315 914 356 918 337 917 b 126 835 237 907 173 881 b 31 594 69 782 31 697 b 237 362 31 460 108 362 b 429 556 348 362 429 448 b 259 729 429 660 359 729 b 129 672 201 729 155 703 l 127 672 b 315 842 141 756 204 827 b 370 843 334 845 355 845 l 370 917 m 236 433 b 123 571 162 433 123 496 b 130 600 123 583 126 592 b 229 663 148 636 186 663 b 334 550 294 663 334 618 b 237 433 334 483 294 433 l 236 433 "},"Ÿ":{"x_min":18.0625,"x_max":750,"ha":751,"o":"m 436 0 l 436 398 l 750 936 l 612 936 l 477 678 b 383 485 441 607 409 546 l 380 485 b 287 678 351 550 323 607 l 155 936 l 18 936 l 313 397 l 313 0 l 436 0 m 259 992 b 326 1063 300 992 326 1024 b 259 1132 326 1102 298 1132 b 191 1063 220 1132 191 1100 b 258 992 191 1024 218 992 l 259 992 m 516 992 b 584 1063 558 992 584 1024 b 518 1132 584 1102 556 1132 b 448 1063 477 1132 448 1100 b 515 992 448 1024 476 992 l 516 992 "},"€":{"x_min":14.28125,"x_max":689.28125,"ha":713,"o":"m 665 130 b 496 84 633 112 569 84 b 300 165 421 84 351 111 b 224 347 262 207 235 266 l 617 347 l 617 415 l 214 415 b 214 440 214 425 214 432 b 217 499 214 460 215 480 l 617 499 l 617 568 l 229 568 b 312 745 243 642 271 704 b 496 821 360 795 421 821 b 651 782 558 821 617 802 l 679 874 b 494 918 640 895 576 918 b 219 803 380 918 290 877 b 105 568 164 746 122 665 l 14 568 l 14 499 l 96 499 b 93 436 94 479 93 458 b 93 415 93 429 93 422 l 14 415 l 14 347 l 100 347 b 200 108 112 247 147 166 b 482 -15 269 27 369 -15 b 689 43 574 -15 646 13 l 665 130 "},"в":{"x_min":98.609375,"x_max":641.671875,"ha":694,"o":"m 98 0 b 287 -8 134 -2 212 -8 b 641 190 419 -8 641 13 b 470 357 641 287 569 343 l 470 360 b 611 511 547 376 611 428 b 312 679 611 661 425 679 b 98 664 233 679 145 672 l 98 0 m 215 589 b 309 594 244 592 269 594 b 490 496 431 594 490 562 b 306 390 490 417 397 390 l 215 390 l 215 589 m 213 309 l 302 309 b 516 191 419 309 516 289 b 312 75 516 94 394 75 b 213 80 273 75 248 76 l 213 309 "},"Η":{"x_min":105.5625,"x_max":801.390625,"ha":906,"o":"m 105 936 l 105 0 l 226 0 l 226 439 l 679 439 l 679 0 l 801 0 l 801 936 l 679 936 l 679 544 l 226 544 l 226 936 l 105 936 "},"С":{"x_min":50,"x_max":761.109375,"ha":806,"o":"m 734 126 b 537 87 686 102 611 87 b 177 464 309 87 177 234 b 543 850 177 710 323 850 b 731 811 620 850 686 834 l 761 910 b 538 952 729 927 655 952 b 50 460 248 952 50 753 b 512 -15 50 152 248 -15 b 759 30 626 -15 715 8 l 734 126 "},"ß":{"x_min":101.390625,"x_max":702.78125,"ha":761,"o":"m 223 0 l 223 633 b 390 906 223 831 283 906 b 534 754 476 906 534 850 b 522 695 534 731 529 711 b 398 524 443 656 398 594 b 506 339 398 446 448 394 b 581 196 556 293 581 254 b 445 79 581 132 534 79 b 329 107 404 79 365 88 l 306 13 b 454 -15 347 -6 402 -15 b 702 205 608 -15 702 75 b 590 419 702 305 645 364 b 519 540 547 464 519 493 b 619 653 519 588 556 626 b 651 767 634 675 651 718 b 404 1002 651 918 536 1002 b 200 931 319 1002 252 978 b 101 628 138 875 101 786 l 101 0 l 223 0 "},"њ":{"x_min":98.609375,"x_max":1036.109375,"ha":1086,"o":"m 98 672 l 98 0 l 219 0 l 219 327 l 502 327 l 502 1 b 684 -7 552 -3 618 -7 b 968 67 781 -7 895 5 b 1036 222 1009 104 1036 152 b 738 445 1036 390 876 445 b 625 437 700 445 652 441 l 625 672 l 502 672 l 502 422 l 219 422 l 219 672 l 98 672 m 623 351 b 715 358 651 355 680 358 b 915 218 806 358 915 330 b 715 78 915 109 802 78 b 623 84 673 78 647 81 l 623 351 "},"":{"x_min":-62,"x_max":449,"ha":417,"o":"m -62 1150 l 115 988 l 208 988 l 81 1150 l -62 1150 m 179 1150 l 355 988 l 449 988 l 322 1150 l 179 1150 "},"Ể":{"x_min":106.109375,"x_max":663.0625,"ha":683,"o":"m 590 539 l 226 539 l 226 835 l 611 835 l 611 936 l 106 936 l 106 0 l 632 0 l 632 101 l 226 101 l 226 439 l 590 439 l 590 539 m 314 1145 l 185 986 l 279 986 l 356 1084 l 358 1084 l 436 986 l 533 986 l 401 1145 l 314 1145 m 567 1047 b 663 1192 603 1111 663 1125 b 553 1289 663 1248 615 1289 b 421 1200 485 1289 445 1249 l 465 1174 b 533 1225 481 1198 504 1225 b 581 1180 560 1225 581 1206 b 508 1064 581 1135 531 1121 l 567 1047 "},"ẳ":{"x_min":48.90625,"x_max":585.015625,"ha":669,"o":"m 573 412 b 318 687 573 547 523 687 b 97 628 233 687 153 664 l 125 547 b 300 597 172 578 237 597 b 453 441 437 597 453 497 l 453 427 b 48 177 193 429 48 340 b 254 -15 48 80 118 -15 b 460 84 350 -15 422 31 l 464 84 l 473 0 l 585 0 b 573 161 576 45 573 102 l 573 412 m 455 226 b 448 187 455 213 453 199 b 286 74 429 130 373 74 b 171 191 223 74 171 112 b 455 343 171 322 322 345 l 455 226 m 346 881 b 441 1024 382 943 441 956 b 330 1122 441 1078 393 1122 b 198 1034 262 1122 222 1081 l 243 1006 b 308 1056 258 1029 280 1056 b 355 1010 336 1056 355 1036 b 285 896 355 967 307 954 l 346 881 m 148 913 b 328 740 150 825 205 740 b 507 913 432 740 505 808 l 437 913 b 328 817 433 865 398 817 b 218 913 266 817 226 858 l 148 913 "},"Ű":{"x_min":104.171875,"x_max":794.453125,"ha":899,"o":"m 104 936 l 104 385 b 440 -15 104 94 248 -15 b 794 390 643 -15 794 102 l 794 936 l 672 936 l 672 382 b 444 83 672 175 583 83 b 226 382 319 83 226 172 l 226 936 l 104 936 m 393 1149 l 281 993 l 370 993 l 525 1149 l 393 1149 m 597 1149 l 486 993 l 575 993 l 730 1149 l 597 1149 "},"c":{"x_min":52.78125,"x_max":583.328125,"ha":622,"o":"m 559 116 b 409 83 525 101 479 83 b 176 335 276 83 176 179 b 413 589 176 475 259 589 b 555 557 480 589 526 574 l 583 651 b 413 686 550 668 486 686 b 52 329 194 686 52 536 b 387 -15 52 123 184 -15 b 580 25 477 -15 548 8 l 559 116 "},"¶":{"x_min":47.140625,"x_max":591.671875,"ha":711,"o":"m 406 -68 l 406 854 l 505 854 l 505 -68 l 591 -68 l 591 927 b 429 939 556 935 502 939 b 47 631 123 939 44 775 b 309 366 50 453 200 366 l 319 366 l 319 -68 l 406 -68 "},"Ή":{"x_min":0,"x_max":897.21875,"ha":1003,"o":"m 201 936 l 201 0 l 323 0 l 323 439 l 775 439 l 775 0 l 897 0 l 897 936 l 775 936 l 775 544 l 323 544 l 323 936 l 201 936 m 9 936 l 0 721 l 72 721 l 120 936 l 9 936 "},"Ụ":{"x_min":104.171875,"x_max":794.453125,"ha":899,"o":"m 104 936 l 104 385 b 440 -15 104 94 248 -15 b 794 390 643 -15 794 102 l 794 936 l 672 936 l 672 382 b 444 83 672 175 583 83 b 226 382 319 83 226 172 l 226 936 l 104 936 m 450 -251 b 518 -180 488 -251 518 -216 b 451 -111 518 -144 488 -111 b 380 -180 411 -111 380 -144 b 448 -251 380 -216 411 -251 l 450 -251 "},"γ":{"x_min":-8.328125,"x_max":615.28125,"ha":644,"o":"m 373 -275 b 369 2 373 -180 373 -76 b 377 36 369 15 369 25 b 615 626 506 232 615 454 b 611 672 615 643 613 660 l 495 672 b 497 625 495 660 497 646 b 338 148 497 460 400 261 l 333 148 b 129 672 291 355 190 581 l -8 672 b 229 119 59 568 179 341 b 254 -275 261 -13 258 -147 l 373 -275 "},"­":{"x_min":41.671875,"x_max":384.71875,"ha":404,"o":"m 41 421 l 41 330 l 384 330 l 384 421 l 41 421 "},"ȳ":{"x_min":13,"x_max":645,"ha":654,"o":"m 172 893 l 172 814 l 485 814 l 485 893 l 172 893 m 13 672 l 261 52 b 269 20 267 37 269 27 b 260 -8 269 13 265 4 b 157 -144 232 -70 190 -118 b 50 -204 121 -175 81 -194 l 81 -307 b 231 -227 111 -301 171 -280 b 461 193 314 -155 374 -37 l 645 672 l 515 672 l 382 278 b 339 137 365 229 351 177 l 336 137 b 293 275 325 177 308 230 l 146 672 l 13 672 "},":":{"x_min":72.21875,"x_max":237.5,"ha":288,"o":"m 154 475 b 237 561 205 475 237 512 b 155 650 236 613 204 650 b 72 561 106 650 72 613 b 152 475 72 512 105 475 l 154 475 m 154 -15 b 237 70 205 -15 237 22 b 155 158 236 122 204 158 b 72 70 106 158 72 122 b 152 -15 72 22 105 -15 l 154 -15 "},"":{"x_min":18.0625,"x_max":195.828125,"ha":250,"o":"m 88 -80 b 195 255 138 -12 195 94 b 88 590 195 417 138 524 l 18 590 b 118 255 72 510 118 403 b 18 -80 118 107 72 0 l 88 -80 "},"":{"x_min":51,"x_max":499.78125,"ha":417,"o":"m 162 1149 l 51 993 l 139 993 l 294 1149 l 162 1149 m 366 1149 l 255 993 l 344 993 l 499 1149 l 366 1149 "},"₫":{"x_min":94.421875,"x_max":672.21875,"ha":713,"o":"m 123 136 l 123 54 l 591 54 l 591 136 l 123 136 m 480 923 l 480 828 l 304 828 l 304 760 l 480 760 l 480 640 l 477 640 b 327 711 451 679 400 711 b 94 454 198 711 93 614 b 313 212 94 309 188 212 b 487 303 397 212 456 250 l 490 303 l 494 223 l 590 223 b 586 347 587 255 586 304 l 586 760 l 672 760 l 672 828 l 586 828 l 586 923 l 480 923 m 480 432 b 475 394 480 419 477 405 b 341 296 459 333 402 296 b 204 460 252 296 204 368 b 347 629 204 558 256 629 b 476 533 412 629 462 585 b 480 497 479 524 480 508 l 480 432 "},"ś":{"x_min":53.734375,"x_max":494.015625,"ha":550,"o":"m 338 963 l 216 764 l 303 764 l 473 963 l 338 963 m 53 31 b 242 -15 100 4 169 -15 b 494 187 402 -15 494 69 b 317 390 494 287 434 346 b 189 504 230 423 189 448 b 302 596 189 554 230 596 b 439 557 364 596 413 574 l 470 646 b 305 688 432 668 373 688 b 73 490 160 688 73 599 b 250 300 73 410 130 343 b 375 176 341 266 375 234 b 245 76 375 120 334 76 b 84 125 184 76 120 101 l 53 31 "}," ":{"x_min":0,"x_max":0,"ha":294},"У":{"x_min":3,"x_max":729,"ha":724,"o":"m 3 936 l 313 303 b 318 247 325 280 327 268 b 134 86 288 179 232 86 b 90 90 114 86 100 87 l 77 -8 b 145 -16 93 -13 115 -16 b 358 98 229 -16 297 22 b 533 454 423 184 481 328 l 729 936 l 601 936 l 455 539 b 397 371 431 474 413 418 l 394 371 b 326 536 372 425 350 480 l 140 936 l 3 936 "},"¾":{"x_min":41.234375,"x_max":1020.40625,"ha":1054,"o":"m 91 810 b 207 846 113 824 157 846 b 296 778 271 846 296 811 b 170 689 296 713 221 690 l 131 689 l 131 625 l 170 625 b 317 528 242 625 316 597 b 195 435 317 485 281 435 b 66 471 142 435 88 456 l 41 401 b 200 362 73 380 132 362 b 419 525 342 362 419 439 b 291 660 419 596 366 649 l 291 663 b 396 788 356 685 396 732 b 225 918 396 854 346 918 b 67 874 157 918 99 896 l 91 810 m 321 -15 l 848 918 l 770 918 l 242 -15 l 321 -15 m 935 0 l 935 143 l 1020 143 l 1020 211 l 935 211 l 935 549 l 834 549 l 566 197 l 566 143 l 844 143 l 844 0 l 935 0 m 844 211 l 666 211 l 664 212 l 799 386 b 845 462 814 408 827 432 l 848 462 b 844 375 846 436 844 407 l 844 211 "},"Ί":{"x_min":0,"x_max":323.609375,"ha":429,"o":"m 201 936 l 201 0 l 323 0 l 323 936 l 201 936 m 9 936 l 0 721 l 72 721 l 120 936 l 9 936 "},"ŉ":{"x_min":25,"x_max":673.609375,"ha":771,"o":"m 101 0 l 223 0 l 223 404 b 231 461 223 425 226 446 b 395 586 252 529 315 586 b 551 387 511 586 551 496 l 551 0 l 673 0 l 673 401 b 436 688 673 632 529 688 b 213 561 325 688 247 625 l 211 561 l 204 672 l 95 672 b 101 490 100 617 101 560 l 101 0 m 77 745 b 170 904 100 761 170 811 b 122 1005 170 953 145 991 l 33 981 b 76 899 56 961 76 931 b 25 785 76 846 48 811 l 77 745 "},"⁶":{"x_min":31.9375,"x_max":429.171875,"ha":461,"o":"m 370 1163 b 315 1160 356 1164 337 1163 b 126 1081 237 1153 173 1127 b 31 840 69 1028 31 943 b 237 608 31 706 108 608 b 429 802 348 608 429 695 b 259 975 429 906 359 975 b 129 918 201 975 155 949 l 127 918 b 315 1088 141 1002 204 1073 b 370 1089 334 1091 355 1091 l 370 1163 m 236 679 b 123 817 162 679 123 742 b 130 846 123 829 126 838 b 229 909 148 882 186 909 b 334 796 294 909 334 864 b 237 679 334 729 294 679 l 236 679 "},"":{"x_min":77.78125,"x_max":675,"ha":736,"o":"m 612 842 b 77 326 279 824 77 614 b 386 -15 77 122 201 -15 b 675 280 530 -15 675 94 b 415 547 675 446 556 547 b 212 446 319 547 247 496 l 208 446 b 620 752 240 604 370 736 l 612 842 m 386 77 b 200 286 273 77 200 173 b 245 400 200 332 211 365 b 384 460 270 428 322 460 b 554 275 486 460 554 387 b 387 77 554 143 468 77 l 386 77 "},"Ȝ":{"x_min":43.0625,"x_max":612.5,"ha":667,"o":"m 87 -160 b 612 261 406 -122 612 47 b 363 515 612 409 504 501 l 363 519 b 534 747 458 562 534 643 b 280 952 534 868 431 952 b 43 886 186 952 87 914 l 68 804 b 258 854 102 822 183 854 b 412 728 348 854 412 803 b 133 497 412 618 290 533 l 150 411 b 280 436 197 426 251 436 b 484 252 411 437 484 355 b 72 -64 484 88 294 -30 l 87 -160 "},"":{"x_min":65.28125,"x_max":681.953125,"ha":736,"o":"m 422 0 l 422 159 l 636 159 l 636 227 l 422 227 l 422 311 l 636 311 l 636 379 l 459 379 l 681 715 l 555 715 l 430 505 b 372 393 408 465 387 428 l 368 393 b 313 503 354 426 336 460 l 195 715 l 65 715 l 273 379 l 95 379 l 95 311 l 308 311 l 308 227 l 95 227 l 95 159 l 308 159 l 308 0 l 422 0 "},"Ģ":{"x_min":49.953125,"x_max":818.015625,"ha":897,"o":"m 818 492 l 509 492 l 509 394 l 699 394 l 699 115 b 538 90 672 101 618 90 b 177 468 320 90 177 230 b 554 845 177 703 326 845 b 761 804 648 845 711 827 l 790 903 b 556 946 749 923 665 946 b 49 462 243 946 51 742 b 180 113 49 316 99 191 b 530 -9 272 26 388 -9 b 818 41 656 -9 763 22 l 818 492 m 413 -308 b 593 -158 499 -303 593 -261 b 537 -57 593 -112 565 -75 l 447 -76 b 494 -159 472 -95 494 -127 b 390 -251 494 -215 444 -241 l 413 -308 "},"m":{"x_min":95.828125,"x_max":1061.109375,"ha":1158,"o":"m 101 0 l 220 0 l 220 405 b 230 465 220 426 223 447 b 381 588 250 526 305 588 b 522 403 475 588 522 510 l 522 0 l 641 0 l 641 415 b 651 476 641 437 645 460 b 795 588 672 536 726 588 b 941 380 894 588 941 510 l 941 0 l 1061 0 l 1061 396 b 840 688 1061 629 929 688 b 691 640 776 688 731 671 b 616 553 663 619 637 590 l 613 553 b 423 688 584 632 515 688 b 212 564 312 688 250 628 l 208 564 l 202 672 l 95 672 b 101 490 100 617 101 560 l 101 0 "},"Ị":{"x_min":97.21875,"x_max":234.71875,"ha":332,"o":"m 105 936 l 105 0 l 226 0 l 226 936 l 105 936 m 166 -251 b 234 -180 205 -251 234 -216 b 168 -111 234 -144 205 -111 b 97 -180 127 -111 97 -144 b 165 -251 97 -216 127 -251 l 166 -251 "},"Е":{"x_min":105.5625,"x_max":631.9375,"ha":683,"o":"m 590 539 l 226 539 l 226 835 l 611 835 l 611 936 l 105 936 l 105 0 l 631 0 l 631 101 l 226 101 l 226 439 l 590 439 l 590 539 "},"":{"x_min":140.28125,"x_max":277.78125,"ha":417,"o":"m 209 -251 b 277 -180 248 -251 277 -216 b 211 -111 277 -144 248 -111 b 140 -180 170 -111 140 -144 b 208 -251 140 -216 170 -251 l 209 -251 "},"ž":{"x_min":25.03125,"x_max":570.984375,"ha":594,"o":"m 359 764 l 490 963 l 398 963 l 316 831 l 313 831 l 232 963 l 137 963 l 270 764 l 359 764 m 25 0 l 570 0 l 570 97 l 177 97 l 177 100 b 263 205 208 134 236 168 l 564 596 l 565 672 l 52 672 l 52 574 l 416 574 l 416 571 b 329 467 386 535 358 503 l 25 70 l 25 0 "},"⁵":{"x_min":26.390625,"x_max":387.5,"ha":428,"o":"m 372 1154 l 91 1154 l 55 887 b 134 894 76 890 102 894 b 291 785 247 894 291 849 b 169 679 291 718 231 679 b 45 710 116 679 69 696 l 26 640 b 170 607 54 623 111 607 b 387 793 300 607 387 686 b 309 932 387 861 352 908 b 181 963 273 954 227 963 b 138 960 163 963 150 961 l 156 1078 l 372 1078 l 372 1154 "},"ớ":{"x_min":53.0625,"x_max":769.734375,"ha":768,"o":"m 383 596 b 585 337 528 596 585 451 b 380 76 585 186 497 76 b 176 335 261 76 176 187 b 383 596 176 462 239 596 m 653 770 b 675 688 665 746 675 718 b 619 632 675 651 655 632 b 501 668 576 632 535 658 b 386 688 464 681 428 688 b 53 330 200 688 53 556 b 375 -15 53 118 193 -15 b 710 341 537 -15 710 93 b 640 564 710 432 685 508 b 769 685 725 560 769 610 b 746 786 769 724 760 757 l 653 770 m 443 963 l 321 764 l 408 764 l 578 963 l 443 963 "},"":{"x_min":28.875,"x_max":387.21875,"ha":417,"o":"m 266 1074 l 156 892 l 230 892 l 384 1074 l 266 1074 m 28 913 b 208 740 30 825 85 740 b 387 913 312 740 385 809 l 317 913 b 208 817 313 866 278 817 b 98 913 146 817 106 859 l 28 913 "},"á":{"x_min":48.90625,"x_max":585.015625,"ha":669,"o":"m 382 963 l 260 764 l 347 764 l 516 963 l 382 963 m 573 412 b 318 688 573 547 523 688 b 97 628 233 688 153 664 l 125 547 b 300 597 172 578 237 597 b 453 442 437 597 453 497 l 453 428 b 48 177 193 429 48 340 b 254 -15 48 80 118 -15 b 460 84 350 -15 422 31 l 464 84 l 473 0 l 585 0 b 573 161 576 45 573 102 l 573 412 m 455 226 b 448 187 455 214 453 200 b 286 75 429 130 373 75 b 171 191 223 75 171 112 b 455 343 171 322 322 346 l 455 226 "},"×":{"x_min":56,"x_max":773,"ha":828,"o":"m 56 670 l 353 365 l 56 61 l 117 0 l 414 304 l 711 0 l 773 61 l 474 365 l 773 670 l 711 731 l 414 426 l 117 731 l 56 670 "},"п":{"x_min":98.609375,"x_max":654.171875,"ha":751,"o":"m 98 672 l 98 0 l 219 0 l 219 575 l 531 575 l 531 0 l 654 0 l 654 672 l 98 672 "},"Ǻ":{"x_min":34.546875,"x_max":817.875,"ha":850,"o":"m 433 961 b 558 1068 508 961 558 1007 b 434 1178 558 1130 512 1178 b 306 1068 353 1178 306 1128 b 433 961 306 1009 355 961 m 431 1013 b 372 1068 395 1013 372 1038 b 430 1128 372 1100 392 1128 b 492 1070 469 1128 492 1102 b 431 1013 492 1035 469 1013 m 508 1323 l 360 1203 l 467 1203 l 666 1323 l 508 1323 m 588 294 l 688 0 l 817 0 l 498 936 l 352 936 l 34 0 l 159 0 l 256 294 l 588 294 m 281 389 l 373 660 b 420 829 391 717 406 774 l 423 829 b 472 658 437 775 451 720 l 563 389 l 281 389 "},"K":{"x_min":105.5625,"x_max":766.671875,"ha":753,"o":"m 105 0 l 226 0 l 226 357 l 315 460 l 623 0 l 766 0 l 401 539 l 740 936 l 590 936 l 304 585 b 230 485 280 554 255 521 l 226 485 l 226 936 l 105 936 l 105 0 "},"7":{"x_min":79.171875,"x_max":648.609375,"ha":713,"o":"m 79 903 l 79 802 l 520 802 l 520 799 l 129 0 l 255 0 l 648 822 l 648 903 l 79 903 "},"¨":{"x_min":9.71875,"x_max":405.5625,"ha":417,"o":"m 80 793 b 148 864 120 793 148 827 b 80 935 148 904 119 935 b 9 864 41 935 9 903 b 79 793 9 827 38 793 l 80 793 m 337 793 b 405 864 377 793 405 827 b 337 935 405 904 376 935 b 268 864 298 935 268 903 b 336 793 268 827 295 793 l 337 793 "},"Y":{"x_min":18.0625,"x_max":750,"ha":751,"o":"m 436 0 l 436 398 l 750 936 l 612 936 l 477 678 b 383 485 441 607 409 546 l 380 485 b 287 678 351 550 323 607 l 155 936 l 18 936 l 313 397 l 313 0 l 436 0 "},"E":{"x_min":105.5625,"x_max":631.9375,"ha":683,"o":"m 590 539 l 226 539 l 226 835 l 611 835 l 611 936 l 105 936 l 105 0 l 631 0 l 631 101 l 226 101 l 226 439 l 590 439 l 590 539 "},"Ô":{"x_min":50,"x_max":905.5625,"ha":957,"o":"m 484 952 b 50 460 234 952 50 757 b 470 -15 50 176 223 -15 b 905 478 709 -15 905 155 b 484 952 905 756 740 952 m 479 853 b 777 472 680 853 777 658 b 477 83 777 259 669 83 b 179 462 287 83 179 262 b 479 853 179 668 279 853 m 430 1149 l 287 991 l 386 991 l 475 1087 l 477 1087 l 566 991 l 668 991 l 523 1149 l 430 1149 "},"":{"x_min":0.0625,"x_max":157,"ha":182,"o":"m 66 -297 b 157 -80 97 -247 134 -157 l 54 -87 b 0 -303 44 -155 22 -243 l 66 -297 "},"ổ":{"x_min":52.78125,"x_max":709.71875,"ha":763,"o":"m 386 688 b 52 331 200 688 52 556 b 375 -14 52 118 193 -14 b 709 342 537 -14 709 93 b 386 688 709 548 579 688 m 383 596 b 584 338 527 596 584 452 b 380 77 584 186 497 77 b 176 335 261 77 176 188 b 383 596 176 463 238 596 m 334 963 l 218 765 l 306 765 l 377 895 l 380 895 l 451 765 l 544 765 l 425 963 l 334 963 m 584 883 b 680 1026 620 945 680 958 b 569 1125 680 1080 631 1125 b 437 1036 501 1125 461 1083 l 481 1008 b 548 1058 497 1032 519 1058 b 594 1012 575 1058 594 1038 b 523 898 594 969 545 956 l 584 883 "},"Є":{"x_min":50.046875,"x_max":755.609375,"ha":800,"o":"m 755 907 b 537 952 722 924 655 952 b 50 467 233 952 50 731 b 515 -15 50 164 250 -15 b 754 30 626 -15 708 8 l 732 123 b 537 86 677 100 609 86 b 182 429 323 86 187 240 l 661 429 l 661 526 l 180 526 b 541 852 200 707 329 852 b 726 813 613 852 680 835 l 755 907 "},"Ï":{"x_min":-29.171875,"x_max":363.890625,"ha":332,"o":"m 105 936 l 105 0 l 226 0 l 226 936 l 105 936 m 38 1002 b 105 1073 79 1002 105 1034 b 38 1142 105 1112 77 1142 b -29 1073 0 1142 -29 1110 b 37 1002 -29 1034 -2 1002 l 38 1002 m 295 1002 b 363 1073 337 1002 363 1034 b 297 1142 363 1112 336 1142 b 227 1073 256 1142 227 1110 b 294 1002 227 1034 255 1002 l 295 1002 "},"ġ":{"x_min":53.1875,"x_max":680.953125,"ha":776,"o":"m 387 795 b 455 866 428 795 455 828 b 387 938 455 906 426 938 b 317 866 347 938 317 906 b 386 795 317 828 346 795 l 387 795 m 675 486 b 680 671 675 568 678 622 l 574 671 l 568 569 l 565 569 b 355 686 536 625 472 686 b 53 329 201 686 53 557 b 339 1 53 143 172 1 b 553 113 443 1 515 51 l 555 113 l 555 38 b 339 -196 555 -130 464 -196 b 142 -143 255 -196 186 -170 l 111 -236 b 335 -291 165 -272 254 -291 b 579 -211 419 -291 514 -272 b 675 95 644 -152 675 -58 l 675 486 m 554 284 b 544 219 554 264 551 240 b 375 94 518 141 450 94 b 176 336 243 94 176 204 b 376 590 176 492 260 590 b 547 461 465 590 525 532 b 554 405 553 444 554 426 l 554 284 "},"Ẳ":{"x_min":34.71875,"x_max":818.0625,"ha":850,"o":"m 588 294 l 688 0 l 818 0 l 498 936 l 352 936 l 34 0 l 159 0 l 256 294 l 588 294 m 281 389 l 373 660 b 420 829 391 717 406 774 l 423 829 b 472 658 437 775 451 720 l 563 389 l 281 389 m 450 1081 b 545 1226 487 1144 545 1157 b 436 1323 545 1280 498 1323 b 304 1234 368 1323 327 1283 l 348 1207 b 415 1256 363 1231 386 1256 b 461 1212 441 1256 461 1238 b 390 1098 461 1169 412 1155 l 450 1081 m 258 1114 b 429 971 268 1038 322 971 b 605 1114 538 971 595 1041 l 540 1114 b 431 1046 529 1077 502 1046 b 325 1114 362 1046 333 1081 l 258 1114 "},"ứ":{"x_min":97.21875,"x_max":797.21875,"ha":765,"o":"m 679 807 b 702 727 693 782 702 753 b 637 672 702 692 686 672 l 541 672 l 541 259 b 530 197 541 237 537 215 b 369 86 508 143 451 86 b 219 300 258 86 219 172 l 219 672 l 97 672 l 97 279 b 329 -15 97 43 223 -15 b 551 109 448 -15 519 55 l 554 109 l 561 0 l 669 0 b 663 183 665 52 663 113 l 663 604 l 679 606 b 797 722 747 608 797 653 b 772 822 797 760 787 795 l 679 807 m 459 963 l 337 764 l 425 764 l 594 963 l 459 963 "},"έ":{"x_min":54.171875,"x_max":583.328125,"ha":611,"o":"m 355 953 l 281 754 l 362 754 l 479 953 l 355 953 m 220 357 b 54 189 122 341 54 272 b 337 -15 54 37 202 -15 b 583 45 431 -15 531 11 l 561 129 b 363 77 520 105 437 77 b 181 200 265 77 181 120 b 393 314 181 280 272 314 l 477 314 l 477 401 l 397 401 b 209 497 291 401 209 430 b 365 597 209 558 272 597 b 533 556 433 597 505 574 l 559 636 b 355 688 511 670 443 688 b 87 505 176 688 87 594 b 220 364 87 439 131 383 l 220 357 "},"":{"x_min":25,"x_max":240.28125,"ha":265,"o":"m 25 904 l 25 838 l 240 838 l 240 904 l 25 904 "},"Ấ":{"x_min":35,"x_max":818,"ha":850,"o":"m 588 294 l 688 0 l 818 0 l 498 936 l 352 936 l 35 0 l 159 0 l 257 294 l 588 294 m 282 389 l 373 660 b 420 829 391 717 407 774 l 423 829 b 472 658 437 775 451 720 l 563 389 l 282 389 m 389 1145 l 261 986 l 354 986 l 432 1084 l 434 1084 l 511 986 l 608 986 l 476 1145 l 389 1145 m 658 1251 l 541 1105 l 613 1105 l 781 1251 l 658 1251 "},"":{"x_min":87.5,"x_max":329.171875,"ha":417,"o":"m 170 5 b 87 -165 137 -30 87 -97 b 218 -284 87 -243 140 -284 b 329 -252 252 -284 301 -275 l 309 -190 b 245 -202 293 -197 270 -202 b 176 -133 205 -202 176 -176 b 250 5 176 -80 229 -20 l 170 5 "},"ể":{"x_min":54.125,"x_max":661.078125,"ha":696,"o":"m 643 314 b 647 371 644 327 647 346 b 369 688 647 495 588 688 b 54 325 173 688 54 528 b 384 -14 54 122 177 -14 b 608 28 491 -14 565 8 l 587 115 b 401 81 541 96 488 81 b 170 314 279 81 173 149 l 643 314 m 172 402 b 359 601 181 487 236 601 b 529 402 497 601 530 480 l 172 402 m 315 963 l 198 765 l 287 765 l 358 895 l 361 895 l 431 765 l 524 765 l 405 963 l 315 963 m 565 883 b 661 1026 601 945 661 958 b 549 1125 661 1080 612 1125 b 418 1036 481 1125 441 1083 l 462 1008 b 529 1058 477 1032 499 1058 b 574 1012 555 1058 574 1038 b 504 898 574 969 526 956 l 565 883 "},"":{"x_min":27.78125,"x_max":304.171875,"ha":394,"o":"m 122 -113 b 304 453 211 4 304 180 b 122 1018 304 727 211 904 l 27 1018 b 202 454 127 881 202 703 b 27 -113 202 204 126 23 l 122 -113 "},"ϋ":{"x_min":78.046875,"x_max":664.15625,"ha":728,"o":"m 229 774 b 296 843 269 774 296 806 b 230 914 296 884 268 914 b 161 843 190 914 161 882 b 228 774 161 806 189 774 l 229 774 m 485 774 b 553 843 525 774 553 806 b 485 914 553 884 523 914 b 416 843 446 914 416 882 b 483 774 416 806 443 774 l 485 774 m 500 672 b 544 398 515 638 544 524 b 366 86 544 205 483 86 b 214 272 293 86 214 137 l 214 546 b 194 672 214 619 207 657 l 78 672 b 93 446 90 635 93 562 l 93 255 b 357 -15 93 72 210 -15 b 664 410 600 -15 664 212 b 614 672 664 521 637 628 l 500 672 "},"й":{"x_min":98.609375,"x_max":672.21875,"ha":769,"o":"m 98 672 l 98 0 l 238 0 b 448 351 311 118 384 247 b 559 560 487 419 516 474 l 563 560 b 555 284 558 451 555 394 l 555 0 l 672 0 l 672 672 l 529 672 l 319 325 b 211 119 275 247 251 200 l 206 119 b 213 389 212 215 213 282 l 213 672 l 98 672 m 204 946 b 379 774 209 850 256 774 b 563 946 486 774 556 832 l 475 946 b 381 840 469 885 441 840 b 293 946 325 840 295 886 l 204 946 "},"b":{"x_min":95.828125,"x_max":737.515625,"ha":790,"o":"m 101 173 b 95 0 101 113 98 45 l 201 0 l 206 111 l 211 111 b 436 -15 261 22 338 -15 b 737 344 586 -15 737 104 b 454 688 738 549 620 688 b 225 564 345 688 268 639 l 222 564 l 222 986 l 101 986 l 101 173 m 222 390 b 229 440 222 410 226 426 b 415 590 254 533 331 590 b 615 340 545 590 615 475 b 411 82 615 186 538 82 b 227 225 322 82 251 140 b 222 269 225 239 222 254 l 222 390 "},"ύ":{"x_min":77.78125,"x_max":663.890625,"ha":728,"o":"m 377 954 l 304 756 l 386 756 l 501 954 l 377 954 m 500 672 b 544 398 515 638 544 524 b 366 86 544 205 483 86 b 213 272 293 86 213 137 l 213 546 b 194 672 213 619 206 657 l 77 672 b 93 446 90 635 93 562 l 93 255 b 356 -15 93 72 209 -15 b 663 410 600 -15 663 212 b 613 672 663 521 637 628 l 500 672 "},"ﬂ":{"x_min":19.4375,"x_max":625,"ha":726,"o":"m 234 0 l 234 579 l 391 579 l 391 672 l 234 672 l 234 706 b 404 907 234 814 276 907 b 504 889 451 907 483 900 l 504 0 l 625 0 l 625 957 b 423 1002 575 985 501 1002 b 208 934 330 1002 261 978 b 113 701 145 878 113 795 l 113 672 l 19 672 l 19 579 l 113 579 l 113 0 l 234 0 "},"":{"x_min":15.28125,"x_max":676.390625,"ha":699,"o":"m 550 0 l 550 246 l 676 246 l 676 341 l 550 341 l 550 903 l 418 903 l 15 326 l 15 246 l 434 246 l 434 0 l 550 0 m 138 341 l 138 344 l 359 651 b 434 785 384 693 406 732 l 438 785 b 434 643 436 738 434 690 l 434 341 l 138 341 "},"":{"x_min":105.5625,"x_max":308.328125,"ha":417,"o":"m 129 -308 b 308 -158 215 -303 308 -261 b 252 -57 308 -112 280 -75 l 162 -76 b 209 -159 187 -95 209 -127 b 105 -251 209 -215 159 -241 l 129 -308 "},"ф":{"x_min":52.78125,"x_max":838.890625,"ha":890,"o":"m 388 985 l 390 685 b 52 330 201 671 52 554 b 390 -13 52 121 195 -1 l 388 -275 l 502 -275 l 501 -12 b 838 337 688 0 838 116 b 501 685 838 547 697 671 l 502 985 l 388 985 m 390 71 b 173 335 256 87 173 196 b 390 602 173 472 254 583 l 390 71 m 501 602 b 718 337 636 582 718 476 b 501 71 718 200 636 89 l 501 602 "},"":{"x_min":18.984375,"x_max":1030.09375,"ha":1124,"o":"m 978 959 b 812 1002 942 984 873 1002 b 517 708 623 1002 517 886 l 517 672 l 234 672 l 234 696 b 278 853 234 756 245 817 b 366 888 299 875 327 888 b 450 864 398 888 430 877 l 484 954 b 366 985 459 968 412 985 b 193 920 291 985 232 959 b 113 696 135 863 113 779 l 113 672 l 18 672 l 18 579 l 113 579 l 113 0 l 234 0 l 234 579 l 517 579 l 517 0 l 639 0 l 639 579 l 907 579 l 907 107 b 862 -145 907 -54 895 -108 b 728 -197 832 -177 784 -193 l 741 -293 b 949 -216 806 -293 895 -271 b 1030 59 1009 -155 1030 -70 l 1030 672 l 638 672 l 638 706 b 806 903 638 813 677 903 b 942 867 862 903 912 886 l 978 959 "},"Ŋ":{"x_min":105.125,"x_max":807.90625,"ha":914,"o":"m 219 0 l 219 400 b 209 786 219 555 216 668 l 213 788 b 388 475 260 686 323 579 l 691 -8 b 514 -182 681 -107 625 -160 l 539 -277 b 807 52 717 -250 807 -146 l 807 936 l 694 936 l 694 544 b 707 159 694 398 696 284 l 705 158 b 537 462 660 254 606 352 l 237 936 l 105 936 l 105 0 l 219 0 "},"Ũ":{"x_min":104.171875,"x_max":794.453125,"ha":899,"o":"m 104 936 l 104 385 b 440 -15 104 94 248 -15 b 794 390 643 -15 794 102 l 794 936 l 672 936 l 672 382 b 444 83 672 175 583 83 b 226 382 319 83 226 172 l 226 936 l 104 936 m 341 993 b 377 1055 344 1031 355 1055 b 443 1028 397 1055 416 1042 b 527 1002 473 1013 498 1002 b 620 1137 591 1002 622 1049 l 556 1137 b 519 1082 552 1092 540 1082 b 452 1107 497 1082 475 1095 b 370 1135 423 1123 401 1135 b 276 993 309 1135 273 1078 l 341 993 "},"Щ":{"x_min":105.5625,"x_max":1154.171875,"ha":1200,"o":"m 105 936 l 105 0 l 1043 0 l 1050 -225 l 1145 -225 l 1154 95 l 1072 98 l 1072 936 l 951 936 l 951 101 l 648 101 l 648 936 l 529 936 l 529 101 l 225 101 l 225 936 l 105 936 "},"L":{"x_min":105.5625,"x_max":626.390625,"ha":656,"o":"m 105 0 l 626 0 l 626 101 l 226 101 l 226 936 l 105 936 l 105 0 "},"":{"x_min":66.671875,"x_max":665.28125,"ha":736,"o":"m 486 444 b 633 633 584 492 633 553 b 373 843 633 750 530 843 b 100 618 219 843 100 752 b 240 439 100 531 161 472 l 240 435 b 66 215 137 389 66 316 b 362 -15 66 80 187 -15 b 665 230 529 -15 665 80 b 486 440 665 329 591 403 l 486 444 m 372 760 b 519 628 447 760 519 715 b 384 478 519 550 459 500 b 218 628 280 505 218 553 b 370 760 218 708 287 760 l 372 760 m 363 72 b 188 227 255 72 188 137 b 343 398 188 304 251 368 b 540 219 469 365 540 307 b 365 72 540 132 462 72 l 363 72 "},";":{"x_min":41.296875,"x_max":251.015625,"ha":301,"o":"m 126 -162 b 239 165 159 -97 214 57 l 103 158 b 41 -170 95 59 64 -88 l 126 -162 m 164 448 b 251 539 217 448 251 489 b 164 632 251 593 217 632 b 78 539 114 632 78 593 b 163 448 78 489 113 448 l 164 448 "},"ď":{"x_min":52.765625,"x_max":887.5,"ha":797,"o":"m 559 986 l 559 584 l 556 584 b 354 687 526 638 456 687 b 52 326 190 687 51 550 b 340 -15 52 121 177 -15 b 569 116 450 -15 531 41 l 572 116 l 577 0 l 687 0 b 681 173 683 45 681 113 l 681 986 l 559 986 m 559 281 b 554 228 559 262 558 245 b 375 82 531 137 456 82 b 176 331 243 82 176 195 b 377 591 176 480 251 591 b 554 449 469 591 536 527 b 559 398 558 434 559 413 l 559 281 m 794 725 b 887 897 815 741 887 793 b 837 999 887 943 862 983 l 750 979 b 793 889 773 958 793 923 b 743 765 793 832 765 791 l 794 725 "},"":{"x_min":-45.5625,"x_max":466.9375,"ha":418,"o":"m 18 1002 b 85 1070 58 1002 85 1031 b 21 1138 85 1109 58 1138 b -45 1070 -16 1138 -45 1107 b 16 1002 -45 1032 -19 1002 l 18 1002 m 398 1002 b 466 1070 439 1002 466 1031 b 401 1138 466 1109 439 1138 b 335 1070 362 1138 335 1107 b 397 1002 335 1032 361 1002 l 398 1002 m 197 1150 l 85 988 l 178 988 l 339 1150 l 197 1150 "},"Ο":{"x_min":50,"x_max":905.5625,"ha":957,"o":"m 472 -15 b 905 478 709 -15 905 155 b 484 952 905 756 740 952 b 50 460 234 952 50 757 b 470 -15 50 176 223 -15 l 472 -15 m 476 83 b 179 462 286 83 177 265 b 479 853 177 665 277 853 b 777 472 680 853 777 658 b 477 83 777 259 669 83 l 476 83 "},"Ĭ":{"x_min":-5.5625,"x_max":338.890625,"ha":332,"o":"m 105 936 l 105 0 l 226 0 l 226 936 l 105 936 m -5 1144 b 165 996 -2 1060 47 996 b 338 1144 284 996 336 1062 l 268 1144 b 166 1075 261 1107 234 1075 b 66 1144 98 1075 73 1112 l -5 1144 "},"":{"x_min":18,"x_max":399,"ha":417,"o":"m 161 1145 l 18 986 l 116 986 l 205 1082 l 208 1082 l 297 986 l 399 986 l 254 1145 l 161 1145 "},"ŧ":{"x_min":25,"x_max":423.609375,"ha":460,"o":"m 423 579 l 423 672 l 248 672 l 248 834 l 129 796 l 129 672 l 25 672 l 25 579 l 129 579 l 129 419 l 36 419 l 36 344 l 129 344 l 129 212 b 176 37 129 133 141 73 b 308 -15 205 4 251 -15 b 416 2 355 -15 393 -6 l 411 94 b 340 86 393 88 373 86 b 248 211 275 86 248 130 l 248 344 l 384 344 l 384 419 l 248 419 l 248 579 l 423 579 "},"À":{"x_min":35,"x_max":818,"ha":850,"o":"m 588 294 l 688 0 l 818 0 l 498 936 l 352 936 l 35 0 l 159 0 l 257 294 l 588 294 m 282 389 l 373 660 b 420 829 391 717 407 774 l 423 829 b 472 658 437 775 451 720 l 563 389 l 282 389 m 223 1149 l 400 988 l 500 988 l 370 1149 l 223 1149 "},"Ϊ":{"x_min":-30.5625,"x_max":361.109375,"ha":332,"o":"m 38 988 b 105 1057 77 988 105 1021 b 38 1128 105 1098 76 1128 b -30 1057 0 1128 -30 1096 b 37 988 -30 1021 -2 988 l 38 988 m 293 988 b 361 1057 333 988 361 1021 b 294 1128 361 1098 331 1128 b 225 1057 254 1128 225 1096 b 291 988 225 1021 252 988 l 293 988 m 105 936 l 105 0 l 226 0 l 226 936 l 105 936 "},"½":{"x_min":40.28125,"x_max":986.109375,"ha":1054,"o":"m 255 369 l 255 911 l 169 911 l 40 850 l 55 778 l 155 827 l 158 827 l 158 369 l 255 369 m 243 -15 l 769 918 l 691 918 l 165 -15 l 243 -15 m 611 0 l 986 0 l 986 76 l 748 76 l 748 79 l 791 118 b 976 392 895 212 976 287 b 791 549 976 467 923 549 b 622 490 722 549 659 522 l 651 428 b 768 471 677 446 719 471 b 873 373 840 471 873 426 b 698 133 873 303 813 237 l 611 51 l 611 0 "},"":{"x_min":41.671875,"x_max":1347.21875,"ha":1389,"o":"m 41 499 l 41 415 l 1347 415 l 1347 499 l 41 499 "},"'":{"x_min":70.828125,"x_max":191.671875,"ha":261,"o":"m 70 961 l 93 628 l 168 628 l 191 961 l 70 961 "},"ĳ":{"x_min":86.109375,"x_max":577.828125,"ha":663,"o":"m 223 0 l 223 672 l 101 672 l 101 0 l 223 0 m 162 938 b 86 861 118 938 86 904 b 159 786 86 820 116 786 b 237 861 208 786 238 820 b 162 938 237 904 208 938 m 275 -293 b 483 -216 340 -293 429 -271 b 563 59 543 -155 563 -70 l 563 672 l 441 672 l 441 107 b 395 -145 441 -54 429 -108 b 262 -197 366 -177 318 -193 l 275 -293 m 504 938 b 426 861 458 938 426 904 b 501 786 426 821 455 786 b 577 861 550 786 579 821 b 504 938 577 904 548 938 "},"Р":{"x_min":105.5625,"x_max":681.953125,"ha":739,"o":"m 105 0 l 226 0 l 226 375 b 323 366 254 368 287 366 b 609 469 441 366 545 401 b 681 670 656 518 681 585 b 600 866 681 753 651 821 b 337 943 544 916 456 943 b 105 925 240 943 163 935 l 105 0 m 226 838 b 340 847 247 843 287 847 b 561 664 473 847 561 788 b 326 464 561 535 472 464 b 226 474 286 464 252 467 l 226 838 "},"˛":{"x_min":87.5,"x_max":329.171875,"ha":417,"o":"m 170 5 b 87 -165 137 -30 87 -97 b 218 -284 87 -243 140 -284 b 329 -252 252 -284 301 -275 l 309 -190 b 245 -202 293 -197 270 -202 b 176 -133 205 -202 176 -176 b 250 5 176 -80 229 -20 l 170 5 "},"":{"x_min":26.390625,"x_max":387.5,"ha":428,"o":"m 372 908 l 91 908 l 55 641 b 134 648 76 644 102 648 b 291 539 247 648 291 603 b 169 433 291 472 231 433 b 45 464 116 433 69 450 l 26 394 b 170 361 54 377 111 361 b 387 547 300 361 387 440 b 309 686 387 615 352 662 b 181 717 273 708 227 717 b 138 714 163 717 150 715 l 156 832 l 372 832 l 372 908 "},"⁷":{"x_min":25.96875,"x_max":391.25,"ha":408,"o":"m 25 1155 l 25 1078 l 292 1078 l 292 1077 l 55 615 l 153 615 l 391 1095 l 391 1155 l 25 1155 "},"Ć":{"x_min":50,"x_max":761.109375,"ha":806,"o":"m 734 126 b 537 87 686 102 611 87 b 177 464 309 87 177 234 b 543 850 177 710 323 850 b 731 811 620 850 686 834 l 761 910 b 538 952 729 927 655 952 b 50 460 248 952 50 753 b 512 -15 50 152 248 -15 b 759 30 626 -15 715 8 l 734 126 m 555 1152 l 426 989 l 526 989 l 702 1152 l 555 1152 "},"Т":{"x_min":-1.390625,"x_max":691.671875,"ha":690,"o":"m 283 0 l 405 0 l 405 834 l 691 834 l 691 936 l -1 936 l -1 834 l 283 834 l 283 0 "},"£":{"x_min":77.796875,"x_max":654.1875,"ha":713,"o":"m 654 0 l 654 101 l 240 101 l 240 104 b 336 254 287 144 320 194 b 341 410 348 304 345 357 l 530 410 l 530 497 l 330 497 b 313 646 322 542 313 586 b 466 820 313 745 358 820 b 590 792 525 820 565 806 l 618 884 b 466 918 588 902 538 918 b 200 647 312 918 200 811 b 215 497 200 593 208 539 l 86 497 l 86 410 l 229 410 b 236 312 234 373 236 346 b 77 69 236 208 170 116 l 77 0 l 654 0 "},"":{"x_min":48.65625,"x_max":388.921875,"ha":440,"o":"m 248 -70 l 248 13 b 388 159 340 29 388 91 b 252 312 388 234 345 279 b 147 398 175 341 147 361 b 231 462 147 429 168 462 b 345 432 288 462 327 443 l 368 500 b 252 531 343 514 304 529 l 252 608 l 190 608 l 190 526 b 56 387 106 512 56 458 b 202 240 56 311 111 273 b 297 151 268 215 297 193 b 201 80 297 109 259 80 b 72 118 151 80 105 97 l 48 47 b 186 11 80 27 133 11 l 186 -70 l 248 -70 "},"ẹ":{"x_min":52.953125,"x_max":646.015625,"ha":696,"o":"m 641 314 b 646 371 643 326 646 346 b 368 688 646 494 587 688 b 52 325 172 688 52 528 b 383 -15 52 122 176 -15 b 607 27 490 -15 564 8 l 586 115 b 400 80 540 95 487 80 b 169 314 277 80 172 148 l 641 314 m 171 401 b 358 600 180 486 234 600 b 527 401 496 600 529 479 l 171 401 m 348 -111 b 276 -182 308 -111 276 -143 b 346 -254 276 -221 307 -254 b 416 -182 387 -254 416 -221 b 348 -111 416 -143 386 -111 "},"ů":{"x_min":97.21875,"x_max":669.453125,"ha":765,"o":"m 383 746 b 522 874 462 746 522 800 b 384 1005 522 948 468 1005 b 243 872 297 1005 243 946 b 383 746 243 802 300 746 m 381 797 b 313 872 341 797 313 836 b 381 952 313 916 338 952 b 454 875 426 952 454 917 b 381 797 454 834 426 797 m 663 672 l 541 672 l 541 259 b 530 197 541 237 537 215 b 369 86 508 143 451 86 b 219 300 258 86 219 172 l 219 672 l 97 672 l 97 279 b 329 -15 97 43 223 -15 b 551 109 448 -15 519 55 l 554 109 l 561 0 l 669 0 b 663 183 665 52 663 113 l 663 672 "},"Ō":{"x_min":50,"x_max":905.5625,"ha":957,"o":"m 484 952 b 50 460 234 952 50 757 b 470 -15 50 176 223 -15 b 905 478 709 -15 905 155 b 484 952 905 756 740 952 m 479 853 b 777 472 680 853 777 658 b 477 83 777 259 669 83 b 179 462 287 83 179 262 b 479 853 179 668 279 853 m 312 1102 l 312 1025 l 644 1025 l 644 1102 l 312 1102 "},"":{"x_min":19.4375,"x_max":400,"ha":417,"o":"m 162 1145 l 19 986 l 119 986 l 206 1082 l 209 1082 l 298 986 l 400 986 l 255 1145 l 162 1145 m 109 1163 b 144 1219 111 1196 123 1219 b 205 1195 162 1219 177 1210 b 290 1166 234 1180 259 1166 b 384 1299 355 1166 386 1213 l 319 1299 b 281 1242 316 1255 302 1242 b 222 1264 263 1242 244 1253 b 136 1295 190 1283 166 1295 b 41 1163 77 1295 40 1242 l 109 1163 "},"а":{"x_min":48.90625,"x_max":585.015625,"ha":669,"o":"m 573 412 b 318 688 573 547 523 688 b 97 628 233 688 153 664 l 125 547 b 300 597 172 578 237 597 b 453 442 437 597 453 497 l 453 428 b 48 177 193 429 48 340 b 254 -15 48 80 118 -15 b 460 84 350 -15 422 31 l 464 84 l 473 0 l 585 0 b 573 161 576 45 573 102 l 573 412 m 455 226 b 448 187 455 214 453 200 b 286 75 429 130 373 75 b 171 191 223 75 171 112 b 455 343 171 322 322 346 l 455 226 "},"Ğ":{"x_min":49.953125,"x_max":818.015625,"ha":897,"o":"m 818 492 l 509 492 l 509 394 l 699 394 l 699 115 b 538 90 672 101 618 90 b 177 468 320 90 177 230 b 554 845 177 703 326 845 b 761 804 648 845 711 827 l 790 903 b 556 946 749 923 665 946 b 49 462 243 946 51 742 b 180 113 49 316 99 191 b 530 -9 272 26 388 -9 b 818 41 656 -9 763 22 l 818 492 m 319 1149 b 490 1002 322 1066 372 1002 b 663 1149 609 1002 661 1067 l 593 1149 b 491 1081 586 1113 559 1081 b 391 1149 423 1081 398 1117 l 319 1149 "},"ә":{"x_min":50,"x_max":641.671875,"ha":456,"o":"m 108 556 b 297 592 156 576 209 592 b 525 357 422 592 522 524 l 54 357 b 50 300 51 344 50 325 b 326 -15 50 176 106 -15 b 641 347 522 -15 641 144 b 312 688 641 549 518 688 b 87 642 205 688 130 663 l 108 556 m 523 269 b 336 73 513 184 462 73 b 166 269 200 73 165 193 l 523 269 "},"v":{"x_min":18,"x_max":654,"ha":668,"o":"m 18 672 l 273 0 l 390 0 l 654 672 l 526 672 l 395 294 b 338 122 373 233 354 177 l 334 122 b 280 294 320 177 302 233 l 148 672 l 18 672 "},"Ї":{"x_min":-29.171875,"x_max":363.890625,"ha":332,"o":"m 105 936 l 105 0 l 226 0 l 226 936 l 105 936 m 38 1002 b 105 1073 79 1002 105 1034 b 38 1142 105 1112 77 1142 b -29 1073 0 1142 -29 1110 b 37 1002 -29 1034 -2 1002 l 38 1002 m 295 1002 b 363 1073 337 1002 363 1034 b 297 1142 363 1112 336 1142 b 227 1073 256 1142 227 1110 b 294 1002 227 1034 255 1002 l 295 1002 "},"û":{"x_min":96.796875,"x_max":669.75,"ha":765,"o":"m 338 963 l 207 764 l 298 764 l 379 896 l 381 896 l 462 764 l 557 764 l 423 963 l 338 963 m 664 672 l 541 672 l 541 259 b 530 197 541 237 537 215 b 369 86 508 143 451 86 b 219 300 258 86 219 172 l 219 672 l 96 672 l 96 279 b 329 -15 96 43 223 -15 b 551 109 448 -15 519 55 l 554 109 l 561 0 l 669 0 b 664 183 665 52 664 113 l 664 672 "},"":{"x_min":26.390625,"x_max":387.5,"ha":428,"o":"m 372 538 l 91 538 l 55 271 b 134 278 76 274 102 278 b 291 169 247 278 291 233 b 169 63 291 102 231 63 b 45 94 116 63 69 80 l 26 24 b 170 -8 54 7 111 -8 b 387 177 300 -8 387 70 b 309 316 387 245 352 292 b 181 347 273 338 227 347 b 138 344 163 347 150 345 l 156 462 l 372 462 l 372 538 "},"Ź":{"x_min":41.859375,"x_max":725.203125,"ha":768,"o":"m 41 0 l 725 0 l 725 101 l 201 101 l 201 105 l 718 863 l 718 936 l 86 936 l 86 835 l 561 835 l 561 831 l 41 70 l 41 0 m 451 1149 l 322 986 l 422 986 l 598 1149 l 451 1149 "},"ˉ":{"x_min":52.78125,"x_max":365.28125,"ha":417,"o":"m 52 893 l 52 814 l 365 814 l 365 893 l 52 893 "},"Ĺ":{"x_min":106.015625,"x_max":626.84375,"ha":656,"o":"m 106 0 l 626 0 l 626 101 l 226 101 l 226 936 l 106 936 l 106 0 m 249 1149 l 119 986 l 219 986 l 396 1149 l 249 1149 "},"ỵ":{"x_min":12.5,"x_max":644.4375,"ha":654,"o":"m 12 672 l 261 52 b 269 20 266 37 269 27 b 259 -8 269 13 265 4 b 156 -144 231 -70 190 -118 b 50 -204 120 -175 80 -194 l 80 -307 b 230 -227 111 -301 170 -280 b 461 193 313 -155 373 -37 l 644 672 l 515 672 l 381 278 b 338 137 365 229 351 177 l 336 137 b 293 275 325 177 308 230 l 145 672 l 12 672 m 454 -111 b 381 -182 413 -111 381 -143 b 451 -254 381 -221 412 -254 b 522 -182 493 -254 522 -221 b 454 -111 522 -143 491 -111 "},"Č":{"x_min":50,"x_max":761.109375,"ha":806,"o":"m 734 126 b 537 87 686 102 611 87 b 177 464 309 87 177 234 b 543 850 177 710 323 850 b 731 811 620 850 686 834 l 761 910 b 538 952 729 927 655 952 b 50 460 248 952 50 753 b 512 -15 50 152 248 -15 b 759 30 626 -15 715 8 l 734 126 m 536 991 l 679 1149 l 579 1149 l 491 1053 l 488 1053 l 400 1149 l 297 1149 l 443 991 l 536 991 "},"x":{"x_min":11,"x_max":626,"ha":643,"o":"m 22 672 l 249 343 l 11 0 l 145 0 l 242 151 b 313 268 267 191 291 226 l 316 268 b 388 151 340 227 362 190 l 487 0 l 626 0 l 390 347 l 619 672 l 487 672 l 392 529 b 326 418 370 493 348 458 l 321 418 b 253 528 299 455 278 490 l 158 672 l 22 672 "},"":{"x_min":87.296875,"x_max":666.046875,"ha":736,"o":"m 666 0 l 666 97 l 259 97 l 259 100 b 348 261 310 134 346 189 b 345 307 348 275 346 292 l 536 307 l 536 384 l 329 384 b 320 469 324 410 320 439 b 471 644 320 576 370 644 b 596 615 527 644 571 630 l 623 705 b 471 740 592 723 540 740 b 203 470 311 740 203 630 b 215 384 203 442 209 413 l 95 384 l 95 307 l 230 307 b 236 245 234 286 236 266 b 87 68 236 171 179 107 l 87 0 l 666 0 "},"è":{"x_min":52.953125,"x_max":646.015625,"ha":696,"o":"m 187 963 l 357 764 l 443 764 l 322 963 l 187 963 m 641 314 b 646 371 643 326 646 346 b 368 688 646 494 587 688 b 52 325 172 688 52 528 b 383 -15 52 122 176 -15 b 607 27 490 -15 564 8 l 586 115 b 400 80 540 95 487 80 b 169 314 277 80 172 148 l 641 314 m 171 401 b 358 600 180 486 234 600 b 527 401 496 600 529 479 l 171 401 "},"Ń":{"x_min":105.125,"x_max":807.90625,"ha":914,"o":"m 219 0 l 219 399 b 209 786 219 555 216 668 l 213 788 b 388 475 260 686 323 579 l 685 0 l 807 0 l 807 936 l 694 936 l 694 544 b 707 159 694 398 696 284 l 705 158 b 537 462 660 253 606 352 l 237 936 l 105 936 l 105 0 l 219 0 m 514 1149 l 385 986 l 485 986 l 662 1149 l 514 1149 "},"":{"x_min":55.5625,"x_max":233.328125,"ha":250,"o":"m 162 590 b 55 252 112 524 55 415 b 162 -80 55 93 112 -13 l 233 -80 b 133 252 179 0 133 105 b 233 590 133 403 177 511 l 162 590 "},"μ":{"x_min":101.390625,"x_max":730.5625,"ha":768,"o":"m 559 104 b 679 -15 570 18 619 -15 b 720 -9 698 -15 706 -13 l 730 79 b 666 185 681 82 666 111 l 666 673 l 545 673 l 545 260 b 534 197 545 237 541 215 b 373 85 512 143 454 85 b 222 275 266 85 222 171 l 222 673 l 101 673 l 101 -27 b 120 -274 101 -134 106 -233 l 230 -274 b 215 -21 216 -219 215 -95 l 215 61 b 362 -12 244 10 301 -12 b 555 104 462 -12 527 51 l 559 104 "},".":{"x_min":72.21875,"x_max":237.5,"ha":288,"o":"m 154 -15 b 237 72 205 -15 237 22 b 155 159 237 123 204 159 b 72 72 106 159 72 123 b 152 -15 72 22 105 -15 l 154 -15 "},"‘":{"x_min":49.0625,"x_max":256,"ha":288,"o":"m 174 636 b 256 961 189 736 226 881 l 178 953 b 49 622 140 889 81 739 l 174 636 "},"π":{"x_min":18.0625,"x_max":736.109375,"ha":771,"o":"m 722 576 l 736 672 l 211 672 b 18 636 104 672 48 657 l 34 564 b 172 576 69 574 118 576 b 77 0 166 398 127 132 l 194 0 b 288 576 243 111 283 400 l 509 576 l 509 187 b 530 0 509 80 519 20 l 648 0 b 629 200 638 34 629 90 l 629 576 l 722 576 "},"Ỏ":{"x_min":50,"x_max":905.5625,"ha":957,"o":"m 484 952 b 50 460 234 952 50 757 b 470 -15 50 176 223 -15 b 905 478 709 -15 905 155 b 484 952 905 756 740 952 m 479 853 b 777 472 680 853 777 658 b 477 83 777 259 669 83 b 179 462 287 83 179 262 b 479 853 179 668 279 853 m 511 985 b 609 1135 547 1049 609 1064 b 494 1235 609 1192 558 1235 b 356 1142 423 1235 381 1192 l 404 1114 b 472 1163 419 1138 443 1163 b 518 1120 500 1163 518 1146 b 445 1003 518 1074 468 1063 l 511 985 "},"Ớ":{"x_min":50.265625,"x_max":943.34375,"ha":957,"o":"m 478 83 b 179 462 286 83 178 265 b 479 853 178 665 278 853 b 778 472 680 853 778 658 b 478 83 778 259 669 83 m 823 1028 b 846 939 836 1003 846 973 b 783 878 846 899 829 878 b 629 928 739 878 672 914 b 485 952 593 941 540 952 b 50 460 235 952 50 757 b 471 -15 50 176 223 -15 b 905 478 710 -15 905 155 b 797 809 905 624 860 736 b 943 932 897 799 943 856 b 918 1046 943 979 932 1016 l 823 1028 m 546 1149 l 416 986 l 516 986 l 693 1149 l 546 1149 "},"9":{"x_min":56.671875,"x_max":663.609375,"ha":713,"o":"m 133 -14 b 245 -7 162 -15 201 -14 b 508 113 342 3 438 45 b 663 537 596 199 663 338 b 365 918 663 768 549 918 b 56 597 180 918 56 768 b 323 320 56 443 160 320 b 535 418 413 320 485 356 l 540 418 b 420 177 523 311 480 231 b 231 90 369 128 302 99 b 133 85 190 85 159 83 l 133 -14 m 355 825 b 540 552 483 825 540 707 b 528 508 540 533 535 519 b 351 413 496 454 433 413 b 177 605 245 413 177 493 b 353 825 177 733 251 825 l 355 825 "},"":{"x_min":29.171875,"x_max":151.390625,"ha":182,"o":"m 90 361 b 151 423 127 361 151 389 b 91 486 151 461 127 486 b 29 423 55 486 29 461 b 88 361 29 389 54 361 l 90 361 "},"l":{"x_min":101.390625,"x_max":223.609375,"ha":328,"o":"m 101 0 l 223 0 l 223 986 l 101 986 l 101 0 "},"Ẫ":{"x_min":34.984375,"x_max":818.3125,"ha":850,"o":"m 589 294 l 689 0 l 818 0 l 498 936 l 353 936 l 34 0 l 159 0 l 257 294 l 589 294 m 282 389 l 373 660 b 421 829 391 717 407 774 l 423 829 b 472 658 437 775 451 720 l 564 389 l 282 389 m 380 1145 l 237 986 l 337 986 l 425 1082 l 428 1082 l 516 986 l 618 986 l 473 1145 l 380 1145 m 328 1163 b 362 1219 329 1196 341 1219 b 423 1195 380 1219 396 1210 b 508 1166 453 1180 478 1166 b 603 1299 573 1166 604 1213 l 537 1299 b 500 1242 534 1255 521 1242 b 440 1264 482 1242 462 1253 b 354 1295 408 1283 384 1295 b 259 1163 296 1295 258 1242 l 328 1163 "},"":{"x_min":40,"x_max":550,"ha":582,"o":"m 322 710 l 223 710 l 40 454 l 223 198 l 322 198 l 135 454 l 322 710 m 550 710 l 451 710 l 267 454 l 451 198 l 550 198 l 363 454 l 550 710 "},"Ъ":{"x_min":-2.78125,"x_max":822.21875,"ha":876,"o":"m -2 936 l -2 836 l 237 836 l 237 2 b 423 -8 277 -2 341 -8 b 750 101 548 -8 672 19 b 822 301 794 148 822 214 b 470 593 822 505 651 593 b 358 586 434 593 386 590 l 358 936 l -2 936 m 358 490 b 455 497 387 494 423 497 b 694 296 577 497 694 442 b 454 86 694 154 588 86 b 358 93 415 86 384 87 l 358 490 "},"Ś":{"x_min":58.203125,"x_max":624.875,"ha":685,"o":"m 58 45 b 297 -15 108 12 206 -15 b 624 255 517 -15 624 111 b 385 531 624 393 544 469 b 199 711 256 581 199 624 b 376 852 199 775 248 852 b 554 807 460 852 523 824 l 587 906 b 380 952 545 929 476 952 b 77 697 198 952 77 843 b 324 432 77 565 172 486 b 501 246 451 383 501 333 b 305 86 501 151 429 86 b 88 147 222 86 142 113 l 58 45 m 415 1153 l 285 991 l 385 991 l 562 1153 l 415 1153 "},"Ü":{"x_min":104.171875,"x_max":794.453125,"ha":899,"o":"m 104 936 l 104 385 b 440 -15 104 94 248 -15 b 794 390 643 -15 794 102 l 794 936 l 672 936 l 672 382 b 444 83 672 175 583 83 b 226 382 319 83 226 172 l 226 936 l 104 936 m 325 1002 b 391 1073 365 1002 391 1034 b 325 1142 391 1112 363 1142 b 256 1073 286 1142 256 1110 b 323 1002 256 1034 283 1002 l 325 1002 m 581 1002 b 650 1073 623 1002 650 1034 b 583 1142 650 1112 622 1142 b 513 1073 543 1142 513 1110 b 580 1002 513 1034 541 1002 l 581 1002 "},"à":{"x_min":48.90625,"x_max":584.96875,"ha":669,"o":"m 132 963 l 301 764 l 387 764 l 266 963 l 132 963 m 573 412 b 318 688 573 547 523 688 b 97 628 233 688 153 664 l 125 547 b 300 597 172 578 237 597 b 453 442 437 597 453 497 l 453 428 b 48 177 193 429 48 340 b 254 -15 48 80 118 -15 b 459 84 350 -15 422 31 l 464 84 l 473 0 l 584 0 b 573 161 576 45 573 102 l 573 412 m 455 226 b 448 187 455 214 453 200 b 286 75 429 130 373 75 b 171 191 223 75 171 112 b 455 343 171 322 322 346 l 455 226 "},"η":{"x_min":81.9375,"x_max":687.5,"ha":771,"o":"m 211 561 b 191 672 211 604 204 646 l 81 672 b 101 490 97 626 101 558 l 101 0 l 223 0 l 223 404 b 231 461 223 425 226 446 b 395 586 252 529 315 586 b 551 387 511 586 551 496 l 551 -29 b 572 -275 551 -118 555 -233 l 687 -275 b 673 -25 673 -219 673 -102 l 673 401 b 436 688 673 632 529 688 b 213 561 325 688 247 625 l 211 561 "},"ó":{"x_min":52.78125,"x_max":709.71875,"ha":763,"o":"m 429 963 l 306 764 l 394 764 l 563 963 l 429 963 m 386 688 b 52 330 200 688 52 556 b 375 -15 52 118 193 -15 b 709 341 537 -15 709 93 b 386 688 709 547 579 688 m 383 596 b 584 337 527 596 584 451 b 380 76 584 186 497 76 b 176 335 261 76 176 187 b 383 596 176 462 238 596 "},"":{"x_min":9.71875,"x_max":573.609375,"ha":625,"o":"m 9 45 b 244 -15 54 16 143 -15 b 573 255 461 -15 573 111 b 372 487 573 382 483 465 l 372 490 b 538 703 483 531 538 610 b 280 918 538 813 458 918 b 44 849 183 918 91 884 l 76 760 b 256 820 115 788 184 820 b 415 683 369 820 415 756 b 213 531 415 576 302 531 l 145 531 l 145 439 l 213 439 b 447 258 331 439 445 385 b 243 83 448 183 400 83 b 43 140 158 83 77 118 l 9 45 "},"₀":{"x_min":31.9375,"x_max":434.71875,"ha":467,"o":"m 230 -211 b 434 70 366 -211 434 -98 b 236 344 434 239 363 344 b 31 65 111 344 31 237 b 229 -211 31 -107 108 -211 l 230 -211 m 231 -140 b 129 69 169 -140 129 -65 b 233 273 129 198 170 273 b 337 69 302 273 337 198 b 233 -140 337 -62 301 -140 l 231 -140 "},"¦":{"x_min":119.4375,"x_max":212.5,"ha":332,"o":"m 119 241 l 119 -244 l 212 -244 l 212 241 l 119 241 m 119 936 l 119 450 l 212 450 l 212 936 l 119 936 "},"":{"x_min":75.015625,"x_max":663.984375,"ha":736,"o":"m 284 314 l 311 515 l 454 515 l 429 314 l 284 314 m 241 -4 l 272 232 l 416 232 l 384 -4 l 468 -4 l 500 232 l 632 232 l 632 314 l 512 314 l 537 515 l 663 515 l 663 597 l 550 597 l 579 827 l 497 827 l 466 597 l 322 597 l 352 827 l 270 827 l 240 597 l 108 597 l 108 515 l 227 515 l 201 314 l 75 314 l 75 232 l 188 232 l 158 -4 l 241 -4 "},"Ỷ":{"x_min":18.0625,"x_max":750,"ha":751,"o":"m 436 0 l 436 398 l 750 936 l 612 936 l 477 678 b 383 485 441 607 409 546 l 380 485 b 287 678 351 550 323 607 l 155 936 l 18 936 l 313 397 l 313 0 l 436 0 m 409 985 b 508 1135 445 1049 508 1064 b 393 1235 508 1192 456 1235 b 255 1142 322 1235 280 1192 l 302 1114 b 370 1163 318 1138 341 1163 b 416 1120 398 1163 416 1146 b 344 1003 416 1074 366 1063 l 409 985 "},"Ő":{"x_min":50,"x_max":905.5625,"ha":957,"o":"m 484 952 b 50 460 234 952 50 757 b 470 -15 50 176 223 -15 b 905 478 709 -15 905 155 b 484 952 905 756 740 952 m 479 853 b 777 472 680 853 777 658 b 477 83 777 259 669 83 b 179 462 287 83 179 262 b 479 853 179 668 279 853 m 443 1153 l 331 998 l 420 998 l 575 1153 l 443 1153 m 647 1153 l 536 998 l 625 998 l 780 1153 l 647 1153 "},"":{"x_min":25,"x_max":240.28125,"ha":265,"o":"m 25 84 l 25 18 l 240 18 l 240 84 l 25 84 "},"Ž":{"x_min":41.921875,"x_max":725.0625,"ha":768,"o":"m 41 0 l 725 0 l 725 101 l 201 101 l 201 105 l 718 863 l 718 936 l 86 936 l 86 835 l 561 835 l 561 831 l 41 70 l 41 0 m 444 986 l 587 1145 l 487 1145 l 400 1049 l 397 1049 l 308 1145 l 205 1145 l 351 986 l 444 986 "},"е":{"x_min":52.953125,"x_max":646.015625,"ha":696,"o":"m 641 314 b 646 371 643 326 646 346 b 368 688 646 494 587 688 b 52 325 172 688 52 528 b 383 -15 52 122 176 -15 b 607 27 490 -15 564 8 l 586 115 b 400 80 540 95 487 80 b 169 314 277 80 172 148 l 641 314 m 171 401 b 358 600 180 486 234 600 b 527 401 496 600 529 479 l 171 401 "},"Î":{"x_min":-23.609375,"x_max":356.9375,"ha":332,"o":"m 105 936 l 105 0 l 226 0 l 226 936 l 105 936 m 119 1145 l -23 986 l 75 986 l 163 1082 l 166 1082 l 255 986 l 356 986 l 212 1145 l 119 1145 "},"e":{"x_min":52.953125,"x_max":646.015625,"ha":696,"o":"m 641 314 b 646 371 643 326 646 346 b 368 688 646 494 587 688 b 52 325 172 688 52 528 b 383 -15 52 122 176 -15 b 607 27 490 -15 564 8 l 586 115 b 400 80 540 95 487 80 b 169 314 277 80 172 148 l 641 314 m 171 401 b 358 600 180 486 234 600 b 527 401 496 600 529 479 l 171 401 "},"ό":{"x_min":52.78125,"x_max":709.71875,"ha":763,"o":"m 401 953 l 327 754 l 408 754 l 525 953 l 401 953 m 376 -15 b 709 341 537 -15 709 93 b 386 688 709 547 579 688 b 52 330 200 688 52 556 b 375 -15 52 118 193 -15 l 376 -15 m 379 76 b 176 335 261 76 176 187 b 383 596 176 462 238 596 b 584 337 527 596 584 451 b 380 76 584 186 497 76 l 379 76 "},"":{"x_min":12.5,"x_max":390.28125,"ha":424,"o":"m 62 440 b 180 476 84 455 130 476 b 268 408 243 476 268 442 b 141 319 266 343 193 319 l 102 319 l 102 255 l 140 255 b 287 158 213 255 287 227 b 166 65 288 115 251 65 b 37 101 113 65 59 86 l 12 31 b 170 -6 43 11 104 -6 b 390 155 312 -6 390 69 b 261 290 390 226 337 279 l 261 293 b 368 418 327 315 368 362 b 198 549 368 485 318 549 b 38 505 130 549 70 526 l 62 440 "},"":{"x_min":25.015625,"x_max":562.515625,"ha":594,"o":"m 562 673 l 25 673 l 25 572 l 437 572 l 437 569 b 55 -136 363 374 169 27 l 169 -159 b 562 595 309 59 476 369 l 562 673 "},"Ề":{"x_min":106.109375,"x_max":632.5,"ha":683,"o":"m 590 539 l 226 539 l 226 835 l 611 835 l 611 936 l 106 936 l 106 0 l 632 0 l 632 101 l 226 101 l 226 439 l 590 439 l 590 539 m 401 1224 l 553 1078 l 628 1078 l 528 1224 l 401 1224 m 314 1145 l 186 986 l 281 986 l 357 1084 l 360 1084 l 436 986 l 533 986 l 403 1145 l 314 1145 "},"Ĕ":{"x_min":105.5625,"x_max":631.9375,"ha":683,"o":"m 590 539 l 226 539 l 226 835 l 611 835 l 611 936 l 105 936 l 105 0 l 631 0 l 631 101 l 226 101 l 226 439 l 590 439 l 590 539 m 180 1146 b 351 999 183 1063 233 999 b 525 1146 470 999 522 1064 l 454 1146 b 352 1078 447 1110 420 1078 b 252 1146 284 1078 259 1114 l 180 1146 "},"ļ":{"x_min":48.21875,"x_max":250.984375,"ha":328,"o":"m 100 0 l 223 0 l 223 986 l 100 986 l 100 0 m 71 -308 b 250 -158 157 -303 250 -261 b 195 -57 250 -113 223 -75 l 105 -76 b 152 -159 130 -95 152 -127 b 48 -251 152 -215 102 -243 l 71 -308 "},"ị":{"x_min":86.109375,"x_max":237.546875,"ha":325,"o":"m 223 0 l 223 672 l 101 672 l 101 0 l 223 0 m 162 938 b 86 861 118 938 86 904 b 159 786 86 820 116 786 b 237 861 208 786 238 820 b 162 938 237 904 208 938 m 162 -111 b 90 -182 122 -111 90 -143 b 159 -254 90 -221 120 -254 b 230 -182 201 -254 230 -221 b 162 -111 230 -143 200 -111 "},"":{"x_min":48.65625,"x_max":388.921875,"ha":440,"o":"m 248 300 l 248 385 b 388 531 340 400 388 462 b 252 683 388 606 345 650 b 147 770 175 713 147 732 b 231 834 147 800 168 834 b 345 803 288 834 327 814 l 368 871 b 252 902 343 885 304 900 l 252 979 l 190 979 l 190 897 b 56 758 106 884 56 829 b 202 611 56 682 111 644 b 297 522 268 586 297 564 b 201 451 297 480 259 451 b 72 489 151 451 105 468 l 48 418 b 186 382 80 398 133 382 l 186 300 l 248 300 "},"Ѓ":{"x_min":105.5625,"x_max":602.78125,"ha":601,"o":"m 105 936 l 105 0 l 226 0 l 226 835 l 602 835 l 602 936 l 105 936 m 393 1149 l 263 986 l 363 986 l 540 1149 l 393 1149 "},"ò":{"x_min":52.78125,"x_max":709.71875,"ha":763,"o":"m 201 963 l 370 764 l 456 764 l 336 963 l 201 963 m 386 688 b 52 330 200 688 52 556 b 375 -15 52 118 193 -15 b 709 341 537 -15 709 93 b 386 688 709 547 579 688 m 383 596 b 584 337 527 596 584 451 b 380 76 584 186 497 76 b 176 335 261 76 176 187 b 383 596 176 462 238 596 "},"ﬄ":{"x_min":19.4375,"x_max":1030.5625,"ha":1132,"o":"m 484 959 b 373 985 463 970 418 985 b 191 917 297 985 234 960 b 113 688 133 860 113 774 l 113 672 l 19 672 l 19 579 l 113 579 l 113 0 l 234 0 l 234 579 l 518 579 l 518 0 l 640 0 l 640 579 l 797 579 l 797 672 l 638 672 l 638 706 b 808 907 638 814 681 907 b 909 889 856 907 887 900 l 909 0 l 1030 0 l 1030 957 b 829 1002 979 985 906 1002 b 613 934 734 1002 665 978 b 518 701 551 878 518 795 l 518 672 l 234 672 l 234 697 b 279 852 234 760 245 817 b 369 888 300 875 329 888 b 452 867 398 888 427 881 l 484 959 "},"^":{"x_min":83,"x_max":744,"ha":828,"o":"m 744 262 l 456 903 l 370 903 l 83 262 l 180 262 l 412 802 l 414 802 l 646 262 l 744 262 "},"":{"x_min":84.71875,"x_max":611.109375,"ha":736,"o":"m 84 -132 b 261 -159 116 -144 188 -159 b 611 105 448 -159 611 -54 b 406 307 611 223 516 291 l 406 309 b 570 503 501 337 570 408 b 329 689 570 618 470 689 b 106 626 237 689 150 656 l 131 546 b 302 593 165 564 231 593 b 448 482 393 593 448 557 b 222 335 448 396 351 344 l 195 333 l 198 243 b 275 246 215 244 243 246 b 486 104 402 246 486 191 b 251 -63 486 2 388 -63 b 100 -40 193 -63 134 -52 l 84 -132 "},"∙":{"x_min":61.078125,"x_max":226.390625,"ha":288,"o":"m 143 278 b 226 365 193 278 226 315 b 144 453 225 417 193 453 b 61 365 95 453 61 415 b 141 278 59 315 94 278 l 143 278 "},"к":{"x_min":101.390625,"x_max":658.328125,"ha":665,"o":"m 101 672 l 101 0 l 222 0 l 222 296 l 245 296 b 468 137 359 296 422 246 b 530 0 488 82 512 29 l 658 0 b 586 164 627 54 604 119 b 359 368 533 284 468 357 l 652 672 l 504 672 l 251 380 l 222 380 l 222 672 l 101 672 "},"":{"x_min":88.890625,"x_max":366.671875,"ha":394,"o":"m 270 1018 b 88 450 183 902 90 724 b 270 -113 88 179 183 1 l 366 -113 b 191 450 268 25 191 202 b 366 1018 191 701 265 882 l 270 1018 "},"ū":{"x_min":97.21875,"x_max":669.453125,"ha":765,"o":"m 226 893 l 226 814 l 538 814 l 538 893 l 226 893 m 663 672 l 541 672 l 541 259 b 530 197 541 237 537 215 b 369 86 508 143 451 86 b 219 300 258 86 219 172 l 219 672 l 97 672 l 97 279 b 329 -15 97 43 223 -15 b 551 109 448 -15 519 55 l 554 109 l 561 0 l 669 0 b 663 183 665 52 663 113 l 663 672 "},"ˆ":{"x_min":35,"x_max":384,"ha":417,"o":"m 165 963 l 35 764 l 125 764 l 206 896 l 208 896 l 289 764 l 384 764 l 250 963 l 165 963 "},"Ẅ":{"x_min":20.828125,"x_max":1163.890625,"ha":1175,"o":"m 384 0 l 518 487 b 590 793 552 608 573 700 l 593 793 b 654 487 605 699 625 607 l 772 0 l 898 0 l 1163 936 l 1040 936 l 916 464 b 841 140 887 347 861 243 l 838 140 b 773 461 825 239 800 350 l 659 936 l 533 936 l 408 464 b 331 139 376 343 347 232 l 329 139 b 259 462 312 229 287 346 l 148 936 l 20 936 l 258 0 l 384 0 m 463 1002 b 530 1073 504 1002 530 1034 b 463 1142 530 1112 502 1142 b 395 1073 425 1142 395 1110 b 462 1002 395 1034 422 1002 l 463 1002 m 720 1002 b 788 1073 762 1002 788 1034 b 722 1142 788 1112 761 1142 b 652 1073 681 1142 652 1110 b 719 1002 652 1034 680 1002 l 720 1002 "},"":{"x_min":40,"x_max":387,"ha":417,"o":"m 40 1245 l 195 1099 l 270 1099 l 167 1245 l 40 1245 m 41 1114 b 212 971 51 1038 103 971 b 387 1114 321 971 378 1041 l 323 1114 b 213 1046 312 1077 284 1046 b 108 1114 145 1046 116 1081 l 41 1114 "},"č":{"x_min":52.78125,"x_max":583.328125,"ha":622,"o":"m 408 764 l 538 963 l 447 963 l 365 831 l 362 831 l 280 963 l 186 963 l 319 764 l 408 764 m 559 116 b 409 83 525 101 479 83 b 176 335 276 83 176 179 b 413 589 176 475 259 589 b 555 557 480 589 526 574 l 583 651 b 413 686 550 668 486 686 b 52 329 194 686 52 536 b 387 -15 52 123 184 -15 b 580 25 477 -15 548 8 l 559 116 "},"’":{"x_min":47,"x_max":255.328125,"ha":288,"o":"m 128 948 b 47 624 113 849 77 704 l 124 632 b 255 961 163 696 223 846 l 128 948 "},"Ν":{"x_min":105.125,"x_max":807.90625,"ha":914,"o":"m 219 0 l 219 399 b 209 786 219 555 216 668 l 213 788 b 388 475 260 686 323 579 l 685 0 l 807 0 l 807 936 l 694 936 l 694 544 b 707 159 694 398 696 284 l 705 158 b 537 462 660 253 606 352 l 237 936 l 105 936 l 105 0 l 219 0 "},"-":{"x_min":41.671875,"x_max":384.71875,"ha":426,"o":"m 41 421 l 41 330 l 384 330 l 384 421 l 41 421 "},"Q":{"x_min":50,"x_max":912.5,"ha":957,"o":"m 912 -36 b 638 23 833 -22 731 0 l 638 29 b 905 478 794 83 905 237 b 486 952 905 754 740 952 b 50 458 233 952 50 758 b 462 -15 50 157 240 -6 b 519 -29 480 -15 500 -22 b 877 -137 627 -66 751 -104 l 912 -36 m 476 83 b 179 461 287 83 177 262 b 481 853 177 664 277 853 b 777 472 680 853 777 660 b 477 83 777 258 669 83 l 476 83 "},"ȝ":{"x_min":27.78125,"x_max":555.5625,"ha":593,"o":"m 61 -290 b 555 79 383 -264 555 -101 b 340 297 555 201 468 283 l 340 301 b 487 496 427 336 487 404 b 254 688 487 613 394 688 b 27 619 163 688 79 653 l 52 539 b 225 592 86 557 154 592 b 369 475 313 592 369 547 b 112 283 369 373 261 318 l 130 196 b 252 216 168 207 213 216 b 430 65 376 216 430 147 b 48 -196 430 -150 101 -191 l 61 -290 "},"ј":{"x_min":-62.5,"x_max":252.828125,"ha":338,"o":"m -50 -293 b 158 -216 15 -293 104 -271 b 238 59 218 -155 238 -70 l 238 672 l 116 672 l 116 107 b 70 -145 116 -54 104 -108 b -62 -197 41 -177 -6 -193 l -50 -293 m 179 938 b 101 861 133 938 101 904 b 176 786 101 821 130 786 b 252 861 225 786 254 821 b 179 938 252 904 223 938 "},"ě":{"x_min":53,"x_max":646.015625,"ha":696,"o":"m 397 764 l 528 963 l 436 963 l 354 831 l 351 831 l 269 963 l 175 963 l 308 764 l 397 764 m 641 314 b 646 371 643 326 646 346 b 368 688 646 494 587 688 b 53 325 172 688 53 528 b 383 -15 53 122 176 -15 b 607 27 490 -15 564 8 l 586 115 b 400 80 540 95 487 80 b 169 314 278 80 172 148 l 641 314 m 171 401 b 358 600 180 486 234 600 b 528 401 496 600 529 479 l 171 401 "},"œ":{"x_min":53.1875,"x_max":1149.015625,"ha":1199,"o":"m 1144 315 b 1149 372 1147 328 1149 348 b 876 688 1149 492 1092 688 b 632 526 772 688 682 633 l 629 526 b 375 688 587 629 489 688 b 53 332 194 688 53 550 b 367 -15 53 119 189 -15 b 626 143 471 -15 576 34 l 630 143 b 896 -15 683 33 779 -15 b 1114 30 969 -15 1060 0 l 1092 118 b 911 80 1046 98 994 80 b 687 315 783 80 689 162 l 1144 315 m 376 596 b 574 336 515 596 574 464 b 376 76 574 182 494 76 b 176 335 260 76 176 189 b 375 596 176 450 229 596 l 376 596 m 687 403 b 867 599 694 487 746 599 b 1030 403 1000 599 1032 478 l 687 403 "},"":{"x_min":58.328125,"x_max":624.875,"ha":472,"o":"m 58 45 b 293 -15 111 11 212 -15 b 302 -15 295 -15 299 -15 l 247 -112 b 355 -170 312 -119 355 -136 b 297 -215 355 -201 327 -215 b 220 -194 268 -215 243 -207 l 200 -254 b 297 -278 223 -268 259 -278 b 440 -166 372 -278 440 -246 b 343 -69 440 -115 395 -76 l 381 -6 b 624 255 545 22 624 132 b 386 531 624 393 544 469 b 200 711 256 581 200 624 b 376 852 200 775 248 852 b 554 807 461 852 523 824 l 587 906 b 380 952 545 929 476 952 b 77 697 198 952 77 843 b 324 432 77 565 172 486 b 501 246 451 383 501 333 b 305 86 501 151 429 86 b 88 147 222 86 143 113 l 58 45 "},"":{"x_min":33.328125,"x_max":422.21875,"ha":456,"o":"m 231 549 b 52 403 130 549 52 489 b 138 282 52 354 80 309 l 138 279 b 33 140 73 251 33 207 b 225 -6 33 63 100 -6 b 422 152 340 -6 422 57 b 313 289 422 219 376 265 l 313 291 b 401 414 376 319 401 368 b 233 549 401 482 345 549 l 231 549 m 227 58 b 126 151 163 58 126 102 b 218 251 126 197 159 234 b 327 145 283 233 327 205 b 229 58 327 95 288 58 l 227 58 m 229 485 b 313 404 288 485 313 443 b 237 316 313 360 280 329 b 140 407 177 332 140 358 b 227 485 140 448 170 485 l 229 485 "},"Ộ":{"x_min":50,"x_max":905.5625,"ha":957,"o":"m 484 952 b 50 460 234 952 50 757 b 470 -15 50 176 223 -15 b 905 478 709 -15 905 155 b 484 952 905 756 740 952 m 479 853 b 777 472 680 853 777 658 b 477 83 777 259 669 83 b 179 462 287 83 179 262 b 479 853 179 668 279 853 m 430 1145 l 287 986 l 386 986 l 475 1082 l 477 1082 l 566 986 l 668 986 l 523 1145 l 430 1145 m 479 -251 b 547 -180 518 -251 547 -216 b 480 -111 547 -144 518 -111 b 409 -180 440 -111 409 -144 b 477 -251 409 -216 440 -251 l 479 -251 "},"Ậ":{"x_min":34.71875,"x_max":818.0625,"ha":850,"o":"m 588 294 l 688 0 l 818 0 l 498 936 l 352 936 l 34 0 l 159 0 l 256 294 l 588 294 m 281 389 l 373 660 b 420 829 391 717 406 774 l 423 829 b 472 658 437 775 451 720 l 563 389 l 281 389 m 381 1145 l 238 986 l 337 986 l 426 1082 l 429 1082 l 518 986 l 619 986 l 475 1145 l 381 1145 m 419 -251 b 487 -180 458 -251 487 -216 b 420 -111 487 -144 458 -111 b 350 -180 380 -111 350 -144 b 418 -251 350 -216 380 -251 l 419 -251 "},"#":{"x_min":51.015625,"x_max":639.984375,"ha":690,"o":"m 260 354 l 287 556 l 431 556 l 405 354 l 260 354 m 212 0 l 248 272 l 392 272 l 356 0 l 439 0 l 476 272 l 608 272 l 608 354 l 488 354 l 513 556 l 639 556 l 639 638 l 526 638 l 560 903 l 478 903 l 442 638 l 298 638 l 333 903 l 252 903 l 216 638 l 84 638 l 84 556 l 203 556 l 177 354 l 51 354 l 51 272 l 164 272 l 128 0 l 212 0 "},"Џ":{"x_min":105.5625,"x_max":779.171875,"ha":882,"o":"m 105 936 l 105 0 l 381 0 l 391 -241 l 491 -241 l 502 0 l 779 0 l 779 936 l 658 936 l 658 101 l 226 101 l 226 936 l 105 936 "},"":{"x_min":-3,"x_max":273,"ha":417,"o":"m -3 1149 l 173 988 l 273 988 l 144 1149 l -3 1149 "},"Å":{"x_min":34.71875,"x_max":818.0625,"ha":850,"o":"m 588 294 l 688 0 l 818 0 l 498 936 l 352 936 l 34 0 l 159 0 l 256 294 l 588 294 m 281 389 l 373 660 b 420 829 391 717 406 774 l 423 829 b 472 658 437 775 451 720 l 563 389 l 281 389 m 429 1221 b 288 1095 343 1221 288 1164 b 429 973 288 1027 344 973 b 566 1095 509 973 566 1025 b 430 1221 566 1166 513 1221 l 429 1221 m 426 1170 b 494 1096 468 1170 494 1137 b 426 1024 494 1056 468 1024 b 361 1095 387 1024 361 1059 b 425 1170 361 1135 384 1170 l 426 1170 "},"ș":{"x_min":53.734375,"x_max":494.015625,"ha":550,"o":"m 53 31 b 242 -15 100 4 169 -15 b 494 187 402 -15 494 69 b 317 390 494 287 434 346 b 189 504 230 423 189 448 b 302 596 189 554 230 596 b 439 557 364 596 413 574 l 470 646 b 305 688 432 668 373 688 b 73 490 160 688 73 599 b 250 300 73 410 130 343 b 375 176 341 266 375 234 b 245 76 375 120 334 76 b 84 125 184 76 120 101 l 53 31 m 188 -308 b 367 -158 274 -303 367 -261 b 312 -57 367 -113 339 -75 l 221 -76 b 269 -159 246 -95 269 -127 b 164 -251 269 -215 219 -243 l 188 -308 "},"₈":{"x_min":33.328125,"x_max":422.21875,"ha":456,"o":"m 231 344 b 52 198 130 344 52 284 b 138 77 52 150 80 105 l 138 75 b 33 -63 73 47 33 2 b 225 -211 33 -140 100 -211 b 422 -51 340 -211 422 -147 b 313 84 422 15 376 61 l 313 87 b 401 209 376 115 401 164 b 233 344 401 278 345 344 l 231 344 m 227 -145 b 126 -52 163 -145 126 -101 b 218 47 126 -6 159 30 b 327 -58 283 29 327 1 b 229 -145 327 -108 288 -145 l 227 -145 m 229 280 b 313 200 288 280 313 239 b 237 112 313 155 280 125 b 140 202 177 127 140 154 b 227 280 140 244 170 280 l 229 280 "},"¸":{"x_min":76.390625,"x_max":315.28125,"ha":417,"o":"m 188 1 l 123 -113 b 231 -172 188 -119 230 -136 b 172 -216 231 -205 202 -216 b 97 -196 147 -216 119 -209 l 76 -255 b 170 -279 100 -269 136 -279 b 315 -166 247 -279 315 -248 b 218 -70 315 -113 269 -77 l 263 1 l 188 1 "},"=":{"x_min":55.5625,"x_max":772.21875,"ha":828,"o":"m 772 468 l 772 551 l 55 551 l 55 468 l 772 468 m 772 196 l 772 279 l 55 279 l 55 196 l 772 196 "},"ạ":{"x_min":48.90625,"x_max":585.015625,"ha":669,"o":"m 573 412 b 318 688 573 547 523 688 b 97 628 233 688 153 664 l 125 547 b 300 597 172 578 237 597 b 453 442 437 597 453 497 l 453 428 b 48 177 193 429 48 340 b 254 -15 48 80 118 -15 b 460 84 350 -15 422 31 l 464 84 l 473 0 l 585 0 b 573 161 576 45 573 102 l 573 412 m 455 226 b 448 187 455 214 453 200 b 286 75 429 130 373 75 b 171 191 223 75 171 112 b 455 343 171 322 322 346 l 455 226 m 335 -111 b 262 -182 294 -111 262 -143 b 332 -254 262 -221 293 -254 b 403 -182 373 -254 403 -221 b 335 -111 403 -143 372 -111 "},"ρ":{"x_min":94.4375,"x_max":729.171875,"ha":782,"o":"m 219 83 b 422 -15 258 20 334 -15 b 729 346 580 -15 729 108 b 422 688 729 547 609 688 b 191 588 320 688 243 643 b 94 280 138 532 94 454 l 94 -30 b 109 -275 94 -134 97 -233 l 226 -275 b 215 -25 216 -219 215 -102 l 215 83 l 219 83 m 215 321 b 412 586 215 507 316 586 b 606 343 537 586 606 475 b 402 80 606 193 531 80 b 220 215 316 80 243 139 b 215 264 216 230 215 247 l 215 321 "},"Ћ":{"x_min":-1.390625,"x_max":838.890625,"ha":938,"o":"m -1 936 l -1 835 l 254 835 l 254 0 l 376 0 l 376 472 b 552 532 420 504 493 532 b 672 485 605 532 643 515 b 716 332 704 450 716 401 l 716 0 l 838 0 l 838 348 b 765 567 838 442 815 515 b 591 631 725 607 669 631 b 379 567 512 631 431 599 l 376 567 l 376 835 l 702 835 l 702 936 l -1 936 "},"ú":{"x_min":97.21875,"x_max":669.453125,"ha":765,"o":"m 445 963 l 323 764 l 411 764 l 580 963 l 445 963 m 663 672 l 541 672 l 541 259 b 530 197 541 237 537 215 b 369 86 508 143 451 86 b 219 300 258 86 219 172 l 219 672 l 97 672 l 97 279 b 329 -15 97 43 223 -15 b 551 109 448 -15 519 55 l 554 109 l 561 0 l 669 0 b 663 183 665 52 663 113 l 663 672 "},"˚":{"x_min":56.9375,"x_max":336.109375,"ha":417,"o":"m 197 746 b 336 874 276 746 336 800 b 198 1005 336 948 281 1005 b 56 872 111 1005 56 946 b 197 746 56 802 113 746 m 195 797 b 127 872 155 797 127 836 b 195 952 127 916 152 952 b 268 875 240 952 268 917 b 195 797 268 834 240 797 "},"д":{"x_min":11.453125,"x_max":692,"ha":736,"o":"m 173 672 l 173 497 b 135 229 173 403 161 312 b 68 91 119 180 97 134 l 11 90 l 17 -214 l 112 -214 l 118 0 l 583 0 l 589 -214 l 685 -214 l 692 90 l 622 91 l 622 672 l 173 672 m 282 579 l 503 579 l 503 93 l 193 93 b 247 218 214 130 233 172 b 282 468 269 293 282 379 l 282 579 "},"¯":{"x_min":52.78125,"x_max":365.28125,"ha":417,"o":"m 52 893 l 52 814 l 365 814 l 365 893 l 52 893 "},"":{"x_min":105.5625,"x_max":308.328125,"ha":417,"o":"m 129 -308 b 308 -158 215 -303 308 -261 b 252 -57 308 -113 280 -75 l 162 -76 b 209 -159 187 -95 209 -127 b 105 -251 209 -215 159 -243 l 129 -308 "},"u":{"x_min":97.21875,"x_max":669.453125,"ha":765,"o":"m 663 672 l 541 672 l 541 259 b 530 197 541 237 537 215 b 369 86 508 143 451 86 b 219 300 258 86 219 172 l 219 672 l 97 672 l 97 279 b 329 -15 97 43 223 -15 b 551 109 448 -15 519 55 l 554 109 l 561 0 l 669 0 b 663 183 665 52 663 113 l 663 672 "},"З":{"x_min":43.0625,"x_max":626.390625,"ha":683,"o":"m 102 792 b 297 853 152 824 226 853 b 465 706 398 853 465 800 b 245 533 465 610 369 533 l 190 533 l 190 442 l 245 442 b 500 261 365 442 500 401 b 284 83 500 158 423 83 b 75 140 208 83 125 111 l 43 45 b 287 -15 113 2 202 -15 b 626 257 458 -15 626 62 b 398 492 626 392 530 478 l 398 494 b 591 722 508 519 591 607 b 316 952 591 867 479 952 b 69 881 215 952 133 923 l 102 792 "},"Α":{"x_min":35,"x_max":818,"ha":850,"o":"m 588 294 l 688 0 l 818 0 l 498 936 l 352 936 l 35 0 l 159 0 l 257 294 l 588 294 m 282 389 l 373 660 b 420 829 391 717 407 774 l 423 829 b 472 658 437 775 451 720 l 563 389 l 282 389 "},"":{"x_min":32,"x_max":542,"ha":582,"o":"m 218 454 l 33 198 l 130 198 l 315 454 l 130 710 l 32 710 l 218 454 m 444 454 l 259 198 l 357 198 l 542 454 l 357 710 l 258 710 l 444 454 "},"ẻ":{"x_min":52.953125,"x_max":646.015625,"ha":696,"o":"m 641 314 b 646 371 643 326 646 346 b 368 688 646 494 587 688 b 52 325 172 688 52 528 b 383 -15 52 122 176 -15 b 607 27 490 -15 564 8 l 586 115 b 400 80 540 95 487 80 b 169 314 277 80 172 148 l 641 314 m 171 401 b 358 600 180 486 234 600 b 527 401 496 600 529 479 l 171 401 m 366 736 b 471 899 398 800 471 821 b 354 1003 471 960 419 1003 b 218 910 284 1003 243 960 l 265 882 b 333 931 282 907 302 931 b 379 884 358 931 379 913 b 301 753 379 832 318 814 l 366 736 "},"ẵ":{"x_min":48.90625,"x_max":585.015625,"ha":669,"o":"m 573 412 b 318 688 573 547 523 688 b 97 628 233 688 153 664 l 125 547 b 300 597 172 578 237 597 b 453 442 437 597 453 497 l 453 428 b 48 177 193 429 48 340 b 254 -15 48 80 118 -15 b 460 84 350 -15 422 31 l 464 84 l 473 0 l 585 0 b 573 161 576 45 573 102 l 573 412 m 455 226 b 448 187 455 214 453 200 b 286 75 429 130 373 75 b 171 191 223 75 171 112 b 455 343 171 322 322 346 l 455 226 m 233 970 b 266 1011 236 989 246 1011 b 328 989 283 1011 300 1003 b 411 960 355 973 382 960 b 507 1093 476 960 508 1006 l 441 1093 b 403 1036 439 1049 425 1036 b 344 1059 386 1036 366 1048 b 258 1089 312 1075 289 1089 b 164 970 198 1089 166 1038 l 233 970 m 157 913 b 333 740 158 825 211 740 b 510 913 437 740 508 809 l 441 913 b 333 815 437 866 403 815 b 225 913 273 815 233 859 l 157 913 "},"ữ":{"x_min":97.21875,"x_max":797.21875,"ha":765,"o":"m 679 807 b 702 727 693 782 702 753 b 637 672 702 692 686 672 l 541 672 l 541 259 b 530 197 541 237 537 215 b 369 86 508 143 451 86 b 219 300 258 86 219 172 l 219 672 l 97 672 l 97 279 b 329 -15 97 43 223 -15 b 551 109 448 -15 519 55 l 554 109 l 561 0 l 669 0 b 663 183 665 52 663 113 l 663 604 l 679 606 b 797 722 747 608 797 653 b 772 822 797 760 787 795 l 679 807 m 279 788 b 315 850 281 827 293 850 b 375 825 331 850 347 842 b 459 797 404 810 430 797 b 555 938 525 797 556 845 l 490 938 b 451 878 487 891 473 878 b 393 902 434 878 415 889 b 306 932 361 920 337 932 b 212 788 247 932 209 878 l 279 788 "},"":{"x_min":49.984375,"x_max":662,"ha":713,"o":"m 202 234 b 167 456 179 293 167 368 b 356 824 169 678 242 824 b 481 753 412 824 453 797 l 202 234 m 514 668 b 544 456 534 608 544 536 b 353 79 544 225 480 79 b 234 147 305 79 265 103 l 514 668 m 657 901 l 595 942 l 539 850 b 363 918 494 896 434 918 b 49 449 180 918 48 753 b 129 113 49 304 79 190 l 63 10 l 124 -32 l 176 54 b 349 -14 224 7 284 -14 b 662 461 548 -14 662 154 b 588 792 662 600 637 713 l 657 901 "},"":{"x_min":36.1875,"x_max":663.953125,"ha":776,"o":"m 658 486 b 663 671 658 568 661 622 l 557 671 l 551 569 l 548 569 b 338 686 519 625 455 686 b 36 329 184 686 36 557 b 322 1 36 143 155 1 b 536 113 426 1 498 51 l 538 113 l 538 38 b 322 -196 538 -130 447 -196 b 125 -143 238 -196 169 -170 l 94 -236 b 318 -291 148 -272 237 -291 b 562 -211 402 -291 497 -272 b 658 95 627 -152 658 -58 l 658 486 m 537 284 b 527 219 537 264 534 240 b 358 94 501 141 433 94 b 159 336 226 94 159 204 b 359 590 159 492 243 590 b 530 461 448 590 508 532 b 537 405 536 444 537 426 l 537 284 m 284 786 b 320 849 287 825 298 849 b 380 824 337 849 352 840 b 465 796 409 809 436 796 b 561 936 530 796 562 843 l 495 936 b 457 877 493 889 479 877 b 398 900 440 877 420 888 b 312 931 366 918 343 931 b 218 786 252 931 215 877 l 284 786 "},"é":{"x_min":52.953125,"x_max":646.015625,"ha":696,"o":"m 422 963 l 300 764 l 387 764 l 557 963 l 422 963 m 641 314 b 646 371 643 326 646 346 b 368 688 646 494 587 688 b 52 325 172 688 52 528 b 383 -15 52 122 176 -15 b 607 27 490 -15 564 8 l 586 115 b 400 80 540 95 487 80 b 169 314 277 80 172 148 l 641 314 m 171 401 b 358 600 180 486 234 600 b 527 401 496 600 529 479 l 171 401 "},"Ş":{"x_min":58.328125,"x_max":624.875,"ha":685,"o":"m 58 45 b 293 -15 111 11 212 -15 b 302 -15 295 -15 299 -15 l 247 -112 b 355 -170 312 -119 355 -136 b 297 -215 355 -201 327 -215 b 220 -194 268 -215 243 -207 l 200 -254 b 297 -278 223 -268 259 -278 b 440 -166 372 -278 440 -246 b 343 -69 440 -115 395 -76 l 381 -6 b 624 255 545 22 624 132 b 386 531 624 393 544 469 b 200 711 256 581 200 624 b 376 852 200 775 248 852 b 554 807 461 852 523 824 l 587 906 b 380 952 545 929 476 952 b 77 697 198 952 77 843 b 324 432 77 565 172 486 b 501 246 451 383 501 333 b 305 86 501 151 429 86 b 88 147 222 86 143 113 l 58 45 "},"B":{"x_min":105.5625,"x_max":695.828125,"ha":753,"o":"m 105 2 b 293 -8 145 -2 209 -8 b 616 79 445 -8 551 19 b 695 266 663 125 695 186 b 502 501 695 405 591 479 l 502 504 b 661 710 601 540 661 619 b 583 875 661 784 631 839 b 326 943 525 923 447 943 b 105 924 241 943 158 935 l 105 2 m 226 842 b 333 850 245 846 277 850 b 538 697 455 850 538 807 b 336 540 538 607 463 540 l 226 540 l 226 842 m 226 448 l 326 448 b 568 268 458 448 568 396 b 327 86 568 132 452 86 b 226 91 284 86 250 87 l 226 448 "},"…":{"x_min":149.96875,"x_max":1240.28125,"ha":1389,"o":"m 231 -15 b 313 72 281 -15 313 22 b 231 159 313 123 281 159 b 150 72 183 159 150 123 b 230 -15 148 22 183 -15 l 231 -15 m 694 -15 b 777 72 744 -15 777 22 b 695 159 776 123 744 159 b 612 72 647 159 612 123 b 693 -15 611 22 645 -15 l 694 -15 m 1156 -15 b 1240 72 1208 -15 1240 22 b 1158 159 1240 123 1206 159 b 1075 72 1109 159 1075 123 b 1155 -15 1075 22 1108 -15 l 1156 -15 "},"Ủ":{"x_min":104.171875,"x_max":794.453125,"ha":899,"o":"m 104 936 l 104 385 b 440 -15 104 94 248 -15 b 794 390 643 -15 794 102 l 794 936 l 672 936 l 672 382 b 444 83 672 175 583 83 b 226 382 319 83 226 172 l 226 936 l 104 936 m 483 985 b 581 1135 519 1049 581 1064 b 466 1235 581 1192 530 1235 b 329 1142 395 1235 354 1192 l 376 1114 b 444 1163 391 1138 415 1163 b 490 1120 472 1163 490 1146 b 418 1003 490 1074 440 1063 l 483 985 "},"H":{"x_min":105.5625,"x_max":801.390625,"ha":906,"o":"m 105 936 l 105 0 l 226 0 l 226 439 l 679 439 l 679 0 l 801 0 l 801 936 l 679 936 l 679 544 l 226 544 l 226 936 l 105 936 "},"î":{"x_min":-11.109375,"x_max":337.5,"ha":325,"o":"m 119 963 l -11 764 l 79 764 l 159 896 l 162 896 l 243 764 l 337 764 l 204 963 l 119 963 m 223 0 l 223 672 l 101 672 l 101 0 l 223 0 "},"ν":{"x_min":5.5625,"x_max":618.0625,"ha":651,"o":"m 5 672 l 251 0 l 366 0 b 618 622 488 204 618 432 b 613 672 618 640 615 658 l 498 672 b 500 610 500 653 500 632 b 326 119 500 454 381 227 l 322 119 b 263 294 302 177 286 234 l 134 672 l 5 672 "},"ư":{"x_min":97.21875,"x_max":797.21875,"ha":765,"o":"m 679 807 b 702 727 693 782 702 753 b 637 672 702 692 686 672 l 541 672 l 541 259 b 530 197 541 237 537 215 b 369 86 508 143 451 86 b 219 300 258 86 219 172 l 219 672 l 97 672 l 97 279 b 329 -15 97 43 223 -15 b 551 109 448 -15 519 55 l 554 109 l 561 0 l 669 0 b 663 183 665 52 663 113 l 663 604 l 679 606 b 797 722 747 608 797 653 b 772 822 797 760 787 795 l 679 807 "},"Ό":{"x_min":0,"x_max":961.109375,"ha":1011,"o":"m 527 -15 b 961 478 765 -15 961 155 b 538 952 961 756 794 952 b 105 460 288 952 105 757 b 526 -15 105 176 277 -15 l 527 -15 m 531 83 b 233 462 341 83 233 265 b 534 853 233 665 333 853 b 833 472 736 853 833 658 b 533 83 833 259 725 83 l 531 83 m 9 936 l 0 721 l 72 721 l 120 936 l 9 936 "},"":{"x_min":30.5625,"x_max":386.109375,"ha":417,"o":"m 30 1159 b 205 1009 37 1067 91 1009 b 386 1159 323 1009 379 1066 l 293 1159 b 208 1071 287 1113 272 1071 b 123 1159 143 1071 129 1114 l 30 1159 "},"−":{"x_min":55.5625,"x_max":772.21875,"ha":828,"o":"m 55 412 l 55 329 l 772 329 l 772 412 l 55 412 "},"ā":{"x_min":48.90625,"x_max":585.015625,"ha":669,"o":"m 179 893 l 179 814 l 491 814 l 491 893 l 179 893 m 573 412 b 318 688 573 547 523 688 b 97 628 233 688 153 664 l 125 547 b 300 597 172 578 237 597 b 453 442 437 597 453 497 l 453 428 b 48 177 193 429 48 340 b 254 -15 48 80 118 -15 b 460 84 350 -15 422 31 l 464 84 l 473 0 l 585 0 b 573 161 576 45 573 102 l 573 412 m 455 226 b 448 187 455 214 453 200 b 286 75 429 130 373 75 b 171 191 223 75 171 112 b 455 343 171 322 322 346 l 455 226 "},"ĵ":{"x_min":-62.5,"x_max":344.4375,"ha":338,"o":"m -50 -293 b 158 -216 15 -293 104 -271 b 238 59 218 -155 238 -70 l 238 672 l 116 672 l 116 107 b 70 -145 116 -54 104 -108 b -62 -197 41 -177 -6 -193 l -50 -293 m 126 953 l -4 754 l 86 754 l 166 886 l 169 886 l 250 754 l 344 754 l 211 953 l 126 953 "},"Ĩ":{"x_min":-5.703125,"x_max":338.9375,"ha":332,"o":"m 105 936 l 105 0 l 226 0 l 226 936 l 105 936 m 59 993 b 95 1055 62 1031 73 1055 b 161 1028 115 1055 134 1042 b 245 1002 191 1013 216 1002 b 338 1137 309 1002 340 1049 l 275 1137 b 237 1082 270 1092 258 1082 b 170 1107 215 1082 193 1095 b 88 1135 141 1123 119 1135 b -5 993 27 1135 -8 1078 l 59 993 "},"*":{"x_min":42,"x_max":535.015625,"ha":576,"o":"m 373 952 l 289 756 l 286 756 l 200 950 l 115 901 l 246 731 l 246 728 l 42 755 l 42 660 l 247 687 l 247 684 l 115 514 l 194 464 l 285 660 l 287 660 l 371 466 l 458 516 l 325 683 l 325 685 l 535 660 l 535 755 l 325 727 l 325 730 l 457 904 l 373 952 "},"ă":{"x_min":48.90625,"x_max":585.015625,"ha":669,"o":"m 162 948 b 335 775 162 861 212 775 b 507 948 439 775 507 845 l 435 948 b 335 852 430 902 400 852 b 235 948 278 852 243 893 l 162 948 m 573 412 b 318 688 573 547 523 688 b 97 628 233 688 153 664 l 125 547 b 300 597 172 578 237 597 b 453 442 437 597 453 497 l 453 428 b 48 177 193 429 48 340 b 254 -15 48 80 118 -15 b 460 84 350 -15 422 31 l 464 84 l 473 0 l 585 0 b 573 161 576 45 573 102 l 573 412 m 455 226 b 448 187 455 214 453 200 b 286 75 429 130 373 75 b 171 191 223 75 171 112 b 455 343 171 322 322 346 l 455 226 "},"Χ":{"x_min":35,"x_max":759,"ha":793,"o":"m 759 0 l 467 480 l 752 936 l 613 936 l 485 717 b 400 558 450 657 426 614 l 396 558 b 310 717 371 608 344 656 l 186 936 l 46 936 l 321 474 l 35 0 l 173 0 l 286 205 b 387 392 335 287 361 337 l 390 392 b 499 207 419 337 450 286 l 618 0 l 759 0 "},"†":{"x_min":59.71875,"x_max":634.71875,"ha":694,"o":"m 290 936 l 301 643 l 59 653 l 59 553 l 301 564 l 290 -69 l 404 -69 l 393 564 l 634 553 l 634 653 l 393 643 l 404 936 l 290 936 "},"°":{"x_min":40.265625,"x_max":408.328125,"ha":442,"o":"m 225 953 b 40 764 122 953 38 871 b 222 586 40 668 113 586 b 408 772 318 586 408 660 b 226 953 408 867 338 953 l 225 953 m 223 888 b 333 770 302 888 333 822 b 223 651 333 701 286 651 b 115 765 162 651 115 701 b 222 888 115 824 151 888 l 223 888 "},"Ξ":{"x_min":59.71875,"x_max":701.390625,"ha":750,"o":"m 75 936 l 75 836 l 687 836 l 687 936 l 75 936 m 120 535 l 120 435 l 640 435 l 640 535 l 120 535 m 59 101 l 59 0 l 701 0 l 701 101 l 59 101 "},"ồ":{"x_min":53.046875,"x_max":710,"ha":763,"o":"m 386 688 b 53 330 200 688 53 556 b 375 -15 53 118 193 -15 b 710 341 537 -15 710 93 b 386 688 710 547 579 688 m 383 596 b 585 337 528 596 585 451 b 380 76 585 186 497 76 b 176 335 261 76 176 187 b 383 596 176 462 239 596 m 441 1077 l 571 893 l 641 893 l 553 1077 l 441 1077 m 341 963 l 225 764 l 314 764 l 385 895 l 387 895 l 458 764 l 551 764 l 432 963 l 341 963 "},"Ķ":{"x_min":105.484375,"x_max":766.59375,"ha":753,"o":"m 105 0 l 226 0 l 226 357 l 315 460 l 623 0 l 766 0 l 401 539 l 740 936 l 590 936 l 304 585 b 230 485 280 554 255 521 l 226 485 l 226 936 l 105 936 l 105 0 m 298 -305 b 477 -155 384 -300 477 -258 b 422 -54 477 -109 449 -72 l 331 -73 b 379 -157 356 -93 379 -125 b 274 -248 379 -212 329 -239 l 298 -305 "},"ŵ":{"x_min":25,"x_max":1001,"ha":1022,"o":"m 467 963 l 337 764 l 427 764 l 508 896 l 510 896 l 591 764 l 685 764 l 552 963 l 467 963 m 25 672 l 227 0 l 338 0 l 447 319 b 508 542 470 392 491 461 l 510 542 b 570 321 527 462 547 396 l 673 0 l 784 0 l 1001 672 l 880 672 l 784 335 b 733 116 762 255 744 184 l 728 116 b 669 336 713 184 694 255 l 565 672 l 462 672 l 352 330 b 292 116 330 257 308 184 l 288 116 b 238 330 276 186 258 255 l 149 672 l 25 672 "},"΄":{"x_min":117,"x_max":314.21875,"ha":418,"o":"m 190 964 l 117 765 l 197 765 l 314 964 l 190 964 "},"ǽ":{"x_min":50.0625,"x_max":1024.015625,"ha":1074,"o":"m 596 963 l 473 764 l 561 764 l 730 963 l 596 963 m 1019 323 b 1024 378 1022 336 1024 357 b 761 688 1024 489 967 688 b 526 546 655 688 572 633 l 523 546 b 307 688 495 631 427 688 b 97 626 240 688 157 664 l 126 546 b 298 597 166 574 234 597 b 455 447 434 597 455 480 l 455 419 b 50 176 194 422 50 332 b 259 -15 50 79 119 -15 b 509 133 375 -15 466 40 l 512 133 b 768 -15 551 38 654 -15 b 989 31 857 -15 935 2 l 967 118 b 783 79 929 100 876 79 b 569 323 657 79 565 164 l 1019 323 m 457 239 b 450 190 457 222 455 205 b 287 75 430 129 375 75 b 170 186 223 75 170 115 b 457 337 170 318 327 340 l 457 239 m 568 411 b 748 600 572 487 627 600 b 905 411 872 600 910 479 l 568 411 "},"Β":{"x_min":105.5625,"x_max":695.828125,"ha":753,"o":"m 105 2 b 293 -8 145 -2 209 -8 b 616 79 445 -8 551 19 b 695 266 663 125 695 186 b 502 501 695 405 591 479 l 502 504 b 661 710 601 540 661 619 b 583 875 661 784 631 839 b 326 943 525 923 447 943 b 105 924 241 943 158 935 l 105 2 m 226 842 b 333 850 245 846 277 850 b 538 697 455 850 538 807 b 336 540 538 607 463 540 l 226 540 l 226 842 m 226 448 l 326 448 b 568 268 458 448 568 396 b 327 86 568 132 452 86 b 226 91 284 86 250 87 l 226 448 "},"Ļ":{"x_min":105.5625,"x_max":626.390625,"ha":656,"o":"m 105 0 l 626 0 l 626 101 l 226 101 l 226 936 l 105 936 l 105 0 m 259 -308 b 438 -158 345 -303 438 -261 b 383 -57 438 -112 411 -75 l 293 -76 b 340 -159 318 -95 340 -127 b 236 -251 340 -215 290 -241 l 259 -308 "},"Õ":{"x_min":50,"x_max":905.5625,"ha":957,"o":"m 484 952 b 50 460 234 952 50 757 b 470 -15 50 176 223 -15 b 905 478 709 -15 905 155 b 484 952 905 756 740 952 m 479 853 b 777 472 680 853 777 658 b 477 83 777 259 669 83 b 179 462 287 83 179 262 b 479 853 179 668 279 853 m 370 996 b 406 1057 373 1034 384 1057 b 472 1031 426 1057 445 1045 b 556 1005 502 1016 527 1005 b 650 1139 620 1005 651 1052 l 586 1139 b 548 1085 581 1095 569 1085 b 481 1110 526 1085 504 1098 b 400 1138 452 1125 430 1138 b 305 996 338 1138 302 1081 l 370 996 "},"№":{"x_min":102.78125,"x_max":1229.171875,"ha":1272,"o":"m 1011 889 b 790 643 891 889 790 800 b 1009 406 790 492 886 406 b 1229 650 1120 406 1229 477 b 1012 889 1229 795 1145 889 l 1011 889 m 1009 820 b 1129 648 1095 820 1129 728 b 1009 474 1129 546 1083 474 b 890 645 944 474 890 546 b 1008 820 890 728 927 820 l 1009 820 m 1193 274 l 1193 346 l 827 346 l 827 274 l 1193 274 m 211 0 l 211 374 b 202 760 211 534 208 643 l 206 762 b 348 456 248 659 297 556 l 587 0 l 711 0 l 711 909 l 602 909 l 602 539 b 615 157 602 395 605 283 l 613 156 b 472 457 575 250 527 350 l 236 909 l 102 909 l 102 0 l 211 0 "},"χ":{"x_min":15,"x_max":629,"ha":635,"o":"m 24 672 l 255 216 l 15 -264 l 119 -296 l 245 -27 b 309 115 270 26 291 75 l 315 115 l 515 -296 l 629 -265 l 384 218 l 622 672 l 502 672 l 402 458 b 331 309 373 400 351 353 l 326 309 l 155 672 l 24 672 "},"":{"x_min":0.0625,"x_max":157,"ha":182,"o":"m 66 -93 b 157 123 97 -43 134 47 l 54 116 b 0 -98 44 48 22 -38 l 66 -93 "},"ί":{"x_min":100.984375,"x_max":307.921875,"ha":328,"o":"m 184 954 l 110 756 l 192 756 l 307 954 l 184 954 m 223 672 l 100 672 l 100 150 b 225 -15 100 16 155 -15 b 281 -8 246 -15 267 -12 l 288 80 b 223 162 235 77 223 102 l 223 672 "},"Ζ":{"x_min":41.671875,"x_max":725,"ha":768,"o":"m 41 0 l 725 0 l 725 101 l 201 101 l 201 105 l 718 863 l 718 936 l 86 936 l 86 835 l 561 835 l 561 831 l 41 70 l 41 0 "},"Ľ":{"x_min":105.5625,"x_max":626.390625,"ha":656,"o":"m 105 0 l 626 0 l 626 101 l 226 101 l 226 936 l 105 936 l 105 0 m 361 700 b 540 850 447 705 540 747 b 484 952 540 896 512 933 l 394 932 b 441 849 419 913 441 881 b 337 757 441 793 391 767 l 361 700 "},"ť":{"x_min":25,"x_max":495.828125,"ha":471,"o":"m 129 795 l 129 672 l 25 672 l 25 579 l 129 579 l 129 212 b 176 36 129 132 141 73 b 308 -15 205 3 251 -15 b 416 2 355 -15 393 -7 l 411 93 b 340 85 393 88 373 85 b 248 216 272 85 248 132 l 248 579 l 423 579 l 423 672 l 248 672 l 248 833 l 129 795 m 384 751 b 495 907 418 765 495 812 b 447 1003 495 951 470 987 l 359 984 b 401 902 381 965 401 934 b 348 800 401 852 372 818 l 384 751 "},"5":{"x_min":58.328125,"x_max":619.4375,"ha":713,"o":"m 601 904 l 169 904 l 111 470 b 236 480 144 474 184 480 b 495 280 416 480 494 397 b 281 84 495 159 397 84 b 88 134 200 84 126 112 l 58 41 b 283 -14 101 13 184 -14 b 619 294 479 -14 619 117 b 490 526 619 408 561 486 b 295 574 434 559 365 574 b 222 569 262 574 243 572 l 256 801 l 601 801 l 601 904 "},"o":{"x_min":52.78125,"x_max":709.71875,"ha":763,"o":"m 386 688 b 52 330 200 688 52 556 b 375 -15 52 118 193 -15 b 709 341 537 -15 709 93 b 386 688 709 547 579 688 m 383 596 b 584 337 527 596 584 451 b 380 76 584 186 497 76 b 176 335 261 76 176 187 b 383 596 176 462 238 596 "},"Ѕ":{"x_min":58.203125,"x_max":624.875,"ha":685,"o":"m 58 45 b 297 -15 108 12 206 -15 b 624 255 517 -15 624 111 b 385 531 624 393 544 469 b 199 711 256 581 199 624 b 376 852 199 775 248 852 b 554 807 460 852 523 824 l 587 906 b 380 952 545 929 476 952 b 77 697 198 952 77 843 b 324 432 77 565 172 486 b 501 246 451 383 501 333 b 305 86 501 151 429 86 b 88 147 222 86 142 113 l 58 45 "},"d":{"x_min":52.765625,"x_max":687.5,"ha":783,"o":"m 559 986 l 559 585 l 556 585 b 354 688 526 639 456 688 b 52 326 190 688 51 550 b 340 -15 52 122 177 -15 b 569 116 450 -15 531 41 l 572 116 l 577 0 l 687 0 b 681 173 683 45 681 113 l 681 986 l 559 986 m 559 282 b 554 229 559 262 558 246 b 375 83 531 137 456 83 b 176 332 243 83 176 196 b 377 592 176 480 251 592 b 554 450 469 592 536 528 b 559 398 558 435 559 414 l 559 282 "},",":{"x_min":23.9375,"x_max":242,"ha":288,"o":"m 110 -162 b 242 175 148 -97 210 57 l 105 161 b 23 -170 90 59 53 -88 l 110 -162 "},"":{"x_min":25.96875,"x_max":391.25,"ha":408,"o":"m 25 909 l 25 832 l 292 832 l 292 831 l 55 369 l 153 369 l 391 849 l 391 909 l 25 909 "},"\"":{"x_min":70.828125,"x_max":398.609375,"ha":468,"o":"m 70 961 l 93 628 l 168 628 l 191 961 l 70 961 m 277 961 l 301 628 l 375 628 l 398 961 l 277 961 "},"ľ":{"x_min":101.390625,"x_max":422.21875,"ha":339,"o":"m 101 0 l 223 0 l 223 986 l 101 986 l 101 0 m 333 725 b 422 894 354 743 422 793 b 373 999 422 943 397 983 l 286 979 b 329 889 309 958 329 923 b 279 765 329 832 301 793 l 333 725 "},"":{"x_min":50,"x_max":377.78125,"ha":438,"o":"m 286 -215 l 286 -133 b 377 -109 325 -130 359 -119 l 362 -44 b 269 -62 341 -52 312 -62 b 143 72 200 -62 143 -15 b 270 207 143 148 193 207 b 356 187 312 207 338 196 l 375 255 b 286 276 352 266 320 276 l 286 355 l 222 355 l 222 273 b 50 66 113 257 50 172 b 97 -70 50 9 68 -38 b 222 -132 127 -104 166 -125 l 222 -215 l 286 -215 "},"ė":{"x_min":52.953125,"x_max":646.015625,"ha":696,"o":"m 354 792 b 422 863 394 792 422 825 b 354 935 422 903 393 935 b 283 863 314 935 283 903 b 352 792 283 825 312 792 l 354 792 m 641 314 b 646 371 643 326 646 346 b 368 688 646 494 587 688 b 52 325 172 688 52 528 b 383 -15 52 122 176 -15 b 607 27 490 -15 564 8 l 586 115 b 400 80 540 95 487 80 b 169 314 277 80 172 148 l 641 314 m 171 401 b 358 600 180 486 234 600 b 527 401 496 600 529 479 l 171 401 "},"ề":{"x_min":53,"x_max":646.015625,"ha":696,"o":"m 641 314 b 646 371 643 326 646 346 b 368 688 646 494 587 688 b 53 325 172 688 53 528 b 383 -15 53 122 176 -15 b 607 27 490 -15 564 8 l 586 115 b 400 80 540 95 487 80 b 169 314 278 80 172 148 l 641 314 m 171 401 b 358 600 180 486 234 600 b 528 401 496 600 529 479 l 171 401 m 421 1077 l 550 893 l 621 893 l 532 1077 l 421 1077 m 321 963 l 204 764 l 293 764 l 364 895 l 366 895 l 437 764 l 530 764 l 411 963 l 321 963 "},"Í":{"x_min":93.0625,"x_max":369.4375,"ha":332,"o":"m 105 936 l 105 0 l 226 0 l 226 936 l 105 936 m 222 1149 l 93 986 l 193 986 l 369 1149 l 222 1149 "},"":{"x_min":36.109375,"x_max":365.28125,"ha":503,"o":"m 365 0 l 365 674 l 263 674 l 36 571 l 58 480 l 245 567 l 248 567 l 248 0 l 365 0 "},"":{"x_min":4.171875,"x_max":580.5625,"ha":621,"o":"m 580 0 l 580 101 l 175 101 l 175 104 l 247 170 b 558 656 437 354 558 489 b 281 918 558 785 476 918 b 26 827 177 918 88 879 l 65 740 b 256 817 106 775 175 817 b 436 640 391 817 436 732 b 100 168 434 504 330 387 l 4 75 l 4 0 l 580 0 "},"⁾":{"x_min":18.0625,"x_max":195.828125,"ha":250,"o":"m 88 535 b 195 871 138 603 195 710 b 88 1206 195 1032 138 1139 l 18 1206 b 118 871 72 1125 118 1018 b 18 535 118 722 72 615 l 88 535 "},"Ú":{"x_min":104.171875,"x_max":794.453125,"ha":899,"o":"m 104 936 l 104 385 b 440 -15 104 94 248 -15 b 794 390 643 -15 794 102 l 794 936 l 672 936 l 672 382 b 444 83 672 175 583 83 b 226 382 319 83 226 172 l 226 936 l 104 936 m 509 1149 l 380 986 l 480 986 l 656 1149 l 509 1149 "},"Ơ":{"x_min":50.265625,"x_max":943.34375,"ha":957,"o":"m 478 83 b 179 462 286 83 178 265 b 479 853 178 665 278 853 b 778 472 680 853 778 658 b 478 83 778 259 669 83 m 823 1028 b 846 939 836 1003 846 973 b 783 878 846 899 829 878 b 629 928 739 878 672 914 b 485 952 593 941 540 952 b 50 460 235 952 50 757 b 471 -15 50 176 223 -15 b 905 478 710 -15 905 155 b 797 809 905 624 860 736 b 943 932 897 799 943 856 b 918 1046 943 979 932 1016 l 823 1028 "},"":{"x_min":50,"x_max":377.78125,"ha":438,"o":"m 286 358 l 286 440 b 377 464 325 443 359 454 l 362 529 b 269 511 341 521 312 511 b 143 646 200 511 143 558 b 270 781 143 722 193 781 b 356 761 312 781 338 770 l 375 829 b 286 850 352 840 320 850 l 286 929 l 222 929 l 222 847 b 50 640 113 831 50 746 b 97 503 50 583 68 535 b 222 442 127 469 166 448 l 222 358 l 286 358 "},"Ŷ":{"x_min":18.0625,"x_max":750,"ha":751,"o":"m 436 0 l 436 398 l 750 936 l 612 936 l 477 678 b 383 485 441 607 409 546 l 380 485 b 287 678 351 550 323 607 l 155 936 l 18 936 l 313 397 l 313 0 l 436 0 m 329 1145 l 186 986 l 284 986 l 373 1082 l 376 1082 l 465 986 l 566 986 l 422 1145 l 329 1145 "},"":{"x_min":44.4375,"x_max":690.28125,"ha":736,"o":"m 690 69 l 690 162 l 563 162 l 563 683 l 431 683 l 44 148 l 44 69 l 450 69 l 450 -162 l 563 -162 l 563 69 l 690 69 m 450 162 l 168 162 l 165 166 l 373 442 b 448 572 400 482 426 529 l 454 572 b 450 440 450 528 450 486 l 450 162 "},"Ự":{"x_min":104.171875,"x_max":940.28125,"ha":940,"o":"m 823 1070 b 845 989 837 1045 845 1016 b 781 936 845 953 829 936 l 672 936 l 672 382 b 444 83 672 175 583 83 b 226 382 319 83 226 172 l 226 936 l 104 936 l 104 385 b 440 -15 104 94 248 -15 b 794 390 643 -15 794 102 l 794 863 l 815 864 b 940 982 898 867 940 914 b 916 1087 940 1021 930 1056 l 823 1070 m 470 -111 b 398 -182 430 -111 398 -143 b 468 -254 398 -221 429 -254 b 538 -182 509 -254 538 -221 b 470 -111 538 -143 508 -111 "},"Ý":{"x_min":18.171875,"x_max":750.109375,"ha":751,"o":"m 436 0 l 436 398 l 750 936 l 612 936 l 477 678 b 383 485 441 607 409 546 l 380 485 b 287 678 351 550 323 607 l 155 936 l 18 936 l 314 397 l 314 0 l 436 0 m 444 1142 l 315 979 l 415 979 l 591 1142 l 444 1142 "},"ŝ":{"x_min":54.640625,"x_max":494.015625,"ha":550,"o":"m 234 963 l 104 764 l 194 764 l 275 896 l 277 896 l 358 764 l 452 764 l 319 963 l 234 963 m 54 31 b 243 -15 101 4 169 -15 b 494 187 402 -15 494 69 b 318 390 494 287 434 346 b 190 504 230 423 190 448 b 302 596 190 554 230 596 b 439 557 365 596 413 574 l 470 646 b 305 688 432 668 373 688 b 74 490 161 688 74 599 b 251 300 74 410 130 343 b 376 176 341 266 376 234 b 245 76 376 120 334 76 b 85 125 184 76 121 101 l 54 31 "},"₁":{"x_min":30.5625,"x_max":245.828125,"ha":339,"o":"m 245 -204 l 245 337 l 161 337 l 30 276 l 45 204 l 145 252 l 148 252 l 148 -204 l 245 -204 "},"ą":{"x_min":48.90625,"x_max":645.265625,"ha":669,"o":"m 573 412 b 317 688 573 547 523 688 b 97 628 233 688 152 664 l 125 547 b 299 597 172 578 237 597 b 452 442 437 597 452 497 l 452 428 b 48 177 193 429 48 340 b 254 -15 48 80 118 -15 b 459 84 349 -15 421 31 l 463 84 l 473 4 b 406 -168 448 -34 406 -98 b 530 -286 406 -244 459 -286 b 645 -252 567 -286 613 -276 l 625 -189 b 561 -202 607 -197 588 -202 b 495 -133 523 -202 495 -179 b 549 0 495 -84 528 -27 l 584 0 b 573 161 575 44 573 98 l 573 412 m 455 226 b 448 187 455 214 452 200 b 285 75 428 130 373 75 b 170 191 223 75 170 112 b 455 343 170 322 322 346 l 455 226 "},"":{"x_min":77.78125,"x_max":241.671875,"ha":319,"o":"m 227 0 l 206 663 l 112 663 l 93 0 l 227 0 m 161 949 b 77 863 112 949 77 913 b 159 777 77 814 111 777 b 241 863 209 777 241 814 b 162 949 241 913 209 949 l 161 949 "},"Ắ":{"x_min":35,"x_max":818,"ha":850,"o":"m 588 294 l 688 0 l 818 0 l 498 936 l 352 936 l 35 0 l 159 0 l 257 294 l 588 294 m 282 389 l 373 660 b 420 829 391 717 407 774 l 423 829 b 472 658 437 775 451 720 l 563 389 l 282 389 m 257 1114 b 427 971 266 1038 319 971 b 602 1114 537 971 594 1041 l 538 1114 b 429 1046 527 1077 501 1046 b 323 1114 361 1046 332 1081 l 257 1114 m 482 1245 l 379 1099 l 454 1099 l 609 1245 l 482 1245 "},"ã":{"x_min":48.90625,"x_max":585.015625,"ha":669,"o":"m 226 788 b 262 850 229 827 240 850 b 322 825 279 850 294 842 b 407 797 351 810 378 797 b 503 938 472 797 504 845 l 437 938 b 398 878 435 891 421 878 b 340 902 382 878 362 889 b 254 932 308 920 285 932 b 160 788 194 932 157 878 l 226 788 m 573 412 b 318 688 573 547 523 688 b 97 628 233 688 153 664 l 125 547 b 300 597 172 578 237 597 b 453 442 437 597 453 497 l 453 428 b 48 177 193 429 48 340 b 254 -15 48 80 118 -15 b 460 84 350 -15 422 31 l 464 84 l 473 0 l 585 0 b 573 161 576 45 573 102 l 573 412 m 455 226 b 448 187 455 214 453 200 b 286 75 429 130 373 75 b 171 191 223 75 171 112 b 455 343 171 322 322 346 l 455 226 "},"":{"x_min":137.5,"x_max":277.78125,"ha":417,"o":"m 209 -111 b 137 -182 169 -111 137 -143 b 206 -254 137 -221 168 -254 b 277 -182 248 -254 277 -221 b 209 -111 277 -143 247 -111 "},"æ":{"x_min":50.0625,"x_max":1024.015625,"ha":1074,"o":"m 1019 323 b 1024 378 1022 336 1024 357 b 761 688 1024 489 967 688 b 526 546 655 688 572 633 l 523 546 b 307 688 496 631 427 688 b 97 626 240 688 157 664 l 126 546 b 298 597 166 574 234 597 b 455 447 434 597 455 480 l 455 419 b 50 176 194 422 50 332 b 259 -15 50 79 119 -15 b 509 133 375 -15 466 40 l 512 133 b 768 -15 551 38 654 -15 b 989 31 857 -15 935 2 l 967 118 b 783 79 929 100 876 79 b 569 323 657 79 565 164 l 1019 323 m 457 239 b 450 190 457 222 455 205 b 287 75 430 129 375 75 b 170 186 223 75 170 115 b 457 337 170 318 327 340 l 457 239 m 568 411 b 748 600 572 487 628 600 b 905 411 872 600 910 479 l 568 411 "},"":{"x_min":41.671875,"x_max":388.890625,"ha":417,"o":"m 233 1081 b 329 1226 270 1144 329 1157 b 219 1323 329 1280 281 1323 b 87 1234 151 1323 111 1283 l 131 1207 b 198 1256 147 1231 169 1256 b 244 1212 225 1256 244 1238 b 173 1098 244 1169 195 1155 l 233 1081 m 41 1114 b 212 971 51 1038 105 971 b 388 1114 322 971 379 1041 l 323 1114 b 215 1046 312 1077 286 1046 b 108 1114 145 1046 116 1081 l 41 1114 "},"ĩ":{"x_min":-8.46875,"x_max":334.796875,"ha":325,"o":"m 58 788 b 94 850 61 827 72 850 b 154 825 111 850 126 842 b 238 797 183 810 209 797 b 334 938 304 797 336 845 l 269 938 b 230 878 266 891 252 878 b 172 902 213 878 194 889 b 86 932 140 920 116 932 b -8 788 26 932 -11 878 l 58 788 m 223 0 l 223 672 l 101 672 l 101 0 l 223 0 "},"":{"x_min":50,"x_max":662.5,"ha":713,"o":"m 363 918 b 50 448 180 918 50 752 b 348 -15 52 150 172 -15 b 662 461 548 -15 662 154 b 363 918 662 749 554 918 m 356 824 b 540 455 483 824 540 678 b 355 79 540 225 480 79 b 172 447 244 79 172 212 b 356 824 172 693 250 824 "},"~":{"x_min":67.765625,"x_max":761.53125,"ha":828,"o":"m 150 291 b 233 410 152 375 183 410 b 400 348 283 410 334 380 b 601 287 495 304 545 287 b 761 497 687 287 768 341 l 677 497 b 602 380 676 421 652 380 b 429 439 551 380 500 405 b 233 501 336 483 291 501 b 68 291 137 501 62 430 l 150 291 "},"ŀ":{"x_min":101.390625,"x_max":415.28125,"ha":378,"o":"m 101 0 l 223 0 l 223 986 l 101 986 l 101 0 m 351 474 b 415 543 388 474 415 507 b 351 613 415 583 387 613 b 284 543 313 613 284 582 b 350 474 284 507 312 474 l 351 474 "},"":{"x_min":41.671875,"x_max":384.71875,"ha":426,"o":"m 41 525 l 41 435 l 384 435 l 384 525 l 41 525 "},"":{"x_min":51.390625,"x_max":661.109375,"ha":713,"o":"m 230 471 b 51 229 119 423 51 343 b 354 -15 51 97 165 -15 b 661 247 526 -15 661 90 b 479 480 661 357 591 436 l 479 485 b 627 696 590 537 627 619 b 365 918 627 809 540 918 b 86 678 206 918 86 821 b 229 475 86 600 129 522 l 230 471 m 356 73 b 176 246 241 73 172 154 b 338 432 176 332 233 401 b 537 234 461 397 537 344 b 356 73 537 143 466 73 m 358 831 b 511 683 468 831 511 756 b 373 519 511 601 451 546 b 201 686 269 547 201 596 b 358 831 201 764 256 831 "},"Ċ":{"x_min":50,"x_max":761.109375,"ha":806,"o":"m 734 126 b 537 87 686 102 611 87 b 177 464 309 87 177 234 b 543 850 177 710 323 850 b 731 811 620 850 686 834 l 761 910 b 538 952 729 927 655 952 b 50 460 248 952 50 753 b 512 -15 50 152 248 -15 b 759 30 626 -15 715 8 l 734 126 m 483 999 b 551 1070 522 999 551 1034 b 484 1139 551 1106 522 1139 b 413 1070 444 1139 413 1106 b 481 999 413 1034 444 999 l 483 999 "},"¡":{"x_min":77.78125,"x_max":241.671875,"ha":319,"o":"m 227 -271 l 206 392 l 112 392 l 93 -271 l 227 -271 m 161 678 b 77 592 112 678 77 642 b 159 505 77 543 111 505 b 241 592 209 505 241 543 b 162 678 241 642 209 678 l 161 678 "},"ẅ":{"x_min":25,"x_max":1001.390625,"ha":1022,"o":"m 383 793 b 451 864 423 793 451 827 b 383 935 451 904 422 935 b 312 864 344 935 312 903 b 381 793 312 827 341 793 l 383 793 m 640 793 b 708 864 680 793 708 827 b 640 935 708 904 679 935 b 570 864 601 935 570 903 b 638 793 570 827 598 793 l 640 793 m 25 674 l 227 1 l 338 1 l 447 321 b 508 543 470 393 491 462 l 511 543 b 570 322 527 464 547 397 l 673 1 l 784 1 l 1001 674 l 880 674 l 784 336 b 733 118 762 257 744 186 l 729 118 b 669 337 713 186 694 257 l 565 674 l 462 674 l 352 332 b 293 118 330 258 308 186 l 288 118 b 238 332 276 187 258 257 l 150 674 l 25 674 "},"ậ":{"x_min":48.90625,"x_max":585.140625,"ha":669,"o":"m 574 412 b 318 688 574 547 524 688 b 97 628 233 688 153 664 l 125 547 b 300 597 172 578 237 597 b 453 442 437 597 453 497 l 453 428 b 48 177 193 429 48 340 b 254 -15 48 80 118 -15 b 460 84 350 -15 422 31 l 464 84 l 474 0 l 585 0 b 574 161 576 45 574 102 l 574 412 m 455 226 b 448 187 455 214 453 200 b 286 75 429 130 373 75 b 171 191 223 75 171 112 b 455 343 171 322 322 346 l 455 226 m 291 963 l 161 764 l 251 764 l 332 896 l 335 896 l 415 764 l 510 764 l 376 963 l 291 963 m 335 -111 b 262 -182 294 -111 262 -143 b 332 -254 262 -221 293 -254 b 403 -182 373 -254 403 -221 b 335 -111 403 -143 372 -111 "},"К":{"x_min":105.5625,"x_max":740.28125,"ha":753,"o":"m 105 936 l 105 0 l 225 0 l 225 429 l 263 429 b 525 221 422 429 481 344 b 609 0 550 147 576 63 l 740 0 b 637 265 698 83 672 169 b 375 507 588 392 529 486 l 729 936 l 583 936 l 262 521 l 225 521 l 225 936 l 105 936 "},"Γ":{"x_min":105.5625,"x_max":606.9375,"ha":626,"o":"m 105 936 l 105 0 l 226 0 l 226 835 l 606 835 l 606 936 l 105 936 "},"Ử":{"x_min":104.171875,"x_max":940.28125,"ha":940,"o":"m 823 1070 b 845 989 837 1045 845 1016 b 781 936 845 953 829 936 l 672 936 l 672 382 b 444 83 672 175 583 83 b 226 382 319 83 226 172 l 226 936 l 104 936 l 104 385 b 440 -15 104 94 248 -15 b 794 390 643 -15 794 102 l 794 863 l 815 864 b 940 982 898 867 940 914 b 916 1087 940 1021 930 1056 l 823 1070 m 504 985 b 602 1135 540 1049 602 1064 b 487 1235 602 1192 551 1235 b 350 1142 416 1235 375 1192 l 397 1114 b 465 1163 412 1138 436 1163 b 511 1120 493 1163 511 1146 b 438 1003 511 1074 461 1063 l 504 985 "},"P":{"x_min":105.5625,"x_max":681.953125,"ha":739,"o":"m 105 0 l 226 0 l 226 375 b 323 366 254 368 287 366 b 609 469 441 366 545 401 b 681 670 656 518 681 585 b 600 866 681 753 651 821 b 337 943 544 916 456 943 b 105 925 240 943 163 935 l 105 0 m 226 838 b 340 847 247 843 287 847 b 561 664 473 847 561 788 b 326 464 561 535 472 464 b 226 474 286 464 252 467 l 226 838 "},"%":{"x_min":41.671875,"x_max":1056.953125,"ha":1100,"o":"m 259 918 b 41 636 140 918 41 817 b 252 364 43 455 140 364 b 469 649 369 364 469 458 b 261 918 469 821 386 918 l 259 918 m 255 845 b 372 643 340 845 372 753 b 255 437 372 524 336 437 b 138 640 179 437 136 526 b 254 845 138 754 179 845 l 255 845 m 320 -16 l 852 920 l 775 920 l 244 -16 l 320 -16 m 848 544 b 630 261 729 544 630 443 b 841 -9 631 80 729 -9 b 1056 275 956 -9 1056 84 b 850 544 1056 447 975 544 l 848 544 m 844 471 b 961 269 929 471 961 379 b 844 63 961 150 925 63 b 726 266 769 63 725 151 b 843 471 726 380 768 471 l 844 471 "},"":{"x_min":25.96875,"x_max":391.25,"ha":408,"o":"m 25 539 l 25 462 l 292 462 l 292 461 l 55 0 l 153 0 l 391 479 l 391 539 l 25 539 "},"_":{"x_min":0,"x_max":694.453125,"ha":694,"o":"m 0 -104 l 0 -173 l 694 -173 l 694 -104 l 0 -104 "},"ñ":{"x_min":95.828125,"x_max":673.609375,"ha":771,"o":"m 281 788 b 318 850 284 827 295 850 b 377 825 334 850 350 842 b 462 797 406 810 433 797 b 558 938 527 797 559 845 l 493 938 b 454 878 490 891 476 878 b 395 902 437 878 418 889 b 309 932 363 920 340 932 b 215 788 250 932 212 878 l 281 788 m 101 0 l 223 0 l 223 404 b 231 461 223 425 226 446 b 395 586 252 529 315 586 b 551 387 511 586 551 496 l 551 0 l 673 0 l 673 401 b 436 688 673 632 529 688 b 213 561 325 688 247 625 l 211 561 l 204 672 l 95 672 b 101 490 100 617 101 560 l 101 0 "},"Ŕ":{"x_min":105.5625,"x_max":715.28125,"ha":747,"o":"m 105 0 l 226 0 l 226 405 l 340 405 b 527 223 450 401 500 353 b 590 0 554 107 575 27 l 715 0 b 643 257 695 36 673 126 b 505 446 620 354 577 421 l 505 450 b 681 689 604 483 681 565 b 608 867 681 761 655 825 b 337 943 550 920 466 943 b 105 924 254 943 166 936 l 105 0 m 226 839 b 345 850 245 845 287 850 b 561 675 473 849 561 796 b 350 497 561 568 479 497 l 226 497 l 226 839 m 419 1153 l 290 991 l 390 991 l 566 1153 l 419 1153 "},"‚":{"x_min":29.0625,"x_max":236,"ha":288,"o":"m 105 -154 b 236 175 144 -90 204 58 l 109 161 b 29 -164 95 62 58 -82 l 105 -154 "},"Æ":{"x_min":-1.125,"x_max":1050.140625,"ha":1094,"o":"m 123 0 l 273 330 l 561 330 l 602 0 l 1048 0 l 1050 101 l 707 101 l 665 436 l 998 436 l 998 536 l 650 536 l 614 835 l 1012 835 l 1012 936 l 426 936 l -1 0 l 123 0 m 314 428 l 434 701 b 494 849 455 752 477 804 l 500 849 b 516 697 502 802 511 742 l 547 428 l 314 428 "},"Ū":{"x_min":104.171875,"x_max":794.453125,"ha":899,"o":"m 104 936 l 104 385 b 440 -15 104 94 248 -15 b 794 390 643 -15 794 102 l 794 936 l 672 936 l 672 382 b 444 83 672 175 583 83 b 226 382 319 83 226 172 l 226 936 l 104 936 m 283 1095 l 283 1018 l 615 1018 l 615 1095 l 283 1095 "},"ы":{"x_min":98.609375,"x_max":825,"ha":924,"o":"m 98 672 l 98 2 b 279 -6 148 -2 211 -6 b 550 70 368 -6 476 8 b 619 226 593 107 619 155 b 329 451 619 392 473 451 b 219 443 284 451 245 448 l 219 672 l 98 672 m 219 357 b 309 364 244 361 275 364 b 498 222 401 364 498 330 b 304 79 498 118 397 79 b 219 84 269 79 243 82 l 219 357 m 704 672 l 704 0 l 825 0 l 825 672 l 704 672 "},"ѓ":{"x_min":98.609375,"x_max":511.109375,"ha":535,"o":"m 98 672 l 98 0 l 219 0 l 219 574 l 511 574 l 511 672 l 98 672 m 347 963 l 225 764 l 312 764 l 481 963 l 347 963 "},"Œ":{"x_min":50,"x_max":1190.28125,"ha":1242,"o":"m 1190 101 l 784 101 l 784 437 l 1147 437 l 1147 539 l 784 539 l 784 835 l 1169 835 l 1169 936 l 722 936 b 633 945 697 936 668 941 b 511 952 598 948 559 952 b 50 461 241 952 50 770 b 504 -15 50 193 213 -15 b 619 -8 548 -15 584 -11 b 711 0 652 -4 683 0 l 1190 0 l 1190 101 m 662 101 b 526 83 631 90 577 83 b 179 467 306 83 177 239 b 515 853 177 696 305 853 b 662 832 581 853 626 845 l 662 101 "},"΅":{"x_min":5.5625,"x_max":470.828125,"ha":481,"o":"m 212 986 l 181 768 l 248 768 l 316 986 l 212 986 m 70 796 b 134 863 108 796 134 827 b 72 928 134 900 106 928 b 5 863 34 928 5 899 b 69 796 5 827 31 796 l 70 796 m 406 796 b 470 863 445 796 470 827 b 406 928 470 900 444 928 b 341 863 370 928 341 899 b 405 796 341 827 368 796 l 406 796 "},"Ạ":{"x_min":34.71875,"x_max":818.0625,"ha":850,"o":"m 588 294 l 688 0 l 818 0 l 498 936 l 352 936 l 34 0 l 159 0 l 256 294 l 588 294 m 281 389 l 373 660 b 420 829 391 717 406 774 l 423 829 b 472 658 437 775 451 720 l 563 389 l 281 389 m 422 -111 b 350 -182 381 -111 350 -143 b 419 -254 350 -221 380 -254 b 490 -182 461 -254 490 -221 b 422 -111 490 -143 459 -111 "},"Ą":{"x_min":35.265625,"x_max":847.765625,"ha":850,"o":"m 499 936 l 353 936 l 35 0 l 160 0 l 257 294 l 589 294 l 688 5 b 606 -165 654 -31 606 -97 b 735 -284 606 -243 657 -284 b 847 -252 769 -284 818 -275 l 828 -190 b 765 -204 811 -198 789 -204 b 694 -132 724 -204 694 -176 b 768 -2 694 -82 746 -25 l 818 0 l 499 936 m 282 389 l 374 660 b 421 829 392 717 407 774 l 424 829 b 472 658 438 775 451 720 l 564 389 l 282 389 "},"Њ":{"x_min":105.5625,"x_max":1191.671875,"ha":1246,"o":"m 105 937 l 105 0 l 226 0 l 226 460 l 597 460 l 597 3 b 786 -7 637 -2 700 -7 b 1112 95 919 -7 1036 18 b 1191 298 1161 142 1191 207 b 845 578 1191 495 1029 578 b 718 572 797 578 747 576 l 718 937 l 597 937 l 597 563 l 226 563 l 226 937 l 105 937 m 718 478 b 820 484 744 481 777 484 b 1065 294 950 484 1065 431 b 816 86 1065 149 948 86 b 718 93 776 86 745 88 l 718 478 "},"ỷ":{"x_min":12.5,"x_max":644.4375,"ha":654,"o":"m 12 672 l 261 52 b 269 20 266 37 269 27 b 259 -8 269 13 265 4 b 156 -144 231 -70 190 -118 b 50 -204 120 -175 80 -194 l 80 -307 b 230 -227 111 -301 170 -280 b 461 193 313 -155 373 -37 l 644 672 l 515 672 l 381 278 b 338 137 365 229 351 177 l 336 137 b 293 275 325 177 308 230 l 145 672 l 12 672 m 359 736 b 463 899 391 800 463 821 b 347 1003 463 960 412 1003 b 211 910 277 1003 236 960 l 258 882 b 326 931 275 907 295 931 b 372 884 351 931 372 913 b 294 753 372 832 311 814 l 359 736 "},"›":{"x_min":32,"x_max":315,"ha":354,"o":"m 217 350 l 32 94 l 130 94 l 315 350 l 129 606 l 32 606 l 217 350 "},"ћ":{"x_min":9.71875,"x_max":695.828125,"ha":793,"o":"m 9 868 l 9 781 l 123 781 l 123 0 l 245 0 l 245 393 b 254 457 245 417 248 440 b 418 579 276 519 336 579 b 573 379 533 579 573 487 l 573 0 l 695 0 l 695 393 b 461 679 695 581 601 679 b 331 646 412 679 369 668 b 248 564 300 625 270 597 l 245 564 l 245 781 l 526 781 l 526 868 l 245 868 l 245 986 l 123 986 l 123 868 l 9 868 "},"":{"x_min":31.9375,"x_max":434.71875,"ha":467,"o":"m 230 362 b 434 644 366 362 434 475 b 236 918 434 813 363 918 b 31 639 111 918 31 811 b 229 362 31 467 108 362 l 230 362 m 231 433 b 129 643 169 433 129 508 b 233 847 129 772 170 847 b 337 643 302 847 337 772 b 233 433 337 511 301 433 l 231 433 "},"":{"x_min":29.171875,"x_max":151.390625,"ha":182,"o":"m 90 607 b 151 670 127 607 151 635 b 91 732 151 707 127 732 b 29 670 55 732 29 707 b 88 607 29 635 54 607 l 90 607 "},"<":{"x_min":91.671875,"x_max":736.109375,"ha":828,"o":"m 91 332 l 736 0 l 736 95 l 193 368 l 193 371 l 736 643 l 736 739 l 91 407 l 91 332 "}}}
